G04*
G04 #@! TF.GenerationSoftware,Altium Limited,Altium Designer,24.0.1 (36)*
G04*
G04 Layer_Color=2752767*
%FSLAX25Y25*%
%MOIN*%
G70*
G04*
G04 #@! TF.SameCoordinates,EAEA65AB-E80B-4046-BB69-B77F90F57262*
G04*
G04*
G04 #@! TF.FilePolarity,Positive*
G04*
G01*
G75*
%ADD65C,0.00500*%
%ADD66C,0.00667*%
D65*
X47244Y206661D02*
X48244Y207661D01*
X49244D01*
X48244Y208661D01*
X49244Y209661D01*
X48244D01*
X47244Y210661D01*
X46244Y209661D01*
X45244D01*
X46244Y208661D01*
X45244Y207661D01*
X46244D01*
X47244Y206661D01*
X57244D02*
X58244Y207661D01*
X59244D01*
X58244Y208661D01*
X59244Y209661D01*
X58244D01*
X57244Y210661D01*
X56244Y209661D01*
X55244D01*
X56244Y208661D01*
X55244Y207661D01*
X56244D01*
X57244Y206661D01*
X454693Y114142D02*
X455693Y116142D01*
X454693Y118142D01*
X456693Y117142D01*
X458693Y118142D01*
X457693Y116142D01*
X458693Y114142D01*
X456693Y115142D01*
X454693Y114142D01*
Y94457D02*
X455693Y96457D01*
X454693Y98457D01*
X456693Y97457D01*
X458693Y98457D01*
X457693Y96457D01*
X458693Y94457D01*
X456693Y95457D01*
X454693Y94457D01*
Y74772D02*
X455693Y76772D01*
X454693Y78772D01*
X456693Y77772D01*
X458693Y78772D01*
X457693Y76772D01*
X458693Y74772D01*
X456693Y75772D01*
X454693Y74772D01*
Y55087D02*
X455693Y57087D01*
X454693Y59087D01*
X456693Y58087D01*
X458693Y59087D01*
X457693Y57087D01*
X458693Y55087D01*
X456693Y56087D01*
X454693Y55087D01*
Y35402D02*
X455693Y37402D01*
X454693Y39402D01*
X456693Y38402D01*
X458693Y39402D01*
X457693Y37402D01*
X458693Y35402D01*
X456693Y36402D01*
X454693Y35402D01*
Y15717D02*
X455693Y17717D01*
X454693Y19716D01*
X456693Y18717D01*
X458693Y19716D01*
X457693Y17717D01*
X458693Y15717D01*
X456693Y16716D01*
X454693Y15717D01*
X455087Y151937D02*
X456087Y153937D01*
X455087Y155937D01*
X457087Y154937D01*
X459087Y155937D01*
X458087Y153937D01*
X459087Y151937D01*
X457087Y152937D01*
X455087Y151937D01*
Y171622D02*
X456087Y173622D01*
X455087Y175622D01*
X457087Y174622D01*
X459087Y175622D01*
X458087Y173622D01*
X459087Y171622D01*
X457087Y172622D01*
X455087Y171622D01*
Y191307D02*
X456087Y193307D01*
X455087Y195307D01*
X457087Y194307D01*
X459087Y195307D01*
X458087Y193307D01*
X459087Y191307D01*
X457087Y192307D01*
X455087Y191307D01*
Y210992D02*
X456087Y212992D01*
X455087Y214992D01*
X457087Y213992D01*
X459087Y214992D01*
X458087Y212992D01*
X459087Y210992D01*
X457087Y211992D01*
X455087Y210992D01*
Y230677D02*
X456087Y232677D01*
X455087Y234677D01*
X457087Y233677D01*
X459087Y234677D01*
X458087Y232677D01*
X459087Y230677D01*
X457087Y231677D01*
X455087Y230677D01*
Y250362D02*
X456087Y252362D01*
X455087Y254362D01*
X457087Y253362D01*
X459087Y254362D01*
X458087Y252362D01*
X459087Y250362D01*
X457087Y251362D01*
X455087Y250362D01*
X341205Y16716D02*
Y15717D01*
X343205D01*
Y16716D01*
X344205D01*
Y18717D01*
X343205D01*
Y19716D01*
X341205D01*
Y18717D01*
X340205D01*
Y16716D01*
X341205D01*
X351205D02*
Y15717D01*
X353205D01*
Y16716D01*
X354205D01*
Y18717D01*
X353205D01*
Y19716D01*
X351205D01*
Y18717D01*
X350205D01*
Y16716D01*
X351205D01*
X361205D02*
Y15717D01*
X363205D01*
Y16716D01*
X364205D01*
Y18717D01*
X363205D01*
Y19716D01*
X361205D01*
Y18717D01*
X360205D01*
Y16716D01*
X361205D01*
X371205D02*
Y15717D01*
X373205D01*
Y16716D01*
X374205D01*
Y18717D01*
X373205D01*
Y19716D01*
X371205D01*
Y18717D01*
X370205D01*
Y16716D01*
X371205D01*
X381205D02*
Y15717D01*
X383205D01*
Y16716D01*
X384205D01*
Y18717D01*
X383205D01*
Y19716D01*
X381205D01*
Y18717D01*
X380205D01*
Y16716D01*
X381205D01*
X391205D02*
Y15717D01*
X393205D01*
Y16716D01*
X394205D01*
Y18717D01*
X393205D01*
Y19716D01*
X391205D01*
Y18717D01*
X390205D01*
Y16716D01*
X391205D01*
X401205D02*
Y15717D01*
X403205D01*
Y16716D01*
X404205D01*
Y18717D01*
X403205D01*
Y19716D01*
X401205D01*
Y18717D01*
X400205D01*
Y16716D01*
X401205D01*
X411205D02*
Y15717D01*
X413205D01*
Y16716D01*
X414205D01*
Y18717D01*
X413205D01*
Y19716D01*
X411205D01*
Y18717D01*
X410205D01*
Y16716D01*
X411205D01*
X341205Y66716D02*
Y65716D01*
X343205D01*
Y66716D01*
X344205D01*
Y68717D01*
X343205D01*
Y69717D01*
X341205D01*
Y68717D01*
X340205D01*
Y66716D01*
X341205D01*
X351205D02*
Y65716D01*
X353205D01*
Y66716D01*
X354205D01*
Y68717D01*
X353205D01*
Y69717D01*
X351205D01*
Y68717D01*
X350205D01*
Y66716D01*
X351205D01*
X361205D02*
Y65716D01*
X363205D01*
Y66716D01*
X364205D01*
Y68717D01*
X363205D01*
Y69717D01*
X361205D01*
Y68717D01*
X360205D01*
Y66716D01*
X361205D01*
X371205D02*
Y65716D01*
X373205D01*
Y66716D01*
X374205D01*
Y68717D01*
X373205D01*
Y69717D01*
X371205D01*
Y68717D01*
X370205D01*
Y66716D01*
X371205D01*
X381205D02*
Y65716D01*
X383205D01*
Y66716D01*
X384205D01*
Y68717D01*
X383205D01*
Y69717D01*
X381205D01*
Y68717D01*
X380205D01*
Y66716D01*
X381205D01*
X391205D02*
Y65716D01*
X393205D01*
Y66716D01*
X394205D01*
Y68717D01*
X393205D01*
Y69717D01*
X391205D01*
Y68717D01*
X390205D01*
Y66716D01*
X391205D01*
X401205D02*
Y65716D01*
X403205D01*
Y66716D01*
X404205D01*
Y68717D01*
X403205D01*
Y69717D01*
X401205D01*
Y68717D01*
X400205D01*
Y66716D01*
X401205D01*
X411205D02*
Y65716D01*
X413205D01*
Y66716D01*
X414205D01*
Y68717D01*
X413205D01*
Y69717D01*
X411205D01*
Y68717D01*
X410205D01*
Y66716D01*
X411205D01*
X412228Y177347D02*
Y176347D01*
X414228D01*
Y177347D01*
X415228D01*
Y179347D01*
X414228D01*
Y180347D01*
X412228D01*
Y179347D01*
X411228D01*
Y177347D01*
X412228D01*
X402228D02*
Y176347D01*
X404228D01*
Y177347D01*
X405228D01*
Y179347D01*
X404228D01*
Y180347D01*
X402228D01*
Y179347D01*
X401228D01*
Y177347D01*
X402228D01*
X392228D02*
Y176347D01*
X394228D01*
Y177347D01*
X395228D01*
Y179347D01*
X394228D01*
Y180347D01*
X392228D01*
Y179347D01*
X391228D01*
Y177347D01*
X392228D01*
X382228D02*
Y176347D01*
X384228D01*
Y177347D01*
X385228D01*
Y179347D01*
X384228D01*
Y180347D01*
X382228D01*
Y179347D01*
X381228D01*
Y177347D01*
X382228D01*
X372228D02*
Y176347D01*
X374228D01*
Y177347D01*
X375228D01*
Y179347D01*
X374228D01*
Y180347D01*
X372228D01*
Y179347D01*
X371228D01*
Y177347D01*
X372228D01*
X362228D02*
Y176347D01*
X364228D01*
Y177347D01*
X365228D01*
Y179347D01*
X364228D01*
Y180347D01*
X362228D01*
Y179347D01*
X361228D01*
Y177347D01*
X362228D01*
X352228D02*
Y176347D01*
X354228D01*
Y177347D01*
X355228D01*
Y179347D01*
X354228D01*
Y180347D01*
X352228D01*
Y179347D01*
X351228D01*
Y177347D01*
X352228D01*
X342228D02*
Y176347D01*
X344228D01*
Y177347D01*
X345228D01*
Y179347D01*
X344228D01*
Y180347D01*
X342228D01*
Y179347D01*
X341228D01*
Y177347D01*
X342228D01*
X412228Y127347D02*
Y126347D01*
X414228D01*
Y127347D01*
X415228D01*
Y129347D01*
X414228D01*
Y130347D01*
X412228D01*
Y129347D01*
X411228D01*
Y127347D01*
X412228D01*
X402228D02*
Y126347D01*
X404228D01*
Y127347D01*
X405228D01*
Y129347D01*
X404228D01*
Y130347D01*
X402228D01*
Y129347D01*
X401228D01*
Y127347D01*
X402228D01*
X392228D02*
Y126347D01*
X394228D01*
Y127347D01*
X395228D01*
Y129347D01*
X394228D01*
Y130347D01*
X392228D01*
Y129347D01*
X391228D01*
Y127347D01*
X392228D01*
X382228D02*
Y126347D01*
X384228D01*
Y127347D01*
X385228D01*
Y129347D01*
X384228D01*
Y130347D01*
X382228D01*
Y129347D01*
X381228D01*
Y127347D01*
X382228D01*
X372228D02*
Y126347D01*
X374228D01*
Y127347D01*
X375228D01*
Y129347D01*
X374228D01*
Y130347D01*
X372228D01*
Y129347D01*
X371228D01*
Y127347D01*
X372228D01*
X362228D02*
Y126347D01*
X364228D01*
Y127347D01*
X365228D01*
Y129347D01*
X364228D01*
Y130347D01*
X362228D01*
Y129347D01*
X361228D01*
Y127347D01*
X362228D01*
X352228D02*
Y126347D01*
X354228D01*
Y127347D01*
X355228D01*
Y129347D01*
X354228D01*
Y130347D01*
X352228D01*
Y129347D01*
X351228D01*
Y127347D01*
X352228D01*
X342228D02*
Y126347D01*
X344228D01*
Y127347D01*
X345228D01*
Y129347D01*
X344228D01*
Y130347D01*
X342228D01*
Y129347D01*
X341228D01*
Y127347D01*
X342228D01*
X23197Y71228D02*
X24197Y73228D01*
X23197Y75228D01*
X25197Y74228D01*
X27197Y75228D01*
X26197Y73228D01*
X27197Y71228D01*
X25197Y72228D01*
X23197Y71228D01*
X42882D02*
X43882Y73228D01*
X42882Y75228D01*
X44882Y74228D01*
X46882Y75228D01*
X45882Y73228D01*
X46882Y71228D01*
X44882Y72228D01*
X42882Y71228D01*
X62567D02*
X63567Y73228D01*
X62567Y75228D01*
X64567Y74228D01*
X66567Y75228D01*
X65567Y73228D01*
X66567Y71228D01*
X64567Y72228D01*
X62567Y71228D01*
X82252D02*
X83252Y73228D01*
X82252Y75228D01*
X84252Y74228D01*
X86252Y75228D01*
X85252Y73228D01*
X86252Y71228D01*
X84252Y72228D01*
X82252Y71228D01*
X101937D02*
X102937Y73228D01*
X101937Y75228D01*
X103937Y74228D01*
X105937Y75228D01*
X104937Y73228D01*
X105937Y71228D01*
X103937Y72228D01*
X101937Y71228D01*
X121622D02*
X122622Y73228D01*
X121622Y75228D01*
X123622Y74228D01*
X125622Y75228D01*
X124622Y73228D01*
X125622Y71228D01*
X123622Y72228D01*
X121622Y71228D01*
X141307D02*
X142307Y73228D01*
X141307Y75228D01*
X143307Y74228D01*
X145307Y75228D01*
X144307Y73228D01*
X145307Y71228D01*
X143307Y72228D01*
X141307Y71228D01*
X160992D02*
X161992Y73228D01*
X160992Y75228D01*
X162992Y74228D01*
X164992Y75228D01*
X163992Y73228D01*
X164992Y71228D01*
X162992Y72228D01*
X160992Y71228D01*
X180677D02*
X181677Y73228D01*
X180677Y75228D01*
X182677Y74228D01*
X184677Y75228D01*
X183677Y73228D01*
X184677Y71228D01*
X182677Y72228D01*
X180677Y71228D01*
X200362D02*
X201362Y73228D01*
X200362Y75228D01*
X202362Y74228D01*
X204362Y75228D01*
X203362Y73228D01*
X204362Y71228D01*
X202362Y72228D01*
X200362Y71228D01*
X220047D02*
X221047Y73228D01*
X220047Y75228D01*
X222047Y74228D01*
X224047Y75228D01*
X223047Y73228D01*
X224047Y71228D01*
X222047Y72228D01*
X220047Y71228D01*
X239732D02*
X240732Y73228D01*
X239732Y75228D01*
X241732Y74228D01*
X243732Y75228D01*
X242732Y73228D01*
X243732Y71228D01*
X241732Y72228D01*
X239732Y71228D01*
X294881Y160992D02*
X295881Y161992D01*
X296881D01*
X295881Y162992D01*
X296881Y163992D01*
X295881D01*
X294881Y164992D01*
X293881Y163992D01*
X292881D01*
X293881Y162992D01*
X292881Y161992D01*
X293881D01*
X294881Y160992D01*
Y170992D02*
X295881Y171992D01*
X296881D01*
X295881Y172992D01*
X296881Y173992D01*
X295881D01*
X294881Y174992D01*
X293881Y173992D01*
X292881D01*
X293881Y172992D01*
X292881Y171992D01*
X293881D01*
X294881Y170992D01*
Y180992D02*
X295881Y181992D01*
X296881D01*
X295881Y182992D01*
X296881Y183992D01*
X295881D01*
X294881Y184992D01*
X293881Y183992D01*
X292881D01*
X293881Y182992D01*
X292881Y181992D01*
X293881D01*
X294881Y180992D01*
X316928Y160992D02*
X317928Y161992D01*
X318928D01*
X317928Y162992D01*
X318928Y163992D01*
X317928D01*
X316928Y164992D01*
X315928Y163992D01*
X314928D01*
X315928Y162992D01*
X314928Y161992D01*
X315928D01*
X316928Y160992D01*
Y170992D02*
X317928Y171992D01*
X318928D01*
X317928Y172992D01*
X318928Y173992D01*
X317928D01*
X316928Y174992D01*
X315928Y173992D01*
X314928D01*
X315928Y172992D01*
X314928Y171992D01*
X315928D01*
X316928Y170992D01*
Y180992D02*
X317928Y181992D01*
X318928D01*
X317928Y182992D01*
X318928Y183992D01*
X317928D01*
X316928Y184992D01*
X315928Y183992D01*
X314928D01*
X315928Y182992D01*
X314928Y181992D01*
X315928D01*
X316928Y180992D01*
X316929Y50835D02*
X317929Y51835D01*
X318929D01*
X317929Y52835D01*
X318929Y53835D01*
X317929D01*
X316929Y54835D01*
X315929Y53835D01*
X314929D01*
X315929Y52835D01*
X314929Y51835D01*
X315929D01*
X316929Y50835D01*
Y60835D02*
X317929Y61835D01*
X318929D01*
X317929Y62835D01*
X318929Y63835D01*
X317929D01*
X316929Y64835D01*
X315929Y63835D01*
X314929D01*
X315929Y62835D01*
X314929Y61835D01*
X315929D01*
X316929Y60835D01*
Y70835D02*
X317929Y71835D01*
X318929D01*
X317929Y72835D01*
X318929Y73835D01*
X317929D01*
X316929Y74835D01*
X315929Y73835D01*
X314929D01*
X315929Y72835D01*
X314929Y71835D01*
X315929D01*
X316929Y70835D01*
X295276Y50835D02*
X296276Y51835D01*
X297276D01*
X296276Y52835D01*
X297276Y53835D01*
X296276D01*
X295276Y54835D01*
X294276Y53835D01*
X293276D01*
X294276Y52835D01*
X293276Y51835D01*
X294276D01*
X295276Y50835D01*
Y60835D02*
X296276Y61835D01*
X297276D01*
X296276Y62835D01*
X297276Y63835D01*
X296276D01*
X295276Y64835D01*
X294276Y63835D01*
X293276D01*
X294276Y62835D01*
X293276Y61835D01*
X294276D01*
X295276Y60835D01*
Y70835D02*
X296276Y71835D01*
X297276D01*
X296276Y72835D01*
X297276Y73835D01*
X296276D01*
X295276Y74835D01*
X294276Y73835D01*
X293276D01*
X294276Y72835D01*
X293276Y71835D01*
X294276D01*
X295276Y70835D01*
X291839Y217547D02*
Y221547D01*
X295839D01*
Y217547D01*
X291839D01*
X281839D02*
Y221547D01*
X285839D01*
Y217547D01*
X281839D01*
X271839D02*
Y221547D01*
X275839D01*
Y217547D01*
X271839D01*
X261839D02*
Y221547D01*
X265839D01*
Y217547D01*
X261839D01*
X251839D02*
Y221547D01*
X255839D01*
Y217547D01*
X251839D01*
X241839D02*
Y221547D01*
X245839D01*
Y217547D01*
X241839D01*
X231839D02*
Y221547D01*
X235839D01*
Y217547D01*
X231839D01*
X221839D02*
Y221547D01*
X225839D01*
Y217547D01*
X221839D01*
X211839D02*
Y221547D01*
X215839D01*
Y217547D01*
X211839D01*
X201839D02*
Y221547D01*
X205839D01*
Y217547D01*
X201839D01*
X191839D02*
Y221547D01*
X195839D01*
Y217547D01*
X191839D01*
X181839D02*
Y221547D01*
X185839D01*
Y217547D01*
X181839D01*
X171839D02*
Y221547D01*
X175839D01*
Y217547D01*
X171839D01*
X161839D02*
Y221547D01*
X165839D01*
Y217547D01*
X161839D01*
X151839D02*
Y221547D01*
X155839D01*
Y217547D01*
X151839D01*
X141839D02*
Y221547D01*
X145839D01*
Y217547D01*
X141839D01*
X131839D02*
Y221547D01*
X135839D01*
Y217547D01*
X131839D01*
X121839D02*
Y221547D01*
X125839D01*
Y217547D01*
X121839D01*
X111839D02*
Y221547D01*
X115839D01*
Y217547D01*
X111839D01*
X101839D02*
Y221547D01*
X105839D01*
Y217547D01*
X101839D01*
X291839Y207547D02*
Y211547D01*
X295839D01*
Y207547D01*
X291839D01*
X281839D02*
Y211547D01*
X285839D01*
Y207547D01*
X281839D01*
X271839D02*
Y211547D01*
X275839D01*
Y207547D01*
X271839D01*
X261839D02*
Y211547D01*
X265839D01*
Y207547D01*
X261839D01*
X251839D02*
Y211547D01*
X255839D01*
Y207547D01*
X251839D01*
X241839D02*
Y211547D01*
X245839D01*
Y207547D01*
X241839D01*
X231839D02*
Y211547D01*
X235839D01*
Y207547D01*
X231839D01*
X221839D02*
Y211547D01*
X225839D01*
Y207547D01*
X221839D01*
X211839D02*
Y211547D01*
X215839D01*
Y207547D01*
X211839D01*
X201839D02*
Y211547D01*
X205839D01*
Y207547D01*
X201839D01*
X191839D02*
Y211547D01*
X195839D01*
Y207547D01*
X191839D01*
X181839D02*
Y211547D01*
X185839D01*
Y207547D01*
X181839D01*
X171839D02*
Y211547D01*
X175839D01*
Y207547D01*
X171839D01*
X161839D02*
Y211547D01*
X165839D01*
Y207547D01*
X161839D01*
X151839D02*
Y211547D01*
X155839D01*
Y207547D01*
X151839D01*
X141839D02*
Y211547D01*
X145839D01*
Y207547D01*
X141839D01*
X131839D02*
Y211547D01*
X135839D01*
Y207547D01*
X131839D01*
X121839D02*
Y211547D01*
X125839D01*
Y207547D01*
X121839D01*
X111839D02*
Y211547D01*
X115839D01*
Y207547D01*
X111839D01*
X101839D02*
Y211547D01*
X105839D01*
Y207547D01*
X101839D01*
X368460Y257042D02*
X369460Y258042D01*
X370460D01*
X369460Y259042D01*
X370460Y260042D01*
X369460D01*
X368460Y261042D01*
X367460Y260042D01*
X366460D01*
X367460Y259042D01*
X366460Y258042D01*
X367460D01*
X368460Y257042D01*
X388145D02*
X389145Y258042D01*
X390145D01*
X389145Y259042D01*
X390145Y260042D01*
X389145D01*
X388145Y261042D01*
X387145Y260042D01*
X386145D01*
X387145Y259042D01*
X386145Y258042D01*
X387145D01*
X388145Y257042D01*
X337402Y208630D02*
X335402Y212630D01*
X339402D01*
X337402Y208630D01*
X372047Y106268D02*
X370047Y110268D01*
X374047D01*
X372047Y106268D01*
X379528Y205087D02*
X377528Y209087D01*
X381528D01*
X379528Y205087D01*
X375197D02*
X373197Y209087D01*
X377197D01*
X375197Y205087D01*
X383858D02*
X381858Y209087D01*
X385858D01*
X383858Y205087D01*
X357874Y208630D02*
X355874Y212630D01*
X359874D01*
X357874Y208630D01*
Y214535D02*
X355874Y218535D01*
X359874D01*
X357874Y214535D01*
X272441Y173984D02*
X270441Y177984D01*
X274441D01*
X272441Y173984D01*
X209842Y129890D02*
X207842Y133890D01*
X211842D01*
X209842Y129890D01*
X253150D02*
X251150Y133890D01*
X255150D01*
X253150Y129890D01*
X23228Y180283D02*
X21228Y184283D01*
X25228D01*
X23228Y180283D01*
X123228Y130283D02*
X121228Y134283D01*
X125228D01*
X123228Y130283D01*
X85433D02*
X83433Y134283D01*
X87433D01*
X85433Y130283D01*
X79528D02*
X77528Y134283D01*
X81528D01*
X79528Y130283D01*
X257874Y129890D02*
X255874Y133890D01*
X259874D01*
X257874Y129890D01*
X214567D02*
X212567Y133890D01*
X216567D01*
X214567Y129890D01*
X171260Y130283D02*
X169260Y134283D01*
X173260D01*
X171260Y130283D01*
X165354D02*
X163354Y134283D01*
X167354D01*
X165354Y130283D01*
X129134D02*
X127134Y134283D01*
X131134D01*
X129134Y130283D01*
X235827Y164535D02*
X233827Y168535D01*
X237827D01*
X235827Y164535D01*
X106299Y162173D02*
X104299Y166173D01*
X108299D01*
X106299Y162173D01*
X63386Y164535D02*
X61386Y168535D01*
X65386D01*
X63386Y164535D01*
X30315Y153905D02*
X28315Y157905D01*
X32315D01*
X30315Y153905D01*
X231890Y173984D02*
X229890Y177984D01*
X233890D01*
X231890Y173984D01*
X188583D02*
X186583Y177984D01*
X190583D01*
X188583Y173984D01*
X145669D02*
X143669Y177984D01*
X147669D01*
X145669Y173984D01*
X102756D02*
X100756Y177984D01*
X104756D01*
X102756Y173984D01*
X59255D02*
X57255Y177984D01*
X61255D01*
X59255Y173984D01*
X46063Y135795D02*
X44063Y139795D01*
X48063D01*
X46063Y135795D01*
D66*
X314992Y21654D02*
G03*
X314992Y21654I-2000J0D01*
G01*
Y214567D02*
G03*
X314992Y214567I-2000J0D01*
G01*
X86646D02*
G03*
X86646Y214567I-2000J0D01*
G01*
Y21654D02*
G03*
X86646Y21654I-2000J0D01*
G01*
M02*
