M48
;Layer_Color=9474304
;FILE_FORMAT=2:4
INCH,TZ
;TYPE=PLATED
T01F00S00C0.0157
T02F00S00C0.0250
T03F00S00C0.0300
T04F00S00C0.0402
T05F00S00C0.0591
T06F00S00C0.1181
%
T01
X37205Y10827
X37520Y20709
X37953
X38386
X35787Y21063
Y21654
X33740Y21063
X27244Y17598
X23189
X23583Y16654
X25315Y13189
X25787
X21457
X20984
X17126Y13228
X16535
X18858Y17598
X14567
X10276
X10630Y16417
X6339Y16654
X5926Y17598
X2323Y18228
X3031Y15591
X4606Y13780
X7953Y13228
X8543
X12323
X12913
T02
X34220Y1772
X35220
X36220
X37220
X38220
X39220
X40220
X41220
Y6772
X40220
X39220
X38220
X37220
X36220
X35220
X34220
X34323Y12835
X35323
X36323
X37323
X38323
X39323
X40323
X41323
Y17835
X40323
X39323
X38323
X37323
X36323
X35323
X34323
T03
X29528Y5283
Y6283
Y7283
X31693
Y6283
Y5283
X31693Y16299
Y17299
Y18299
X29488
Y17299
Y16299
X5724Y20866
X4724
X36846Y25904
X38814
T04
X15384Y20955
Y21955
X16384
X17384
X18384
X19384
X20384
X21384
X22384
X23384
X24384
X25384
X26384
X27384
X28384
X29384
Y20955
X28384
X27384
X26384
X25384
X24384
X23384
X22384
X21384
X20384
X19384
X18384
X17384
X16384
X14384
Y21955
X13384
X12384
X11384
X10384
Y20955
X11384
X12384
X13384
T05
X2520Y7323
X4488
X6457
X8425
X10394
X12362
X14331
X16299
X18268
X20236
X22205
X24173
X45669Y7677
Y5709
Y3740
Y1772
Y9646
Y11614
X45709Y15394
Y17362
Y19331
Y21299
Y23268
Y25236
T06
X8465Y2165
X31299
Y21457
X8465
M30
