G04*
G04 #@! TF.GenerationSoftware,Altium Limited,Altium Designer,24.0.1 (36)*
G04*
G04 Layer_Color=8388736*
%FSLAX25Y25*%
%MOIN*%
G70*
G04*
G04 #@! TF.SameCoordinates,EAEA65AB-E80B-4046-BB69-B77F90F57262*
G04*
G04*
G04 #@! TF.FilePolarity,Negative*
G04*
G01*
G75*
%ADD14R,0.01378X0.01968*%
%ADD15R,0.05315X0.03740*%
%ADD16R,0.06738X0.05550*%
%ADD17R,0.05550X0.06738*%
%ADD18C,0.06800*%
%ADD19R,0.06800X0.06800*%
%ADD20O,0.20485X0.12611*%
%ADD21R,0.20485X0.12611*%
%ADD22R,0.05800X0.10800*%
%ADD23O,0.05800X0.10800*%
%ADD24R,0.12611X0.20485*%
%ADD25O,0.12611X0.20485*%
%ADD26R,0.06800X0.06800*%
%ADD27C,0.06981*%
%ADD28R,0.06981X0.06981*%
%ADD29C,0.24422*%
%ADD30C,0.03162*%
D14*
X36909Y173721D02*
D03*
X34350D02*
D03*
Y165650D02*
D03*
X36909D02*
D03*
X39469D02*
D03*
X42028D02*
D03*
Y173721D02*
D03*
X39469D02*
D03*
D15*
X26772Y160433D02*
D03*
Y166339D02*
D03*
D16*
X372047Y94288D02*
D03*
Y102562D02*
D03*
D17*
X350394Y204724D02*
D03*
X342119D02*
D03*
X53156Y183465D02*
D03*
X44882D02*
D03*
X29327D02*
D03*
X37602D02*
D03*
D18*
X47244Y208661D02*
D03*
X294881Y172992D02*
D03*
Y182992D02*
D03*
X316928Y172992D02*
D03*
Y182992D02*
D03*
X316929Y62835D02*
D03*
Y72835D02*
D03*
X295276Y62835D02*
D03*
Y72835D02*
D03*
X388145Y259042D02*
D03*
D19*
X57244Y208661D02*
D03*
X368460Y259042D02*
D03*
D20*
X456693Y116142D02*
D03*
Y96457D02*
D03*
Y76772D02*
D03*
Y57087D02*
D03*
Y37402D02*
D03*
X457087Y173622D02*
D03*
Y193307D02*
D03*
Y212992D02*
D03*
Y232677D02*
D03*
Y252362D02*
D03*
D21*
X456693Y17717D02*
D03*
X457087Y153937D02*
D03*
D22*
X342205Y17717D02*
D03*
X343228Y128347D02*
D03*
D23*
X352205Y17717D02*
D03*
X362205D02*
D03*
X372205D02*
D03*
X382205D02*
D03*
X392205D02*
D03*
X402205D02*
D03*
X412205D02*
D03*
X342205Y67716D02*
D03*
X352205D02*
D03*
X362205D02*
D03*
X372205D02*
D03*
X382205D02*
D03*
X392205D02*
D03*
X402205D02*
D03*
X412205D02*
D03*
X413228Y178347D02*
D03*
X403228D02*
D03*
X393228D02*
D03*
X383228D02*
D03*
X373228D02*
D03*
X363228D02*
D03*
X353228D02*
D03*
X343228D02*
D03*
X413228Y128347D02*
D03*
X403228D02*
D03*
X393228D02*
D03*
X383228D02*
D03*
X373228D02*
D03*
X363228D02*
D03*
X353228D02*
D03*
D24*
X25197Y73228D02*
D03*
D25*
X44882D02*
D03*
X64567D02*
D03*
X84252D02*
D03*
X103937D02*
D03*
X123622D02*
D03*
X143307D02*
D03*
X162992D02*
D03*
X182677D02*
D03*
X202362D02*
D03*
X222047D02*
D03*
X241732D02*
D03*
D26*
X294881Y162992D02*
D03*
X316928D02*
D03*
X316929Y52835D02*
D03*
X295276D02*
D03*
D27*
X293839Y219547D02*
D03*
X283839D02*
D03*
X273839D02*
D03*
X263839D02*
D03*
X253839D02*
D03*
X243839D02*
D03*
X233839D02*
D03*
X223839D02*
D03*
X213839D02*
D03*
X203839D02*
D03*
X193839D02*
D03*
X183839D02*
D03*
X173839D02*
D03*
X163839D02*
D03*
X153839D02*
D03*
X143839D02*
D03*
X133839D02*
D03*
X123839D02*
D03*
X113839D02*
D03*
X103839D02*
D03*
X293839Y209547D02*
D03*
X283839D02*
D03*
X273839D02*
D03*
X263839D02*
D03*
X253839D02*
D03*
X243839D02*
D03*
X233839D02*
D03*
X223839D02*
D03*
X213839D02*
D03*
X203839D02*
D03*
X193839D02*
D03*
X183839D02*
D03*
X173839D02*
D03*
X163839D02*
D03*
X153839D02*
D03*
X143839D02*
D03*
X133839D02*
D03*
X123839D02*
D03*
X113839D02*
D03*
D28*
X103839D02*
D03*
D29*
X312992Y21654D02*
D03*
Y214567D02*
D03*
X84646D02*
D03*
Y21654D02*
D03*
D30*
X337402Y210630D02*
D03*
X372047Y108268D02*
D03*
X379528Y207087D02*
D03*
X375197D02*
D03*
X383858D02*
D03*
X357874Y210630D02*
D03*
Y216535D02*
D03*
X272441Y175984D02*
D03*
X209842Y131890D02*
D03*
X253150D02*
D03*
X23228Y182283D02*
D03*
X123228Y132283D02*
D03*
X85433D02*
D03*
X79528D02*
D03*
X257874Y131890D02*
D03*
X214567D02*
D03*
X171260Y132283D02*
D03*
X165354D02*
D03*
X129134D02*
D03*
X235827Y166535D02*
D03*
X106299Y164173D02*
D03*
X63386Y166535D02*
D03*
X30315Y155905D02*
D03*
X231890Y175984D02*
D03*
X188583D02*
D03*
X145669D02*
D03*
X102756D02*
D03*
X59255D02*
D03*
X46063Y137795D02*
D03*
M02*
