G04*
G04 #@! TF.GenerationSoftware,Altium Limited,Altium Designer,24.0.1 (36)*
G04*
G04 Layer_Color=255*
%FSLAX25Y25*%
%MOIN*%
G70*
G04*
G04 #@! TF.SameCoordinates,EAEA65AB-E80B-4046-BB69-B77F90F57262*
G04*
G04*
G04 #@! TF.FilePolarity,Positive*
G04*
G01*
G75*
%ADD14R,0.01378X0.01968*%
%ADD15R,0.05315X0.03740*%
%ADD31R,0.05938X0.04750*%
%ADD32R,0.04750X0.05938*%
%ADD38C,0.06000*%
%ADD39R,0.06000X0.06000*%
%ADD40O,0.19685X0.11811*%
%ADD41R,0.19685X0.11811*%
%ADD42R,0.05000X0.10000*%
%ADD43O,0.05000X0.10000*%
%ADD44R,0.11811X0.19685*%
%ADD45O,0.11811X0.19685*%
%ADD46R,0.06000X0.06000*%
%ADD47C,0.06181*%
%ADD48R,0.06181X0.06181*%
%ADD49C,0.23622*%
D14*
X36909Y173721D02*
D03*
X34350D02*
D03*
Y165650D02*
D03*
X36909D02*
D03*
X39469D02*
D03*
X42028D02*
D03*
Y173721D02*
D03*
X39469D02*
D03*
D15*
X26772Y160433D02*
D03*
Y166339D02*
D03*
D31*
X372047Y94288D02*
D03*
Y102562D02*
D03*
D32*
X350394Y204724D02*
D03*
X342119D02*
D03*
X53156Y183465D02*
D03*
X44882D02*
D03*
X29327D02*
D03*
X37602D02*
D03*
D38*
X47244Y208661D02*
D03*
X294881Y172992D02*
D03*
Y182992D02*
D03*
X316928Y172992D02*
D03*
Y182992D02*
D03*
X316929Y62835D02*
D03*
Y72835D02*
D03*
X295276Y62835D02*
D03*
Y72835D02*
D03*
X388145Y259042D02*
D03*
D39*
X57244Y208661D02*
D03*
X368460Y259042D02*
D03*
D40*
X456693Y116142D02*
D03*
Y96457D02*
D03*
Y76772D02*
D03*
Y57087D02*
D03*
Y37402D02*
D03*
X457087Y173622D02*
D03*
Y193307D02*
D03*
Y212992D02*
D03*
Y232677D02*
D03*
Y252362D02*
D03*
D41*
X456693Y17717D02*
D03*
X457087Y153937D02*
D03*
D42*
X342205Y17717D02*
D03*
X343228Y128347D02*
D03*
D43*
X352205Y17717D02*
D03*
X362205D02*
D03*
X372205D02*
D03*
X382205D02*
D03*
X392205D02*
D03*
X402205D02*
D03*
X412205D02*
D03*
X342205Y67716D02*
D03*
X352205D02*
D03*
X362205D02*
D03*
X372205D02*
D03*
X382205D02*
D03*
X392205D02*
D03*
X402205D02*
D03*
X412205D02*
D03*
X413228Y178347D02*
D03*
X403228D02*
D03*
X393228D02*
D03*
X383228D02*
D03*
X373228D02*
D03*
X363228D02*
D03*
X353228D02*
D03*
X343228D02*
D03*
X413228Y128347D02*
D03*
X403228D02*
D03*
X393228D02*
D03*
X383228D02*
D03*
X373228D02*
D03*
X363228D02*
D03*
X353228D02*
D03*
D44*
X25197Y73228D02*
D03*
D45*
X44882D02*
D03*
X64567D02*
D03*
X84252D02*
D03*
X103937D02*
D03*
X123622D02*
D03*
X143307D02*
D03*
X162992D02*
D03*
X182677D02*
D03*
X202362D02*
D03*
X222047D02*
D03*
X241732D02*
D03*
D46*
X294881Y162992D02*
D03*
X316928D02*
D03*
X316929Y52835D02*
D03*
X295276D02*
D03*
D47*
X293839Y219547D02*
D03*
X283839D02*
D03*
X273839D02*
D03*
X263839D02*
D03*
X253839D02*
D03*
X243839D02*
D03*
X233839D02*
D03*
X223839D02*
D03*
X213839D02*
D03*
X203839D02*
D03*
X193839D02*
D03*
X183839D02*
D03*
X173839D02*
D03*
X163839D02*
D03*
X153839D02*
D03*
X143839D02*
D03*
X133839D02*
D03*
X123839D02*
D03*
X113839D02*
D03*
X103839D02*
D03*
X293839Y209547D02*
D03*
X283839D02*
D03*
X273839D02*
D03*
X263839D02*
D03*
X253839D02*
D03*
X243839D02*
D03*
X233839D02*
D03*
X223839D02*
D03*
X213839D02*
D03*
X203839D02*
D03*
X193839D02*
D03*
X183839D02*
D03*
X173839D02*
D03*
X163839D02*
D03*
X153839D02*
D03*
X143839D02*
D03*
X133839D02*
D03*
X123839D02*
D03*
X113839D02*
D03*
D48*
X103839D02*
D03*
D49*
X312992Y21654D02*
D03*
Y214567D02*
D03*
X84646D02*
D03*
Y21654D02*
D03*
M02*
