G04*
G04 #@! TF.GenerationSoftware,Altium Limited,Altium Designer,24.0.1 (36)*
G04*
G04 Layer_Color=255*
%FSLAX25Y25*%
%MOIN*%
G70*
G04*
G04 #@! TF.SameCoordinates,EAEA65AB-E80B-4046-BB69-B77F90F57262*
G04*
G04*
G04 #@! TF.FilePolarity,Positive*
G04*
G01*
G75*
%ADD31R,0.05938X0.04750*%
%ADD32R,0.04750X0.05938*%
%ADD38C,0.06000*%
%ADD39R,0.06000X0.06000*%
%ADD40O,0.19685X0.11811*%
%ADD41R,0.19685X0.11811*%
%ADD42R,0.05000X0.10000*%
%ADD43O,0.05000X0.10000*%
%ADD44R,0.11811X0.19685*%
%ADD45O,0.11811X0.19685*%
%ADD46R,0.06000X0.06000*%
%ADD47C,0.06181*%
%ADD48R,0.06181X0.06181*%
%ADD49C,0.23622*%
G04:AMPARAMS|DCode=51|XSize=21.65mil|YSize=49.21mil|CornerRadius=1.95mil|HoleSize=0mil|Usage=FLASHONLY|Rotation=180.000|XOffset=0mil|YOffset=0mil|HoleType=Round|Shape=RoundedRectangle|*
%AMROUNDEDRECTD51*
21,1,0.02165,0.04532,0,0,180.0*
21,1,0.01776,0.04921,0,0,180.0*
1,1,0.00390,-0.00888,0.02266*
1,1,0.00390,0.00888,0.02266*
1,1,0.00390,0.00888,-0.02266*
1,1,0.00390,-0.00888,-0.02266*
%
%ADD51ROUNDEDRECTD51*%
%ADD52R,0.02992X0.12520*%
%ADD53R,0.03740X0.05315*%
%ADD54R,0.04724X0.05906*%
%ADD55R,0.12992X0.05906*%
D31*
X248031Y118694D02*
D03*
Y126969D02*
D03*
X236221Y118694D02*
D03*
Y126969D02*
D03*
X204724Y118694D02*
D03*
Y126969D02*
D03*
X192913Y118694D02*
D03*
Y126969D02*
D03*
X161417Y118694D02*
D03*
Y126969D02*
D03*
X149606Y118694D02*
D03*
Y126969D02*
D03*
X119095Y118694D02*
D03*
Y126969D02*
D03*
X107283Y118694D02*
D03*
Y126969D02*
D03*
X75610Y118694D02*
D03*
Y126969D02*
D03*
X63799Y118694D02*
D03*
Y126969D02*
D03*
X31142Y118694D02*
D03*
Y126969D02*
D03*
X19331Y118694D02*
D03*
Y126969D02*
D03*
D32*
X266933Y175981D02*
D03*
X258658D02*
D03*
X239957D02*
D03*
X248232D02*
D03*
X223625D02*
D03*
X215351D02*
D03*
X196650D02*
D03*
X204925D02*
D03*
X180318D02*
D03*
X172044D02*
D03*
X153343D02*
D03*
X161618D02*
D03*
X137996D02*
D03*
X129721D02*
D03*
X111020D02*
D03*
X119295D02*
D03*
X94511D02*
D03*
X86237D02*
D03*
X67536D02*
D03*
X75810D02*
D03*
X50043D02*
D03*
X41768D02*
D03*
X23067D02*
D03*
X31342D02*
D03*
X345869Y223228D02*
D03*
X337595D02*
D03*
X333271Y233465D02*
D03*
X324997D02*
D03*
X333271Y244094D02*
D03*
X324997D02*
D03*
D38*
X47244Y208661D02*
D03*
X294881Y172992D02*
D03*
Y182992D02*
D03*
X316928Y172992D02*
D03*
Y182992D02*
D03*
X316929Y62835D02*
D03*
Y72835D02*
D03*
X295276Y62835D02*
D03*
Y72835D02*
D03*
X388145Y259042D02*
D03*
D39*
X57244Y208661D02*
D03*
X368460Y259042D02*
D03*
D40*
X456693Y116142D02*
D03*
Y96457D02*
D03*
Y76772D02*
D03*
Y57087D02*
D03*
Y37402D02*
D03*
X457087Y173622D02*
D03*
Y193307D02*
D03*
Y212992D02*
D03*
Y232677D02*
D03*
Y252362D02*
D03*
D41*
X456693Y17717D02*
D03*
X457087Y153937D02*
D03*
D42*
X342205Y17717D02*
D03*
X343228Y128347D02*
D03*
D43*
X352205Y17717D02*
D03*
X362205D02*
D03*
X372205D02*
D03*
X382205D02*
D03*
X392205D02*
D03*
X402205D02*
D03*
X412205D02*
D03*
X342205Y67716D02*
D03*
X352205D02*
D03*
X362205D02*
D03*
X372205D02*
D03*
X382205D02*
D03*
X392205D02*
D03*
X402205D02*
D03*
X412205D02*
D03*
X413228Y178347D02*
D03*
X403228D02*
D03*
X393228D02*
D03*
X383228D02*
D03*
X373228D02*
D03*
X363228D02*
D03*
X353228D02*
D03*
X343228D02*
D03*
X413228Y128347D02*
D03*
X403228D02*
D03*
X393228D02*
D03*
X383228D02*
D03*
X373228D02*
D03*
X363228D02*
D03*
X353228D02*
D03*
D44*
X25197Y73228D02*
D03*
D45*
X44882D02*
D03*
X64567D02*
D03*
X84252D02*
D03*
X103937D02*
D03*
X123622D02*
D03*
X143307D02*
D03*
X162992D02*
D03*
X182677D02*
D03*
X202362D02*
D03*
X222047D02*
D03*
X241732D02*
D03*
D46*
X294881Y162992D02*
D03*
X316928D02*
D03*
X316929Y52835D02*
D03*
X295276D02*
D03*
D47*
X293839Y219547D02*
D03*
X283839D02*
D03*
X273839D02*
D03*
X263839D02*
D03*
X253839D02*
D03*
X243839D02*
D03*
X233839D02*
D03*
X223839D02*
D03*
X213839D02*
D03*
X203839D02*
D03*
X193839D02*
D03*
X183839D02*
D03*
X173839D02*
D03*
X163839D02*
D03*
X153839D02*
D03*
X143839D02*
D03*
X133839D02*
D03*
X123839D02*
D03*
X113839D02*
D03*
X103839D02*
D03*
X293839Y209547D02*
D03*
X283839D02*
D03*
X273839D02*
D03*
X263839D02*
D03*
X253839D02*
D03*
X243839D02*
D03*
X233839D02*
D03*
X223839D02*
D03*
X213839D02*
D03*
X203839D02*
D03*
X193839D02*
D03*
X183839D02*
D03*
X173839D02*
D03*
X163839D02*
D03*
X153839D02*
D03*
X143839D02*
D03*
X133839D02*
D03*
X123839D02*
D03*
X113839D02*
D03*
D48*
X103839D02*
D03*
D49*
X312992Y21654D02*
D03*
Y214567D02*
D03*
X84646D02*
D03*
Y21654D02*
D03*
D51*
X256516Y145961D02*
D03*
X251516D02*
D03*
X246516D02*
D03*
X241516D02*
D03*
X256516Y166630D02*
D03*
X251516D02*
D03*
X246516D02*
D03*
X241516D02*
D03*
X198209D02*
D03*
X203209D02*
D03*
X208209D02*
D03*
X213209D02*
D03*
X198209Y145961D02*
D03*
X203209D02*
D03*
X208209D02*
D03*
X213209D02*
D03*
X154902Y166630D02*
D03*
X159902D02*
D03*
X164902D02*
D03*
X169902D02*
D03*
X154902Y145961D02*
D03*
X159902D02*
D03*
X164902D02*
D03*
X169902D02*
D03*
X112579Y166630D02*
D03*
X117579D02*
D03*
X122579D02*
D03*
X127579D02*
D03*
X112579Y145961D02*
D03*
X117579D02*
D03*
X122579D02*
D03*
X127579D02*
D03*
X69095Y166630D02*
D03*
X74094D02*
D03*
X79094D02*
D03*
X84095D02*
D03*
X69095Y145961D02*
D03*
X74094D02*
D03*
X79094D02*
D03*
X84095D02*
D03*
X24626Y166630D02*
D03*
X29626D02*
D03*
X34626D02*
D03*
X39626D02*
D03*
X24626Y145961D02*
D03*
X29626D02*
D03*
X34626D02*
D03*
X39626D02*
D03*
D52*
X231122Y103146D02*
D03*
X253130D02*
D03*
X187815D02*
D03*
X209823D02*
D03*
X144508D02*
D03*
X166516D02*
D03*
X102185D02*
D03*
X124193D02*
D03*
X58701D02*
D03*
X80709D02*
D03*
X14232D02*
D03*
X36240D02*
D03*
D53*
X245079Y137595D02*
D03*
X239173D02*
D03*
X251969D02*
D03*
X257874D02*
D03*
X201772D02*
D03*
X195866D02*
D03*
X208661D02*
D03*
X214567D02*
D03*
X158465D02*
D03*
X152559D02*
D03*
X165354D02*
D03*
X171260D02*
D03*
X116142D02*
D03*
X110236D02*
D03*
X123031D02*
D03*
X128937D02*
D03*
X72658D02*
D03*
X66752D02*
D03*
X79547D02*
D03*
X85453D02*
D03*
X22284D02*
D03*
X28189D02*
D03*
X40984D02*
D03*
X35079D02*
D03*
X376969Y248031D02*
D03*
X382874D02*
D03*
X363145Y213766D02*
D03*
X369051D02*
D03*
D54*
X370428Y238963D02*
D03*
X379484D02*
D03*
X388539D02*
D03*
D55*
X379484Y213766D02*
D03*
M02*
