G04*
G04 #@! TF.GenerationSoftware,Altium Limited,Altium Designer,24.0.1 (36)*
G04*
G04 Layer_Color=128*
%FSLAX25Y25*%
%MOIN*%
G70*
G04*
G04 #@! TF.SameCoordinates,EAEA65AB-E80B-4046-BB69-B77F90F57262*
G04*
G04*
G04 #@! TF.FilePolarity,Positive*
G04*
G01*
G75*
%ADD65C,0.00500*%
D65*
X45744Y208661D02*
X48744D01*
X47244Y207161D02*
Y210161D01*
X55744Y208661D02*
X58744D01*
X57244Y207161D02*
Y210161D01*
X453740Y116142D02*
X459646D01*
X456693Y113189D02*
Y119095D01*
X453740Y96457D02*
X459646D01*
X456693Y93504D02*
Y99410D01*
X453740Y76772D02*
X459646D01*
X456693Y73819D02*
Y79724D01*
X453740Y57087D02*
X459646D01*
X456693Y54134D02*
Y60039D01*
X453740Y37402D02*
X459646D01*
X456693Y34449D02*
Y40354D01*
X453740Y17717D02*
X459646D01*
X456693Y14764D02*
Y20669D01*
X454134Y153937D02*
X460039D01*
X457087Y150984D02*
Y156890D01*
X454134Y173622D02*
X460039D01*
X457087Y170669D02*
Y176575D01*
X454134Y193307D02*
X460039D01*
X457087Y190354D02*
Y196260D01*
X454134Y212992D02*
X460039D01*
X457087Y210039D02*
Y215945D01*
X454134Y232677D02*
X460039D01*
X457087Y229724D02*
Y235630D01*
X454134Y252362D02*
X460039D01*
X457087Y249410D02*
Y255315D01*
X340955Y17717D02*
X343455D01*
X342205Y16466D02*
Y18967D01*
X350955Y17717D02*
X353455D01*
X352205Y16466D02*
Y18967D01*
X360955Y17717D02*
X363455D01*
X362205Y16466D02*
Y18967D01*
X370955Y17717D02*
X373455D01*
X372205Y16466D02*
Y18967D01*
X380955Y17717D02*
X383455D01*
X382205Y16466D02*
Y18967D01*
X390955Y17717D02*
X393455D01*
X392205Y16466D02*
Y18967D01*
X400955Y17717D02*
X403455D01*
X402205Y16466D02*
Y18967D01*
X410955Y17717D02*
X413455D01*
X412205Y16466D02*
Y18967D01*
X340955Y67716D02*
X343455D01*
X342205Y66466D02*
Y68967D01*
X350955Y67716D02*
X353455D01*
X352205Y66466D02*
Y68967D01*
X360955Y67716D02*
X363455D01*
X362205Y66466D02*
Y68967D01*
X370955Y67716D02*
X373455D01*
X372205Y66466D02*
Y68967D01*
X380955Y67716D02*
X383455D01*
X382205Y66466D02*
Y68967D01*
X390955Y67716D02*
X393455D01*
X392205Y66466D02*
Y68967D01*
X400955Y67716D02*
X403455D01*
X402205Y66466D02*
Y68967D01*
X410955Y67716D02*
X413455D01*
X412205Y66466D02*
Y68967D01*
X411978Y178347D02*
X414478D01*
X413228Y177096D02*
Y179596D01*
X401978Y178347D02*
X404478D01*
X403228Y177096D02*
Y179596D01*
X391978Y178347D02*
X394478D01*
X393228Y177096D02*
Y179596D01*
X381978Y178347D02*
X384478D01*
X383228Y177096D02*
Y179596D01*
X371978Y178347D02*
X374478D01*
X373228Y177096D02*
Y179596D01*
X361978Y178347D02*
X364478D01*
X363228Y177096D02*
Y179596D01*
X351978Y178347D02*
X354478D01*
X353228Y177096D02*
Y179596D01*
X341978Y178347D02*
X344478D01*
X343228Y177096D02*
Y179596D01*
X411978Y128347D02*
X414478D01*
X413228Y127096D02*
Y129596D01*
X401978Y128347D02*
X404478D01*
X403228Y127096D02*
Y129596D01*
X391978Y128347D02*
X394478D01*
X393228Y127096D02*
Y129596D01*
X381978Y128347D02*
X384478D01*
X383228Y127096D02*
Y129596D01*
X371978Y128347D02*
X374478D01*
X373228Y127096D02*
Y129596D01*
X361978Y128347D02*
X364478D01*
X363228Y127096D02*
Y129596D01*
X351978Y128347D02*
X354478D01*
X353228Y127096D02*
Y129596D01*
X341978Y128347D02*
X344478D01*
X343228Y127096D02*
Y129596D01*
X22244Y73228D02*
X28150D01*
X25197Y70276D02*
Y76181D01*
X41929Y73228D02*
X47835D01*
X44882Y70276D02*
Y76181D01*
X61614Y73228D02*
X67520D01*
X64567Y70276D02*
Y76181D01*
X81299Y73228D02*
X87205D01*
X84252Y70276D02*
Y76181D01*
X100984Y73228D02*
X106890D01*
X103937Y70276D02*
Y76181D01*
X120669Y73228D02*
X126575D01*
X123622Y70276D02*
Y76181D01*
X140354Y73228D02*
X146260D01*
X143307Y70276D02*
Y76181D01*
X160039Y73228D02*
X165945D01*
X162992Y70276D02*
Y76181D01*
X179724Y73228D02*
X185630D01*
X182677Y70276D02*
Y76181D01*
X199409Y73228D02*
X205315D01*
X202362Y70276D02*
Y76181D01*
X219094Y73228D02*
X225000D01*
X222047Y70276D02*
Y76181D01*
X238779Y73228D02*
X244685D01*
X241732Y70276D02*
Y76181D01*
X293381Y162992D02*
X296381D01*
X294881Y161492D02*
Y164492D01*
X293381Y172992D02*
X296381D01*
X294881Y171492D02*
Y174492D01*
X293381Y182992D02*
X296381D01*
X294881Y181492D02*
Y184492D01*
X315428Y162992D02*
X318428D01*
X316928Y161492D02*
Y164492D01*
X315428Y172992D02*
X318428D01*
X316928Y171492D02*
Y174492D01*
X315428Y182992D02*
X318428D01*
X316928Y181492D02*
Y184492D01*
X315429Y52835D02*
X318429D01*
X316929Y51335D02*
Y54335D01*
X315429Y62835D02*
X318429D01*
X316929Y61335D02*
Y64335D01*
X315429Y72835D02*
X318429D01*
X316929Y71335D02*
Y74335D01*
X293776Y52835D02*
X296776D01*
X295276Y51335D02*
Y54335D01*
X293776Y62835D02*
X296776D01*
X295276Y61335D02*
Y64335D01*
X293776Y72835D02*
X296776D01*
X295276Y71335D02*
Y74335D01*
X291831Y219547D02*
X295847D01*
X293839Y217539D02*
Y221555D01*
X281831Y219547D02*
X285846D01*
X283839Y217539D02*
Y221555D01*
X271831Y219547D02*
X275847D01*
X273839Y217539D02*
Y221555D01*
X261831Y219547D02*
X265846D01*
X263839Y217539D02*
Y221555D01*
X251831Y219547D02*
X255847D01*
X253839Y217539D02*
Y221555D01*
X241831Y219547D02*
X245847D01*
X243839Y217539D02*
Y221555D01*
X231831Y219547D02*
X235846D01*
X233839Y217539D02*
Y221555D01*
X221831Y219547D02*
X225847D01*
X223839Y217539D02*
Y221555D01*
X211831Y219547D02*
X215846D01*
X213839Y217539D02*
Y221555D01*
X201831Y219547D02*
X205847D01*
X203839Y217539D02*
Y221555D01*
X191831Y219547D02*
X195846D01*
X193839Y217539D02*
Y221555D01*
X181831Y219547D02*
X185846D01*
X183839Y217539D02*
Y221555D01*
X171831Y219547D02*
X175847D01*
X173839Y217539D02*
Y221555D01*
X161831Y219547D02*
X165847D01*
X163839Y217539D02*
Y221555D01*
X151831Y219547D02*
X155847D01*
X153839Y217539D02*
Y221555D01*
X141831Y219547D02*
X145846D01*
X143839Y217539D02*
Y221555D01*
X131831Y219547D02*
X135846D01*
X133839Y217539D02*
Y221555D01*
X121831Y219547D02*
X125847D01*
X123839Y217539D02*
Y221555D01*
X111831Y219547D02*
X115847D01*
X113839Y217539D02*
Y221555D01*
X101831Y219547D02*
X105847D01*
X103839Y217539D02*
Y221555D01*
X291831Y209547D02*
X295847D01*
X293839Y207539D02*
Y211555D01*
X281831Y209547D02*
X285846D01*
X283839Y207539D02*
Y211555D01*
X271831Y209547D02*
X275847D01*
X273839Y207539D02*
Y211555D01*
X261831Y209547D02*
X265846D01*
X263839Y207539D02*
Y211555D01*
X251831Y209547D02*
X255847D01*
X253839Y207539D02*
Y211555D01*
X241831Y209547D02*
X245847D01*
X243839Y207539D02*
Y211555D01*
X231831Y209547D02*
X235846D01*
X233839Y207539D02*
Y211555D01*
X221831Y209547D02*
X225847D01*
X223839Y207539D02*
Y211555D01*
X211831Y209547D02*
X215846D01*
X213839Y207539D02*
Y211555D01*
X201831Y209547D02*
X205847D01*
X203839Y207539D02*
Y211555D01*
X191831Y209547D02*
X195846D01*
X193839Y207539D02*
Y211555D01*
X181831Y209547D02*
X185846D01*
X183839Y207539D02*
Y211555D01*
X171831Y209547D02*
X175847D01*
X173839Y207539D02*
Y211555D01*
X161831Y209547D02*
X165847D01*
X163839Y207539D02*
Y211555D01*
X151831Y209547D02*
X155847D01*
X153839Y207539D02*
Y211555D01*
X141831Y209547D02*
X145846D01*
X143839Y207539D02*
Y211555D01*
X131831Y209547D02*
X135846D01*
X133839Y207539D02*
Y211555D01*
X121831Y209547D02*
X125847D01*
X123839Y207539D02*
Y211555D01*
X111831Y209547D02*
X115847D01*
X113839Y207539D02*
Y211555D01*
X101831Y209547D02*
X105847D01*
X103839Y207539D02*
Y211555D01*
X366960Y259042D02*
X369960D01*
X368460Y257542D02*
Y260542D01*
X386645Y259042D02*
X389645D01*
X388145Y257542D02*
Y260542D01*
X307087Y21654D02*
X318898D01*
X312992Y15748D02*
Y27559D01*
X307087Y214567D02*
X318898D01*
X312992Y208661D02*
Y220472D01*
X78740Y214567D02*
X90551D01*
X84646Y208661D02*
Y220472D01*
X78740Y21654D02*
X90551D01*
X84646Y15748D02*
Y27559D01*
X336614Y210630D02*
X338189D01*
X337402Y209842D02*
Y211417D01*
X371260Y108268D02*
X372835D01*
X372047Y107480D02*
Y109055D01*
X378740Y207087D02*
X380315D01*
X379528Y206299D02*
Y207874D01*
X374410Y207087D02*
X375984D01*
X375197Y206299D02*
Y207874D01*
X383071Y207087D02*
X384646D01*
X383858Y206299D02*
Y207874D01*
X357087Y210630D02*
X358661D01*
X357874Y209842D02*
Y211417D01*
X357087Y216535D02*
X358661D01*
X357874Y215748D02*
Y217323D01*
X271654Y175984D02*
X273228D01*
X272441Y175197D02*
Y176772D01*
X209055Y131890D02*
X210630D01*
X209842Y131102D02*
Y132677D01*
X252362Y131890D02*
X253937D01*
X253150Y131102D02*
Y132677D01*
X22441Y182283D02*
X24016D01*
X23228Y181496D02*
Y183071D01*
X122441Y132283D02*
X124016D01*
X123228Y131496D02*
Y133071D01*
X84646Y132283D02*
X86221D01*
X85433Y131496D02*
Y133071D01*
X78740Y132283D02*
X80315D01*
X79528Y131496D02*
Y133071D01*
X257087Y131890D02*
X258661D01*
X257874Y131102D02*
Y132677D01*
X213779Y131890D02*
X215354D01*
X214567Y131102D02*
Y132677D01*
X170473Y132283D02*
X172047D01*
X171260Y131496D02*
Y133071D01*
X164567Y132283D02*
X166142D01*
X165354Y131496D02*
Y133071D01*
X128347Y132283D02*
X129921D01*
X129134Y131496D02*
Y133071D01*
X235039Y166535D02*
X236614D01*
X235827Y165748D02*
Y167323D01*
X105512Y164173D02*
X107087D01*
X106299Y163386D02*
Y164961D01*
X62598Y166535D02*
X64173D01*
X63386Y165748D02*
Y167323D01*
X29528Y155905D02*
X31102D01*
X30315Y155118D02*
Y156693D01*
X231102Y175984D02*
X232677D01*
X231890Y175197D02*
Y176772D01*
X187795Y175984D02*
X189370D01*
X188583Y175197D02*
Y176772D01*
X144882Y175984D02*
X146457D01*
X145669Y175197D02*
Y176772D01*
X101969Y175984D02*
X103543D01*
X102756Y175197D02*
Y176772D01*
X58468Y175984D02*
X60043D01*
X59255Y175197D02*
Y176772D01*
X45276Y137795D02*
X46850D01*
X46063Y137008D02*
Y138583D01*
M02*
