G04*
G04 #@! TF.GenerationSoftware,Altium Limited,Altium Designer,24.0.1 (36)*
G04*
G04 Layer_Color=65535*
%FSLAX25Y25*%
%MOIN*%
G70*
G04*
G04 #@! TF.SameCoordinates,547C949A-E5A6-49C9-BC53-363AC5528938*
G04*
G04*
G04 #@! TF.FilePolarity,Positive*
G04*
G01*
G75*
%ADD10C,0.03000*%
%ADD11C,0.01000*%
D10*
X7524Y22898D02*
X6774Y23331D01*
Y22465D01*
X7524Y22898D01*
D11*
X15524Y75898D02*
X86524D01*
Y21398D02*
Y75898D01*
X15524Y21398D02*
X86524D01*
X15524D02*
Y75898D01*
X29188Y93352D02*
X28188Y94352D01*
X26189D01*
X25190Y93352D01*
Y92352D01*
X26189Y91353D01*
X28188D01*
X29188Y90353D01*
Y89353D01*
X28188Y88354D01*
X26189D01*
X25190Y89353D01*
X31188Y94352D02*
X35186Y88354D01*
Y94352D02*
X31188Y88354D01*
X37186Y94352D02*
Y88354D01*
X41184D01*
X43184D02*
Y94352D01*
X46183D01*
X47182Y93352D01*
Y91353D01*
X46183Y90353D01*
X43184D01*
X49182Y91353D02*
X53180D01*
X58179Y88354D02*
Y94352D01*
X55180Y91353D01*
X59179D01*
X65177Y94352D02*
X61178D01*
Y91353D01*
X63177Y92352D01*
X64177D01*
X65177Y91353D01*
Y89353D01*
X64177Y88354D01*
X62177D01*
X61178Y89353D01*
X67176Y93352D02*
X68176Y94352D01*
X70175D01*
X71175Y93352D01*
Y89353D01*
X70175Y88354D01*
X68176D01*
X67176Y89353D01*
Y93352D01*
X73174Y91353D02*
X77173D01*
X75173Y93352D02*
Y89353D01*
X43184Y84754D02*
Y78756D01*
X47182D01*
X49182D02*
Y84754D01*
X52181D01*
X53180Y83754D01*
Y81755D01*
X52181Y80755D01*
X49182D01*
X59179Y84754D02*
X55180D01*
Y81755D01*
X57179D01*
X55180D01*
Y78756D01*
X27575Y12888D02*
X28574Y13888D01*
X30574D01*
X31574Y12888D01*
Y8889D01*
X30574Y7890D01*
X28574D01*
X27575Y8889D01*
Y12888D01*
X33573Y10889D02*
X37572D01*
X42570Y7890D02*
Y13888D01*
X39571Y10889D01*
X43570D01*
X49568Y13888D02*
X45569D01*
Y10889D01*
X47568Y11889D01*
X48568D01*
X49568Y10889D01*
Y8889D01*
X48568Y7890D01*
X46569D01*
X45569Y8889D01*
X51567Y12888D02*
X52567Y13888D01*
X54566D01*
X55566Y12888D01*
Y8889D01*
X54566Y7890D01*
X52567D01*
X51567Y8889D01*
Y12888D01*
X57565Y7890D02*
Y13888D01*
X59564Y11889D01*
X61564Y13888D01*
Y7890D01*
X63563Y13888D02*
Y7890D01*
Y10889D01*
X67562D01*
Y13888D01*
Y7890D01*
X69561Y11889D02*
X73560D01*
X69561Y7890D01*
X73560D01*
M02*
