G04*
G04 #@! TF.GenerationSoftware,Altium Limited,Altium Designer,24.0.1 (36)*
G04*
G04 Layer_Physical_Order=1*
G04 Layer_Color=255*
%FSLAX25Y25*%
%MOIN*%
G70*
G04*
G04 #@! TF.SameCoordinates,547C949A-E5A6-49C9-BC53-363AC5528938*
G04*
G04*
G04 #@! TF.FilePolarity,Positive*
G04*
G01*
G75*
%ADD12R,0.05500X0.06000*%
%ADD16C,0.03110*%
%ADD17C,0.03337*%
%ADD18C,0.13780*%
%ADD19C,0.02362*%
G36*
X98425Y53016D02*
X98425Y53016D01*
X94488D01*
X94446Y53007D01*
X88052D01*
X84724Y56336D01*
Y63898D01*
X85774D01*
Y73898D01*
X76274D01*
Y63898D01*
X77324D01*
Y54803D01*
X77450Y53846D01*
X77819Y52953D01*
X78407Y52187D01*
X83903Y46691D01*
X84670Y46103D01*
X85562Y45733D01*
X86520Y45607D01*
X94446D01*
X94488Y45599D01*
X98425D01*
X98425Y45599D01*
Y0D01*
X0D01*
Y45599D01*
X3937D01*
X3980Y45607D01*
X12314D01*
X17438Y40483D01*
Y32398D01*
X16274D01*
Y22398D01*
X25774D01*
Y32398D01*
X24609D01*
Y41969D01*
X24487Y42897D01*
X24129Y43761D01*
X23559Y44504D01*
X16335Y51728D01*
X15592Y52298D01*
X14727Y52657D01*
X13799Y52779D01*
X3980D01*
X3937Y52787D01*
X0D01*
Y98425D01*
X98425D01*
Y53016D01*
D02*
G37*
G36*
X98425Y47638D02*
X94488D01*
Y50976D01*
X98425D01*
Y47638D01*
D02*
G37*
G36*
X3937D02*
X-0D01*
Y50748D01*
X3937D01*
Y47638D01*
D02*
G37*
D12*
X21024Y27398D02*
D03*
X41024D02*
D03*
X61024D02*
D03*
X81024D02*
D03*
X21024Y68898D02*
D03*
X41024D02*
D03*
X61024D02*
D03*
X81024D02*
D03*
D16*
X3937Y49193D02*
X13799D01*
X21024Y41969D01*
Y27398D02*
Y41969D01*
D17*
X86520Y49307D02*
X94488D01*
X81024Y54803D02*
X86520Y49307D01*
X81024Y54803D02*
Y68898D01*
D18*
X88583Y9843D02*
D03*
Y88583D02*
D03*
X9843D02*
D03*
Y9843D02*
D03*
D19*
X76772Y50197D02*
D03*
X73819Y62008D02*
D03*
X64961Y74803D02*
D03*
X57087D02*
D03*
X45276D02*
D03*
X36417D02*
D03*
X24606D02*
D03*
X16732D02*
D03*
X31496Y52165D02*
D03*
X69882D02*
D03*
Y45276D02*
D03*
X61024D02*
D03*
Y52165D02*
D03*
X51181Y45276D02*
D03*
Y52165D02*
D03*
X41339D02*
D03*
Y45276D02*
D03*
X86614Y21654D02*
D03*
X77756D02*
D03*
X65945D02*
D03*
X57087D02*
D03*
X46260D02*
D03*
X36417D02*
D03*
X88583Y56102D02*
D03*
X94488D02*
D03*
X88583Y64961D02*
D03*
Y72835D02*
D03*
X73819D02*
D03*
Y66929D02*
D03*
X74803Y56102D02*
D03*
X80709Y46260D02*
D03*
X85630Y43307D02*
D03*
X94488D02*
D03*
X25591Y19685D02*
D03*
X16732D02*
D03*
X13780Y35433D02*
D03*
X2953Y43307D02*
D03*
X8858D02*
D03*
X12795Y40354D02*
D03*
X13780Y30512D02*
D03*
Y24606D02*
D03*
X28543D02*
D03*
Y30512D02*
D03*
X27559Y37402D02*
D03*
Y43307D02*
D03*
X23622Y48228D02*
D03*
X19685Y52165D02*
D03*
X15748Y55118D02*
D03*
X8858D02*
D03*
X2953D02*
D03*
M02*
