M48
;Layer_Color=9474304
;FILE_FORMAT=2:4
INCH,TZ
;TYPE=PLATED
T01F00S00C0.0157
T02F00S00C0.1378
%
T01
X1673Y1969
X1378Y2461
Y3051
Y3543
X1280Y4035
X886Y4331
X295
Y5512
X886
X1575
X1969Y5217
X2362Y4823
X2756Y4331
Y3740
X2854Y3051
Y2461
X2559Y1969
X3642Y2165
X4626
X5118Y4528
Y5217
X4134
Y4528
X3150Y5217
X6102
Y4528
X6988
Y5217
X7677Y5020
X7480Y5610
X8858
X9449
Y4331
X8563
X8071Y4626
X7776Y2165
X8661
X6594
X5709
Y7480
X6496
X7382Y7283
Y6693
Y6201
X8858Y6496
Y7283
X4528Y7480
X3642
X2461
X1673
T02
X984Y984
X8858
Y8858
X984
M30
