G04*
G04 #@! TF.GenerationSoftware,Altium Limited,Altium Designer,24.0.1 (36)*
G04*
G04 Layer_Color=32896*
%FSLAX25Y25*%
%MOIN*%
G70*
G04*
G04 #@! TF.SameCoordinates,547C949A-E5A6-49C9-BC53-363AC5528938*
G04*
G04*
G04 #@! TF.FilePolarity,Positive*
G04*
G01*
G75*
%ADD11C,0.01000*%
D11*
X82071Y65406D02*
Y71404D01*
X79072D01*
X78072Y70404D01*
Y68405D01*
X79072Y67405D01*
X82071D01*
X80072D02*
X78072Y65406D01*
X75073Y69405D02*
X73074D01*
X72074Y68405D01*
Y65406D01*
X75073D01*
X76073Y66405D01*
X75073Y67405D01*
X72074D01*
X66076Y71404D02*
Y65406D01*
X69075D01*
X70075Y66405D01*
Y68405D01*
X69075Y69405D01*
X66076D01*
X63077Y65406D02*
X61078D01*
X60078Y66405D01*
Y68405D01*
X61078Y69405D01*
X63077D01*
X64077Y68405D01*
Y66405D01*
X63077Y65406D01*
X58079D02*
X56079D01*
X57079D01*
Y71404D01*
X58079D01*
X52081Y65406D02*
X50081D01*
X49082Y66405D01*
Y68405D01*
X50081Y69405D01*
X52081D01*
X53080Y68405D01*
Y66405D01*
X52081Y65406D01*
X47082Y69405D02*
X45083Y65406D01*
X43084Y69405D01*
X41084Y65406D02*
X39085D01*
X40084D01*
Y69405D01*
X41084D01*
X32087D02*
X35086D01*
X36086Y68405D01*
Y66405D01*
X35086Y65406D01*
X32087D01*
X82071Y55808D02*
Y61806D01*
X80072Y59807D01*
X78072Y61806D01*
Y55808D01*
X75073Y59807D02*
X73074D01*
X72074Y58807D01*
Y55808D01*
X75073D01*
X76073Y56808D01*
X75073Y57807D01*
X72074D01*
X70075Y59807D02*
Y55808D01*
Y57807D01*
X69075Y58807D01*
X68075Y59807D01*
X67076D01*
X64077Y55808D02*
Y61806D01*
Y57807D02*
X61078Y59807D01*
X64077Y57807D02*
X61078Y55808D01*
X57079D02*
X55080D01*
X54080Y56808D01*
Y58807D01*
X55080Y59807D01*
X57079D01*
X58079Y58807D01*
Y56808D01*
X57079Y55808D01*
X52081Y59807D02*
X50081Y55808D01*
X48082Y59807D01*
X46082Y55808D02*
X44083D01*
X45083D01*
Y59807D01*
X46082D01*
X37085D02*
X40084D01*
X41084Y58807D01*
Y56808D01*
X40084Y55808D01*
X37085D01*
X78072Y41611D02*
X79072Y42611D01*
X81071D01*
X82071Y41611D01*
Y37613D01*
X81071Y36613D01*
X79072D01*
X78072Y37613D01*
X75073Y40611D02*
X73074D01*
X72074Y39612D01*
Y36613D01*
X75073D01*
X76073Y37613D01*
X75073Y38612D01*
X72074D01*
X70075Y36613D02*
X68075D01*
X69075D01*
Y42611D01*
X70075D01*
X65076Y36613D02*
X63077D01*
X64077D01*
Y42611D01*
X65076D01*
X60078Y36613D02*
X58079D01*
X59078D01*
Y40611D01*
X60078D01*
X55080Y36613D02*
X52081D01*
X51081Y37613D01*
X52081Y38612D01*
X54080D01*
X55080Y39612D01*
X54080Y40611D01*
X51081D01*
X48082Y41611D02*
Y40611D01*
X49082D01*
X47082D01*
X48082D01*
Y37613D01*
X47082Y36613D01*
X43084D02*
X41084D01*
X40084Y37613D01*
Y39612D01*
X41084Y40611D01*
X43084D01*
X44083Y39612D01*
Y37613D01*
X43084Y36613D01*
X82071Y33013D02*
Y29014D01*
X80072Y27015D01*
X78072Y29014D01*
Y33013D01*
X76073Y27015D02*
X74073D01*
X75073D01*
Y31014D01*
X76073D01*
X71074Y27015D02*
X68075D01*
X67076Y28015D01*
X68075Y29014D01*
X70075D01*
X71074Y30014D01*
X70075Y31014D01*
X67076D01*
X65076Y27015D02*
Y31014D01*
X62077D01*
X61078Y30014D01*
Y27015D01*
X59078Y25016D02*
X58079D01*
X57079Y26015D01*
Y31014D01*
X52081D02*
X50081D01*
X49082Y30014D01*
Y27015D01*
X52081D01*
X53080Y28015D01*
X52081Y29014D01*
X49082D01*
X47082Y27015D02*
Y31014D01*
X44083D01*
X43084Y30014D01*
Y27015D01*
X31087D02*
X35086D01*
X31087Y31014D01*
Y32013D01*
X32087Y33013D01*
X34086D01*
X35086Y32013D01*
X29088D02*
X28088Y33013D01*
X26089D01*
X25089Y32013D01*
Y28015D01*
X26089Y27015D01*
X28088D01*
X29088Y28015D01*
Y32013D01*
X19091Y27015D02*
X23090D01*
X19091Y31014D01*
Y32013D01*
X20091Y33013D01*
X22090D01*
X23090Y32013D01*
X14093Y27015D02*
Y33013D01*
X17092Y30014D01*
X13093D01*
M02*
