G04*
G04 #@! TF.GenerationSoftware,Altium Limited,Altium Designer,24.0.1 (36)*
G04*
G04 Layer_Color=16711935*
%FSLAX25Y25*%
%MOIN*%
G70*
G04*
G04 #@! TF.SameCoordinates,547C949A-E5A6-49C9-BC53-363AC5528938*
G04*
G04*
G04 #@! TF.FilePolarity,Negative*
G04*
G01*
G75*
%ADD14C,0.14580*%
%ADD15C,0.03162*%
D14*
X88583Y9843D02*
D03*
Y88583D02*
D03*
X9843D02*
D03*
Y9843D02*
D03*
D15*
X76772Y50197D02*
D03*
X73819Y62008D02*
D03*
X64961Y74803D02*
D03*
X57087D02*
D03*
X45276D02*
D03*
X36417D02*
D03*
X24606D02*
D03*
X16732D02*
D03*
X31496Y52165D02*
D03*
X69882D02*
D03*
Y45276D02*
D03*
X61024D02*
D03*
Y52165D02*
D03*
X51181Y45276D02*
D03*
Y52165D02*
D03*
X41339D02*
D03*
Y45276D02*
D03*
X86614Y21654D02*
D03*
X77756D02*
D03*
X65945D02*
D03*
X57087D02*
D03*
X46260D02*
D03*
X36417D02*
D03*
X88583Y56102D02*
D03*
X94488D02*
D03*
X88583Y64961D02*
D03*
Y72835D02*
D03*
X73819D02*
D03*
Y66929D02*
D03*
X74803Y56102D02*
D03*
X80709Y46260D02*
D03*
X85630Y43307D02*
D03*
X94488D02*
D03*
X25591Y19685D02*
D03*
X16732D02*
D03*
X13780Y35433D02*
D03*
X2953Y43307D02*
D03*
X8858D02*
D03*
X12795Y40354D02*
D03*
X13780Y30512D02*
D03*
Y24606D02*
D03*
X28543D02*
D03*
Y30512D02*
D03*
X27559Y37402D02*
D03*
Y43307D02*
D03*
X23622Y48228D02*
D03*
X19685Y52165D02*
D03*
X15748Y55118D02*
D03*
X8858D02*
D03*
X2953D02*
D03*
M02*
