G04*
G04 #@! TF.GenerationSoftware,Altium Limited,Altium Designer,24.0.1 (36)*
G04*
G04 Layer_Physical_Order=2*
G04 Layer_Color=37055*
%FSLAX25Y25*%
%MOIN*%
G70*
G04*
G04 #@! TF.SameCoordinates,EAEA65AB-E80B-4046-BB69-B77F90F57262*
G04*
G04*
G04 #@! TF.FilePolarity,Positive*
G04*
G01*
G75*
%ADD38C,0.06000*%
%ADD39R,0.06000X0.06000*%
%ADD40O,0.19685X0.11811*%
%ADD41R,0.19685X0.11811*%
%ADD42R,0.05000X0.10000*%
%ADD43O,0.05000X0.10000*%
%ADD44R,0.11811X0.19685*%
%ADD45O,0.11811X0.19685*%
%ADD46R,0.06000X0.06000*%
%ADD47C,0.06181*%
%ADD48R,0.06181X0.06181*%
%ADD49C,0.23622*%
%ADD50C,0.02362*%
G36*
X496063Y0D02*
X0D01*
Y277559D01*
X496063D01*
Y0D01*
D02*
G37*
%LPC*%
G36*
X388672Y263042D02*
X387618D01*
X386601Y262769D01*
X385689Y262243D01*
X384944Y261498D01*
X384418Y260586D01*
X384145Y259568D01*
Y258515D01*
X384418Y257498D01*
X384944Y256586D01*
X385689Y255841D01*
X386601Y255314D01*
X387618Y255042D01*
X388672D01*
X389689Y255314D01*
X390601Y255841D01*
X391346Y256586D01*
X391872Y257498D01*
X392145Y258515D01*
Y259568D01*
X391872Y260586D01*
X391346Y261498D01*
X390601Y262243D01*
X389689Y262769D01*
X388672Y263042D01*
D02*
G37*
G36*
X372460D02*
X364460D01*
Y255042D01*
X372460D01*
Y263042D01*
D02*
G37*
G36*
X461024Y259301D02*
X453150D01*
X451796Y259168D01*
X450494Y258773D01*
X449295Y258132D01*
X448243Y257269D01*
X447380Y256217D01*
X446739Y255018D01*
X446344Y253716D01*
X446211Y252362D01*
X446344Y251009D01*
X446739Y249707D01*
X447380Y248507D01*
X448243Y247456D01*
X449295Y246593D01*
X450494Y245952D01*
X451796Y245557D01*
X453150Y245423D01*
X461024D01*
X462377Y245557D01*
X463679Y245952D01*
X464879Y246593D01*
X465930Y247456D01*
X466793Y248507D01*
X467434Y249707D01*
X467829Y251009D01*
X467963Y252362D01*
X467829Y253716D01*
X467434Y255018D01*
X466793Y256217D01*
X465930Y257269D01*
X464879Y258132D01*
X463679Y258773D01*
X462377Y259168D01*
X461024Y259301D01*
D02*
G37*
G36*
Y239616D02*
X453150D01*
X451796Y239483D01*
X450494Y239088D01*
X449295Y238447D01*
X448243Y237584D01*
X447380Y236532D01*
X446739Y235333D01*
X446344Y234031D01*
X446211Y232677D01*
X446344Y231324D01*
X446739Y230022D01*
X447380Y228822D01*
X448243Y227771D01*
X449295Y226908D01*
X450494Y226266D01*
X451796Y225872D01*
X453150Y225738D01*
X461024D01*
X462377Y225872D01*
X463679Y226266D01*
X464879Y226908D01*
X465930Y227771D01*
X466793Y228822D01*
X467434Y230022D01*
X467829Y231324D01*
X467963Y232677D01*
X467829Y234031D01*
X467434Y235333D01*
X466793Y236532D01*
X465930Y237584D01*
X464879Y238447D01*
X463679Y239088D01*
X462377Y239483D01*
X461024Y239616D01*
D02*
G37*
G36*
X294377Y223638D02*
X293300D01*
X292260Y223359D01*
X291327Y222820D01*
X290565Y222059D01*
X290027Y221126D01*
X289748Y220086D01*
Y219009D01*
X290027Y217968D01*
X290565Y217036D01*
X291327Y216274D01*
X292260Y215736D01*
X293300Y215457D01*
X294377D01*
X295417Y215736D01*
X296350Y216274D01*
X297112Y217036D01*
X297650Y217968D01*
X297929Y219009D01*
Y220086D01*
X297650Y221126D01*
X297112Y222059D01*
X296350Y222820D01*
X295417Y223359D01*
X294377Y223638D01*
D02*
G37*
G36*
X284377D02*
X283300D01*
X282260Y223359D01*
X281327Y222820D01*
X280565Y222059D01*
X280027Y221126D01*
X279748Y220086D01*
Y219009D01*
X280027Y217968D01*
X280565Y217036D01*
X281327Y216274D01*
X282260Y215736D01*
X283300Y215457D01*
X284377D01*
X285418Y215736D01*
X286350Y216274D01*
X287112Y217036D01*
X287650Y217968D01*
X287929Y219009D01*
Y220086D01*
X287650Y221126D01*
X287112Y222059D01*
X286350Y222820D01*
X285418Y223359D01*
X284377Y223638D01*
D02*
G37*
G36*
X274377D02*
X273300D01*
X272260Y223359D01*
X271327Y222820D01*
X270565Y222059D01*
X270027Y221126D01*
X269748Y220086D01*
Y219009D01*
X270027Y217968D01*
X270565Y217036D01*
X271327Y216274D01*
X272260Y215736D01*
X273300Y215457D01*
X274377D01*
X275417Y215736D01*
X276350Y216274D01*
X277112Y217036D01*
X277650Y217968D01*
X277929Y219009D01*
Y220086D01*
X277650Y221126D01*
X277112Y222059D01*
X276350Y222820D01*
X275417Y223359D01*
X274377Y223638D01*
D02*
G37*
G36*
X264377D02*
X263300D01*
X262260Y223359D01*
X261327Y222820D01*
X260565Y222059D01*
X260027Y221126D01*
X259748Y220086D01*
Y219009D01*
X260027Y217968D01*
X260565Y217036D01*
X261327Y216274D01*
X262260Y215736D01*
X263300Y215457D01*
X264377D01*
X265418Y215736D01*
X266350Y216274D01*
X267112Y217036D01*
X267650Y217968D01*
X267929Y219009D01*
Y220086D01*
X267650Y221126D01*
X267112Y222059D01*
X266350Y222820D01*
X265418Y223359D01*
X264377Y223638D01*
D02*
G37*
G36*
X254377D02*
X253300D01*
X252260Y223359D01*
X251327Y222820D01*
X250565Y222059D01*
X250027Y221126D01*
X249748Y220086D01*
Y219009D01*
X250027Y217968D01*
X250565Y217036D01*
X251327Y216274D01*
X252260Y215736D01*
X253300Y215457D01*
X254377D01*
X255417Y215736D01*
X256350Y216274D01*
X257112Y217036D01*
X257650Y217968D01*
X257929Y219009D01*
Y220086D01*
X257650Y221126D01*
X257112Y222059D01*
X256350Y222820D01*
X255417Y223359D01*
X254377Y223638D01*
D02*
G37*
G36*
X244377D02*
X243300D01*
X242260Y223359D01*
X241327Y222820D01*
X240565Y222059D01*
X240027Y221126D01*
X239748Y220086D01*
Y219009D01*
X240027Y217968D01*
X240565Y217036D01*
X241327Y216274D01*
X242260Y215736D01*
X243300Y215457D01*
X244377D01*
X245417Y215736D01*
X246350Y216274D01*
X247112Y217036D01*
X247650Y217968D01*
X247929Y219009D01*
Y220086D01*
X247650Y221126D01*
X247112Y222059D01*
X246350Y222820D01*
X245417Y223359D01*
X244377Y223638D01*
D02*
G37*
G36*
X234377D02*
X233300D01*
X232260Y223359D01*
X231327Y222820D01*
X230565Y222059D01*
X230027Y221126D01*
X229748Y220086D01*
Y219009D01*
X230027Y217968D01*
X230565Y217036D01*
X231327Y216274D01*
X232260Y215736D01*
X233300Y215457D01*
X234377D01*
X235418Y215736D01*
X236350Y216274D01*
X237112Y217036D01*
X237650Y217968D01*
X237929Y219009D01*
Y220086D01*
X237650Y221126D01*
X237112Y222059D01*
X236350Y222820D01*
X235418Y223359D01*
X234377Y223638D01*
D02*
G37*
G36*
X224377D02*
X223300D01*
X222260Y223359D01*
X221327Y222820D01*
X220565Y222059D01*
X220027Y221126D01*
X219748Y220086D01*
Y219009D01*
X220027Y217968D01*
X220565Y217036D01*
X221327Y216274D01*
X222260Y215736D01*
X223300Y215457D01*
X224377D01*
X225417Y215736D01*
X226350Y216274D01*
X227112Y217036D01*
X227650Y217968D01*
X227929Y219009D01*
Y220086D01*
X227650Y221126D01*
X227112Y222059D01*
X226350Y222820D01*
X225417Y223359D01*
X224377Y223638D01*
D02*
G37*
G36*
X214377D02*
X213300D01*
X212260Y223359D01*
X211327Y222820D01*
X210565Y222059D01*
X210027Y221126D01*
X209748Y220086D01*
Y219009D01*
X210027Y217968D01*
X210565Y217036D01*
X211327Y216274D01*
X212260Y215736D01*
X213300Y215457D01*
X214377D01*
X215418Y215736D01*
X216350Y216274D01*
X217112Y217036D01*
X217650Y217968D01*
X217929Y219009D01*
Y220086D01*
X217650Y221126D01*
X217112Y222059D01*
X216350Y222820D01*
X215418Y223359D01*
X214377Y223638D01*
D02*
G37*
G36*
X204377D02*
X203300D01*
X202260Y223359D01*
X201327Y222820D01*
X200565Y222059D01*
X200027Y221126D01*
X199748Y220086D01*
Y219009D01*
X200027Y217968D01*
X200565Y217036D01*
X201327Y216274D01*
X202260Y215736D01*
X203300Y215457D01*
X204377D01*
X205417Y215736D01*
X206350Y216274D01*
X207112Y217036D01*
X207650Y217968D01*
X207929Y219009D01*
Y220086D01*
X207650Y221126D01*
X207112Y222059D01*
X206350Y222820D01*
X205417Y223359D01*
X204377Y223638D01*
D02*
G37*
G36*
X194377D02*
X193300D01*
X192260Y223359D01*
X191327Y222820D01*
X190565Y222059D01*
X190027Y221126D01*
X189748Y220086D01*
Y219009D01*
X190027Y217968D01*
X190565Y217036D01*
X191327Y216274D01*
X192260Y215736D01*
X193300Y215457D01*
X194377D01*
X195417Y215736D01*
X196350Y216274D01*
X197112Y217036D01*
X197650Y217968D01*
X197929Y219009D01*
Y220086D01*
X197650Y221126D01*
X197112Y222059D01*
X196350Y222820D01*
X195417Y223359D01*
X194377Y223638D01*
D02*
G37*
G36*
X184377D02*
X183300D01*
X182260Y223359D01*
X181327Y222820D01*
X180565Y222059D01*
X180027Y221126D01*
X179748Y220086D01*
Y219009D01*
X180027Y217968D01*
X180565Y217036D01*
X181327Y216274D01*
X182260Y215736D01*
X183300Y215457D01*
X184377D01*
X185417Y215736D01*
X186350Y216274D01*
X187112Y217036D01*
X187650Y217968D01*
X187929Y219009D01*
Y220086D01*
X187650Y221126D01*
X187112Y222059D01*
X186350Y222820D01*
X185417Y223359D01*
X184377Y223638D01*
D02*
G37*
G36*
X174377D02*
X173300D01*
X172260Y223359D01*
X171327Y222820D01*
X170565Y222059D01*
X170027Y221126D01*
X169748Y220086D01*
Y219009D01*
X170027Y217968D01*
X170565Y217036D01*
X171327Y216274D01*
X172260Y215736D01*
X173300Y215457D01*
X174377D01*
X175417Y215736D01*
X176350Y216274D01*
X177112Y217036D01*
X177650Y217968D01*
X177929Y219009D01*
Y220086D01*
X177650Y221126D01*
X177112Y222059D01*
X176350Y222820D01*
X175417Y223359D01*
X174377Y223638D01*
D02*
G37*
G36*
X164377D02*
X163300D01*
X162260Y223359D01*
X161327Y222820D01*
X160565Y222059D01*
X160027Y221126D01*
X159748Y220086D01*
Y219009D01*
X160027Y217968D01*
X160565Y217036D01*
X161327Y216274D01*
X162260Y215736D01*
X163300Y215457D01*
X164377D01*
X165418Y215736D01*
X166350Y216274D01*
X167112Y217036D01*
X167650Y217968D01*
X167929Y219009D01*
Y220086D01*
X167650Y221126D01*
X167112Y222059D01*
X166350Y222820D01*
X165418Y223359D01*
X164377Y223638D01*
D02*
G37*
G36*
X154377D02*
X153300D01*
X152260Y223359D01*
X151327Y222820D01*
X150565Y222059D01*
X150027Y221126D01*
X149748Y220086D01*
Y219009D01*
X150027Y217968D01*
X150565Y217036D01*
X151327Y216274D01*
X152260Y215736D01*
X153300Y215457D01*
X154377D01*
X155418Y215736D01*
X156350Y216274D01*
X157112Y217036D01*
X157650Y217968D01*
X157929Y219009D01*
Y220086D01*
X157650Y221126D01*
X157112Y222059D01*
X156350Y222820D01*
X155418Y223359D01*
X154377Y223638D01*
D02*
G37*
G36*
X144377D02*
X143300D01*
X142260Y223359D01*
X141327Y222820D01*
X140565Y222059D01*
X140027Y221126D01*
X139748Y220086D01*
Y219009D01*
X140027Y217968D01*
X140565Y217036D01*
X141327Y216274D01*
X142260Y215736D01*
X143300Y215457D01*
X144377D01*
X145417Y215736D01*
X146350Y216274D01*
X147112Y217036D01*
X147650Y217968D01*
X147929Y219009D01*
Y220086D01*
X147650Y221126D01*
X147112Y222059D01*
X146350Y222820D01*
X145417Y223359D01*
X144377Y223638D01*
D02*
G37*
G36*
X134377D02*
X133300D01*
X132260Y223359D01*
X131327Y222820D01*
X130565Y222059D01*
X130027Y221126D01*
X129748Y220086D01*
Y219009D01*
X130027Y217968D01*
X130565Y217036D01*
X131327Y216274D01*
X132260Y215736D01*
X133300Y215457D01*
X134377D01*
X135417Y215736D01*
X136350Y216274D01*
X137112Y217036D01*
X137650Y217968D01*
X137929Y219009D01*
Y220086D01*
X137650Y221126D01*
X137112Y222059D01*
X136350Y222820D01*
X135417Y223359D01*
X134377Y223638D01*
D02*
G37*
G36*
X124377D02*
X123300D01*
X122260Y223359D01*
X121327Y222820D01*
X120565Y222059D01*
X120027Y221126D01*
X119748Y220086D01*
Y219009D01*
X120027Y217968D01*
X120565Y217036D01*
X121327Y216274D01*
X122260Y215736D01*
X123300Y215457D01*
X124377D01*
X125417Y215736D01*
X126350Y216274D01*
X127112Y217036D01*
X127650Y217968D01*
X127929Y219009D01*
Y220086D01*
X127650Y221126D01*
X127112Y222059D01*
X126350Y222820D01*
X125417Y223359D01*
X124377Y223638D01*
D02*
G37*
G36*
X114377D02*
X113300D01*
X112260Y223359D01*
X111327Y222820D01*
X110565Y222059D01*
X110027Y221126D01*
X109748Y220086D01*
Y219009D01*
X110027Y217968D01*
X110565Y217036D01*
X111327Y216274D01*
X112260Y215736D01*
X113300Y215457D01*
X114377D01*
X115418Y215736D01*
X116350Y216274D01*
X117112Y217036D01*
X117650Y217968D01*
X117929Y219009D01*
Y220086D01*
X117650Y221126D01*
X117112Y222059D01*
X116350Y222820D01*
X115418Y223359D01*
X114377Y223638D01*
D02*
G37*
G36*
X104377D02*
X103300D01*
X102260Y223359D01*
X101327Y222820D01*
X100565Y222059D01*
X100027Y221126D01*
X99748Y220086D01*
Y219009D01*
X100027Y217968D01*
X100565Y217036D01*
X101327Y216274D01*
X102260Y215736D01*
X103300Y215457D01*
X104377D01*
X105418Y215736D01*
X106350Y216274D01*
X107112Y217036D01*
X107650Y217968D01*
X107929Y219009D01*
Y220086D01*
X107650Y221126D01*
X107112Y222059D01*
X106350Y222820D01*
X105418Y223359D01*
X104377Y223638D01*
D02*
G37*
G36*
X358308Y218717D02*
X357440D01*
X356639Y218385D01*
X356025Y217771D01*
X355693Y216969D01*
Y216102D01*
X356025Y215300D01*
X356639Y214686D01*
X357440Y214354D01*
X358308D01*
X359109Y214686D01*
X359723Y215300D01*
X360055Y216102D01*
Y216969D01*
X359723Y217771D01*
X359109Y218385D01*
X358308Y218717D01*
D02*
G37*
G36*
X47771Y212661D02*
X47744D01*
Y209161D01*
X51244D01*
Y209188D01*
X50972Y210205D01*
X50445Y211118D01*
X49700Y211862D01*
X48788Y212389D01*
X47771Y212661D01*
D02*
G37*
G36*
X46744D02*
X46718D01*
X45700Y212389D01*
X44788Y211862D01*
X44043Y211118D01*
X43517Y210205D01*
X43244Y209188D01*
Y209161D01*
X46744D01*
Y212661D01*
D02*
G37*
G36*
X358308Y212811D02*
X357440D01*
X356639Y212479D01*
X356025Y211865D01*
X355693Y211064D01*
Y210196D01*
X356025Y209394D01*
X356639Y208781D01*
X357440Y208449D01*
X358308D01*
X359109Y208781D01*
X359723Y209394D01*
X360055Y210196D01*
Y211064D01*
X359723Y211865D01*
X359109Y212479D01*
X358308Y212811D01*
D02*
G37*
G36*
X337835D02*
X336968D01*
X336166Y212479D01*
X335553Y211865D01*
X335221Y211064D01*
Y210196D01*
X335553Y209394D01*
X336166Y208781D01*
X336968Y208449D01*
X337835D01*
X338637Y208781D01*
X339251Y209394D01*
X339583Y210196D01*
Y211064D01*
X339251Y211865D01*
X338637Y212479D01*
X337835Y212811D01*
D02*
G37*
G36*
X383358Y209240D02*
X382623Y208936D01*
X382009Y208322D01*
X381943Y208162D01*
X381443D01*
X381377Y208322D01*
X380763Y208936D01*
X380028Y209240D01*
Y207087D01*
Y204933D01*
X380763Y205238D01*
X381377Y205851D01*
X381443Y206011D01*
X381943D01*
X382009Y205851D01*
X382623Y205238D01*
X383358Y204933D01*
Y207087D01*
Y209240D01*
D02*
G37*
G36*
X379028D02*
X378292Y208936D01*
X377678Y208322D01*
X377612Y208162D01*
X377112D01*
X377046Y208322D01*
X376432Y208936D01*
X375697Y209240D01*
Y207087D01*
Y204933D01*
X376432Y205238D01*
X377046Y205851D01*
X377112Y206011D01*
X377612D01*
X377678Y205851D01*
X378292Y205238D01*
X379028Y204933D01*
Y207087D01*
Y209240D01*
D02*
G37*
G36*
X384358D02*
Y207587D01*
X386012D01*
X385707Y208322D01*
X385094Y208936D01*
X384358Y209240D01*
D02*
G37*
G36*
X374697D02*
X373961Y208936D01*
X373348Y208322D01*
X373043Y207587D01*
X374697D01*
Y209240D01*
D02*
G37*
G36*
X461024Y219931D02*
X453150D01*
X451796Y219798D01*
X450494Y219403D01*
X449295Y218762D01*
X448243Y217899D01*
X447380Y216847D01*
X446739Y215648D01*
X446344Y214346D01*
X446211Y212992D01*
X446344Y211638D01*
X446739Y210337D01*
X447380Y209137D01*
X448243Y208086D01*
X449295Y207223D01*
X450494Y206581D01*
X451796Y206187D01*
X453150Y206053D01*
X461024D01*
X462377Y206187D01*
X463679Y206581D01*
X464879Y207223D01*
X465930Y208086D01*
X466793Y209137D01*
X467434Y210337D01*
X467829Y211638D01*
X467963Y212992D01*
X467829Y214346D01*
X467434Y215648D01*
X466793Y216847D01*
X465930Y217899D01*
X464879Y218762D01*
X463679Y219403D01*
X462377Y219798D01*
X461024Y219931D01*
D02*
G37*
G36*
X294377Y213638D02*
X293300D01*
X292260Y213359D01*
X291327Y212821D01*
X290565Y212059D01*
X290027Y211126D01*
X289748Y210086D01*
Y209009D01*
X290027Y207968D01*
X290565Y207036D01*
X291327Y206274D01*
X292260Y205735D01*
X293300Y205457D01*
X294377D01*
X295417Y205735D01*
X296350Y206274D01*
X297112Y207036D01*
X297650Y207968D01*
X297929Y209009D01*
Y210086D01*
X297650Y211126D01*
X297112Y212059D01*
X296350Y212821D01*
X295417Y213359D01*
X294377Y213638D01*
D02*
G37*
G36*
X284377D02*
X283300D01*
X282260Y213359D01*
X281327Y212821D01*
X280565Y212059D01*
X280027Y211126D01*
X279748Y210086D01*
Y209009D01*
X280027Y207968D01*
X280565Y207036D01*
X281327Y206274D01*
X282260Y205735D01*
X283300Y205457D01*
X284377D01*
X285418Y205735D01*
X286350Y206274D01*
X287112Y207036D01*
X287650Y207968D01*
X287929Y209009D01*
Y210086D01*
X287650Y211126D01*
X287112Y212059D01*
X286350Y212821D01*
X285418Y213359D01*
X284377Y213638D01*
D02*
G37*
G36*
X274377D02*
X273300D01*
X272260Y213359D01*
X271327Y212821D01*
X270565Y212059D01*
X270027Y211126D01*
X269748Y210086D01*
Y209009D01*
X270027Y207968D01*
X270565Y207036D01*
X271327Y206274D01*
X272260Y205735D01*
X273300Y205457D01*
X274377D01*
X275417Y205735D01*
X276350Y206274D01*
X277112Y207036D01*
X277650Y207968D01*
X277929Y209009D01*
Y210086D01*
X277650Y211126D01*
X277112Y212059D01*
X276350Y212821D01*
X275417Y213359D01*
X274377Y213638D01*
D02*
G37*
G36*
X264377D02*
X263300D01*
X262260Y213359D01*
X261327Y212821D01*
X260565Y212059D01*
X260027Y211126D01*
X259748Y210086D01*
Y209009D01*
X260027Y207968D01*
X260565Y207036D01*
X261327Y206274D01*
X262260Y205735D01*
X263300Y205457D01*
X264377D01*
X265418Y205735D01*
X266350Y206274D01*
X267112Y207036D01*
X267650Y207968D01*
X267929Y209009D01*
Y210086D01*
X267650Y211126D01*
X267112Y212059D01*
X266350Y212821D01*
X265418Y213359D01*
X264377Y213638D01*
D02*
G37*
G36*
X254377D02*
X253300D01*
X252260Y213359D01*
X251327Y212821D01*
X250565Y212059D01*
X250027Y211126D01*
X249748Y210086D01*
Y209009D01*
X250027Y207968D01*
X250565Y207036D01*
X251327Y206274D01*
X252260Y205735D01*
X253300Y205457D01*
X254377D01*
X255417Y205735D01*
X256350Y206274D01*
X257112Y207036D01*
X257650Y207968D01*
X257929Y209009D01*
Y210086D01*
X257650Y211126D01*
X257112Y212059D01*
X256350Y212821D01*
X255417Y213359D01*
X254377Y213638D01*
D02*
G37*
G36*
X244377D02*
X243300D01*
X242260Y213359D01*
X241327Y212821D01*
X240565Y212059D01*
X240027Y211126D01*
X239748Y210086D01*
Y209009D01*
X240027Y207968D01*
X240565Y207036D01*
X241327Y206274D01*
X242260Y205735D01*
X243300Y205457D01*
X244377D01*
X245417Y205735D01*
X246350Y206274D01*
X247112Y207036D01*
X247650Y207968D01*
X247929Y209009D01*
Y210086D01*
X247650Y211126D01*
X247112Y212059D01*
X246350Y212821D01*
X245417Y213359D01*
X244377Y213638D01*
D02*
G37*
G36*
X234377D02*
X233300D01*
X232260Y213359D01*
X231327Y212821D01*
X230565Y212059D01*
X230027Y211126D01*
X229748Y210086D01*
Y209009D01*
X230027Y207968D01*
X230565Y207036D01*
X231327Y206274D01*
X232260Y205735D01*
X233300Y205457D01*
X234377D01*
X235418Y205735D01*
X236350Y206274D01*
X237112Y207036D01*
X237650Y207968D01*
X237929Y209009D01*
Y210086D01*
X237650Y211126D01*
X237112Y212059D01*
X236350Y212821D01*
X235418Y213359D01*
X234377Y213638D01*
D02*
G37*
G36*
X224377D02*
X223300D01*
X222260Y213359D01*
X221327Y212821D01*
X220565Y212059D01*
X220027Y211126D01*
X219748Y210086D01*
Y209009D01*
X220027Y207968D01*
X220565Y207036D01*
X221327Y206274D01*
X222260Y205735D01*
X223300Y205457D01*
X224377D01*
X225417Y205735D01*
X226350Y206274D01*
X227112Y207036D01*
X227650Y207968D01*
X227929Y209009D01*
Y210086D01*
X227650Y211126D01*
X227112Y212059D01*
X226350Y212821D01*
X225417Y213359D01*
X224377Y213638D01*
D02*
G37*
G36*
X214377D02*
X213300D01*
X212260Y213359D01*
X211327Y212821D01*
X210565Y212059D01*
X210027Y211126D01*
X209748Y210086D01*
Y209009D01*
X210027Y207968D01*
X210565Y207036D01*
X211327Y206274D01*
X212260Y205735D01*
X213300Y205457D01*
X214377D01*
X215418Y205735D01*
X216350Y206274D01*
X217112Y207036D01*
X217650Y207968D01*
X217929Y209009D01*
Y210086D01*
X217650Y211126D01*
X217112Y212059D01*
X216350Y212821D01*
X215418Y213359D01*
X214377Y213638D01*
D02*
G37*
G36*
X204377D02*
X203300D01*
X202260Y213359D01*
X201327Y212821D01*
X200565Y212059D01*
X200027Y211126D01*
X199748Y210086D01*
Y209009D01*
X200027Y207968D01*
X200565Y207036D01*
X201327Y206274D01*
X202260Y205735D01*
X203300Y205457D01*
X204377D01*
X205417Y205735D01*
X206350Y206274D01*
X207112Y207036D01*
X207650Y207968D01*
X207929Y209009D01*
Y210086D01*
X207650Y211126D01*
X207112Y212059D01*
X206350Y212821D01*
X205417Y213359D01*
X204377Y213638D01*
D02*
G37*
G36*
X194377D02*
X193300D01*
X192260Y213359D01*
X191327Y212821D01*
X190565Y212059D01*
X190027Y211126D01*
X189748Y210086D01*
Y209009D01*
X190027Y207968D01*
X190565Y207036D01*
X191327Y206274D01*
X192260Y205735D01*
X193300Y205457D01*
X194377D01*
X195417Y205735D01*
X196350Y206274D01*
X197112Y207036D01*
X197650Y207968D01*
X197929Y209009D01*
Y210086D01*
X197650Y211126D01*
X197112Y212059D01*
X196350Y212821D01*
X195417Y213359D01*
X194377Y213638D01*
D02*
G37*
G36*
X184377D02*
X183300D01*
X182260Y213359D01*
X181327Y212821D01*
X180565Y212059D01*
X180027Y211126D01*
X179748Y210086D01*
Y209009D01*
X180027Y207968D01*
X180565Y207036D01*
X181327Y206274D01*
X182260Y205735D01*
X183300Y205457D01*
X184377D01*
X185417Y205735D01*
X186350Y206274D01*
X187112Y207036D01*
X187650Y207968D01*
X187929Y209009D01*
Y210086D01*
X187650Y211126D01*
X187112Y212059D01*
X186350Y212821D01*
X185417Y213359D01*
X184377Y213638D01*
D02*
G37*
G36*
X174377D02*
X173300D01*
X172260Y213359D01*
X171327Y212821D01*
X170565Y212059D01*
X170027Y211126D01*
X169748Y210086D01*
Y209009D01*
X170027Y207968D01*
X170565Y207036D01*
X171327Y206274D01*
X172260Y205735D01*
X173300Y205457D01*
X174377D01*
X175417Y205735D01*
X176350Y206274D01*
X177112Y207036D01*
X177650Y207968D01*
X177929Y209009D01*
Y210086D01*
X177650Y211126D01*
X177112Y212059D01*
X176350Y212821D01*
X175417Y213359D01*
X174377Y213638D01*
D02*
G37*
G36*
X164377D02*
X163300D01*
X162260Y213359D01*
X161327Y212821D01*
X160565Y212059D01*
X160027Y211126D01*
X159748Y210086D01*
Y209009D01*
X160027Y207968D01*
X160565Y207036D01*
X161327Y206274D01*
X162260Y205735D01*
X163300Y205457D01*
X164377D01*
X165418Y205735D01*
X166350Y206274D01*
X167112Y207036D01*
X167650Y207968D01*
X167929Y209009D01*
Y210086D01*
X167650Y211126D01*
X167112Y212059D01*
X166350Y212821D01*
X165418Y213359D01*
X164377Y213638D01*
D02*
G37*
G36*
X154377D02*
X153300D01*
X152260Y213359D01*
X151327Y212821D01*
X150565Y212059D01*
X150027Y211126D01*
X149748Y210086D01*
Y209009D01*
X150027Y207968D01*
X150565Y207036D01*
X151327Y206274D01*
X152260Y205735D01*
X153300Y205457D01*
X154377D01*
X155418Y205735D01*
X156350Y206274D01*
X157112Y207036D01*
X157650Y207968D01*
X157929Y209009D01*
Y210086D01*
X157650Y211126D01*
X157112Y212059D01*
X156350Y212821D01*
X155418Y213359D01*
X154377Y213638D01*
D02*
G37*
G36*
X144377D02*
X143300D01*
X142260Y213359D01*
X141327Y212821D01*
X140565Y212059D01*
X140027Y211126D01*
X139748Y210086D01*
Y209009D01*
X140027Y207968D01*
X140565Y207036D01*
X141327Y206274D01*
X142260Y205735D01*
X143300Y205457D01*
X144377D01*
X145417Y205735D01*
X146350Y206274D01*
X147112Y207036D01*
X147650Y207968D01*
X147929Y209009D01*
Y210086D01*
X147650Y211126D01*
X147112Y212059D01*
X146350Y212821D01*
X145417Y213359D01*
X144377Y213638D01*
D02*
G37*
G36*
X134377D02*
X133300D01*
X132260Y213359D01*
X131327Y212821D01*
X130565Y212059D01*
X130027Y211126D01*
X129748Y210086D01*
Y209009D01*
X130027Y207968D01*
X130565Y207036D01*
X131327Y206274D01*
X132260Y205735D01*
X133300Y205457D01*
X134377D01*
X135417Y205735D01*
X136350Y206274D01*
X137112Y207036D01*
X137650Y207968D01*
X137929Y209009D01*
Y210086D01*
X137650Y211126D01*
X137112Y212059D01*
X136350Y212821D01*
X135417Y213359D01*
X134377Y213638D01*
D02*
G37*
G36*
X124377D02*
X123300D01*
X122260Y213359D01*
X121327Y212821D01*
X120565Y212059D01*
X120027Y211126D01*
X119748Y210086D01*
Y209009D01*
X120027Y207968D01*
X120565Y207036D01*
X121327Y206274D01*
X122260Y205735D01*
X123300Y205457D01*
X124377D01*
X125417Y205735D01*
X126350Y206274D01*
X127112Y207036D01*
X127650Y207968D01*
X127929Y209009D01*
Y210086D01*
X127650Y211126D01*
X127112Y212059D01*
X126350Y212821D01*
X125417Y213359D01*
X124377Y213638D01*
D02*
G37*
G36*
X114377D02*
X113300D01*
X112260Y213359D01*
X111327Y212821D01*
X110565Y212059D01*
X110027Y211126D01*
X109748Y210086D01*
Y209009D01*
X110027Y207968D01*
X110565Y207036D01*
X111327Y206274D01*
X112260Y205735D01*
X113300Y205457D01*
X114377D01*
X115418Y205735D01*
X116350Y206274D01*
X117112Y207036D01*
X117650Y207968D01*
X117929Y209009D01*
Y210086D01*
X117650Y211126D01*
X117112Y212059D01*
X116350Y212821D01*
X115418Y213359D01*
X114377Y213638D01*
D02*
G37*
G36*
X107929D02*
X99748D01*
Y205457D01*
X107929D01*
Y213638D01*
D02*
G37*
G36*
X386012Y206587D02*
X384358D01*
Y204933D01*
X385094Y205238D01*
X385707Y205851D01*
X386012Y206587D01*
D02*
G37*
G36*
X374697D02*
X373043D01*
X373348Y205851D01*
X373961Y205238D01*
X374697Y204933D01*
Y206587D01*
D02*
G37*
G36*
X61244Y212661D02*
X53244D01*
Y204661D01*
X61244D01*
Y212661D01*
D02*
G37*
G36*
X51244Y208161D02*
X47744D01*
Y204661D01*
X47771D01*
X48788Y204934D01*
X49700Y205461D01*
X50445Y206205D01*
X50972Y207118D01*
X51244Y208135D01*
Y208161D01*
D02*
G37*
G36*
X46744D02*
X43244D01*
Y208135D01*
X43517Y207118D01*
X44043Y206205D01*
X44788Y205461D01*
X45700Y204934D01*
X46718Y204661D01*
X46744D01*
Y208161D01*
D02*
G37*
G36*
X314000Y227378D02*
X311984D01*
X309992Y227063D01*
X308074Y226439D01*
X306278Y225524D01*
X304646Y224339D01*
X303220Y222913D01*
X302035Y221281D01*
X301120Y219485D01*
X300497Y217567D01*
X300181Y215575D01*
Y213559D01*
X300497Y211567D01*
X301120Y209649D01*
X302035Y207853D01*
X303220Y206221D01*
X304646Y204795D01*
X306278Y203610D01*
X308074Y202695D01*
X309992Y202071D01*
X311984Y201756D01*
X314000D01*
X315992Y202071D01*
X317910Y202695D01*
X319707Y203610D01*
X321338Y204795D01*
X322764Y206221D01*
X323949Y207853D01*
X324865Y209649D01*
X325488Y211567D01*
X325803Y213559D01*
Y215575D01*
X325488Y217567D01*
X324865Y219485D01*
X323949Y221281D01*
X322764Y222913D01*
X321338Y224339D01*
X319707Y225524D01*
X317910Y226439D01*
X315992Y227063D01*
X314000Y227378D01*
D02*
G37*
G36*
X85654D02*
X83637D01*
X81646Y227063D01*
X79728Y226439D01*
X77931Y225524D01*
X76300Y224339D01*
X74874Y222913D01*
X73689Y221281D01*
X72773Y219485D01*
X72150Y217567D01*
X71835Y215575D01*
Y213559D01*
X72150Y211567D01*
X72773Y209649D01*
X73689Y207853D01*
X74874Y206221D01*
X76300Y204795D01*
X77931Y203610D01*
X79728Y202695D01*
X81646Y202071D01*
X83637Y201756D01*
X85654D01*
X87646Y202071D01*
X89563Y202695D01*
X91360Y203610D01*
X92992Y204795D01*
X94417Y206221D01*
X95603Y207853D01*
X96518Y209649D01*
X97141Y211567D01*
X97457Y213559D01*
Y215575D01*
X97141Y217567D01*
X96518Y219485D01*
X95603Y221281D01*
X94417Y222913D01*
X92992Y224339D01*
X91360Y225524D01*
X89563Y226439D01*
X87646Y227063D01*
X85654Y227378D01*
D02*
G37*
G36*
X461024Y200246D02*
X453150D01*
X451796Y200113D01*
X450494Y199718D01*
X449295Y199077D01*
X448243Y198214D01*
X447380Y197162D01*
X446739Y195963D01*
X446344Y194661D01*
X446211Y193307D01*
X446344Y191953D01*
X446739Y190652D01*
X447380Y189452D01*
X448243Y188400D01*
X449295Y187538D01*
X450494Y186896D01*
X451796Y186502D01*
X453150Y186368D01*
X461024D01*
X462377Y186502D01*
X463679Y186896D01*
X464879Y187538D01*
X465930Y188400D01*
X466793Y189452D01*
X467434Y190652D01*
X467829Y191953D01*
X467963Y193307D01*
X467829Y194661D01*
X467434Y195963D01*
X466793Y197162D01*
X465930Y198214D01*
X464879Y199077D01*
X463679Y199718D01*
X462377Y200113D01*
X461024Y200246D01*
D02*
G37*
G36*
X23728Y184437D02*
Y182783D01*
X25382D01*
X25077Y183519D01*
X24464Y184133D01*
X23728Y184437D01*
D02*
G37*
G36*
X22728D02*
X21993Y184133D01*
X21379Y183519D01*
X21075Y182783D01*
X22728D01*
Y184437D01*
D02*
G37*
G36*
X25382Y181783D02*
X23728D01*
Y180130D01*
X24464Y180434D01*
X25077Y181048D01*
X25382Y181783D01*
D02*
G37*
G36*
X22728D02*
X21075D01*
X21379Y181048D01*
X21993Y180434D01*
X22728Y180130D01*
Y181783D01*
D02*
G37*
G36*
X317455Y186992D02*
X316401D01*
X315384Y186719D01*
X314472Y186193D01*
X313727Y185448D01*
X313201Y184536D01*
X312928Y183518D01*
Y182465D01*
X313201Y181448D01*
X313727Y180536D01*
X314472Y179791D01*
X315384Y179264D01*
X316401Y178992D01*
X317455D01*
X318472Y179264D01*
X319384Y179791D01*
X320129Y180536D01*
X320655Y181448D01*
X320928Y182465D01*
Y183518D01*
X320655Y184536D01*
X320129Y185448D01*
X319384Y186193D01*
X318472Y186719D01*
X317455Y186992D01*
D02*
G37*
G36*
X295407D02*
X294354D01*
X293337Y186719D01*
X292425Y186193D01*
X291680Y185448D01*
X291153Y184536D01*
X290881Y183518D01*
Y182465D01*
X291153Y181448D01*
X291680Y180536D01*
X292425Y179791D01*
X293337Y179264D01*
X294354Y178992D01*
X295407D01*
X296425Y179264D01*
X297337Y179791D01*
X298082Y180536D01*
X298608Y181448D01*
X298881Y182465D01*
Y183518D01*
X298608Y184536D01*
X298082Y185448D01*
X297337Y186193D01*
X296425Y186719D01*
X295407Y186992D01*
D02*
G37*
G36*
X272941Y178138D02*
Y176484D01*
X274595D01*
X274290Y177220D01*
X273676Y177833D01*
X272941Y178138D01*
D02*
G37*
G36*
X271941D02*
X271205Y177833D01*
X270592Y177220D01*
X270287Y176484D01*
X271941D01*
Y178138D01*
D02*
G37*
G36*
X232390D02*
Y176484D01*
X234044D01*
X233739Y177220D01*
X233125Y177833D01*
X232390Y178138D01*
D02*
G37*
G36*
X231390D02*
X230654Y177833D01*
X230041Y177220D01*
X229736Y176484D01*
X231390D01*
Y178138D01*
D02*
G37*
G36*
X189083D02*
Y176484D01*
X190736D01*
X190432Y177220D01*
X189818Y177833D01*
X189083Y178138D01*
D02*
G37*
G36*
X188083D02*
X187347Y177833D01*
X186734Y177220D01*
X186429Y176484D01*
X188083D01*
Y178138D01*
D02*
G37*
G36*
X146169D02*
Y176484D01*
X147823D01*
X147518Y177220D01*
X146905Y177833D01*
X146169Y178138D01*
D02*
G37*
G36*
X145169D02*
X144434Y177833D01*
X143820Y177220D01*
X143516Y176484D01*
X145169D01*
Y178138D01*
D02*
G37*
G36*
X103256D02*
Y176484D01*
X104910D01*
X104605Y177220D01*
X103991Y177833D01*
X103256Y178138D01*
D02*
G37*
G36*
X102256D02*
X101520Y177833D01*
X100907Y177220D01*
X100602Y176484D01*
X102256D01*
Y178138D01*
D02*
G37*
G36*
X59755D02*
Y176484D01*
X61409D01*
X61104Y177220D01*
X60491Y177833D01*
X59755Y178138D01*
D02*
G37*
G36*
X58755D02*
X58020Y177833D01*
X57406Y177220D01*
X57102Y176484D01*
X58755D01*
Y178138D01*
D02*
G37*
G36*
X274595Y175484D02*
X272941D01*
Y173830D01*
X273676Y174135D01*
X274290Y174749D01*
X274595Y175484D01*
D02*
G37*
G36*
X271941D02*
X270287D01*
X270592Y174749D01*
X271205Y174135D01*
X271941Y173830D01*
Y175484D01*
D02*
G37*
G36*
X234044D02*
X232390D01*
Y173830D01*
X233125Y174135D01*
X233739Y174749D01*
X234044Y175484D01*
D02*
G37*
G36*
X231390D02*
X229736D01*
X230041Y174749D01*
X230654Y174135D01*
X231390Y173830D01*
Y175484D01*
D02*
G37*
G36*
X190736D02*
X189083D01*
Y173830D01*
X189818Y174135D01*
X190432Y174749D01*
X190736Y175484D01*
D02*
G37*
G36*
X188083D02*
X186429D01*
X186734Y174749D01*
X187347Y174135D01*
X188083Y173830D01*
Y175484D01*
D02*
G37*
G36*
X61409D02*
X59755D01*
Y173830D01*
X60491Y174135D01*
X61104Y174749D01*
X61409Y175484D01*
D02*
G37*
G36*
X58755D02*
X57102D01*
X57406Y174749D01*
X58020Y174135D01*
X58755Y173830D01*
Y175484D01*
D02*
G37*
G36*
X147823D02*
X146169D01*
Y173830D01*
X146905Y174135D01*
X147518Y174749D01*
X147823Y175484D01*
D02*
G37*
G36*
X145169D02*
X143516D01*
X143820Y174749D01*
X144434Y174135D01*
X145169Y173830D01*
Y175484D01*
D02*
G37*
G36*
X104910D02*
X103256D01*
Y173830D01*
X103991Y174135D01*
X104605Y174749D01*
X104910Y175484D01*
D02*
G37*
G36*
X102256D02*
X100602D01*
X100907Y174749D01*
X101520Y174135D01*
X102256Y173830D01*
Y175484D01*
D02*
G37*
G36*
X413228Y184377D02*
X412315Y184256D01*
X411463Y183904D01*
X410732Y183343D01*
X410171Y182612D01*
X409818Y181760D01*
X409698Y180847D01*
Y175847D01*
X409818Y174933D01*
X410171Y174081D01*
X410732Y173350D01*
X411463Y172789D01*
X412315Y172437D01*
X413228Y172316D01*
X414142Y172437D01*
X414993Y172789D01*
X415725Y173350D01*
X416286Y174081D01*
X416638Y174933D01*
X416758Y175847D01*
Y180847D01*
X416638Y181760D01*
X416286Y182612D01*
X415725Y183343D01*
X414993Y183904D01*
X414142Y184256D01*
X413228Y184377D01*
D02*
G37*
G36*
X403228D02*
X402315Y184256D01*
X401463Y183904D01*
X400732Y183343D01*
X400171Y182612D01*
X399818Y181760D01*
X399698Y180847D01*
Y175847D01*
X399818Y174933D01*
X400171Y174081D01*
X400732Y173350D01*
X401463Y172789D01*
X402315Y172437D01*
X403228Y172316D01*
X404142Y172437D01*
X404993Y172789D01*
X405725Y173350D01*
X406286Y174081D01*
X406638Y174933D01*
X406758Y175847D01*
Y180847D01*
X406638Y181760D01*
X406286Y182612D01*
X405725Y183343D01*
X404993Y183904D01*
X404142Y184256D01*
X403228Y184377D01*
D02*
G37*
G36*
X393228D02*
X392315Y184256D01*
X391463Y183904D01*
X390732Y183343D01*
X390171Y182612D01*
X389818Y181760D01*
X389698Y180847D01*
Y175847D01*
X389818Y174933D01*
X390171Y174081D01*
X390732Y173350D01*
X391463Y172789D01*
X392315Y172437D01*
X393228Y172316D01*
X394142Y172437D01*
X394993Y172789D01*
X395725Y173350D01*
X396286Y174081D01*
X396638Y174933D01*
X396759Y175847D01*
Y180847D01*
X396638Y181760D01*
X396286Y182612D01*
X395725Y183343D01*
X394993Y183904D01*
X394142Y184256D01*
X393228Y184377D01*
D02*
G37*
G36*
X383228D02*
X382315Y184256D01*
X381463Y183904D01*
X380732Y183343D01*
X380171Y182612D01*
X379818Y181760D01*
X379698Y180847D01*
Y175847D01*
X379818Y174933D01*
X380171Y174081D01*
X380732Y173350D01*
X381463Y172789D01*
X382315Y172437D01*
X383228Y172316D01*
X384142Y172437D01*
X384993Y172789D01*
X385725Y173350D01*
X386286Y174081D01*
X386638Y174933D01*
X386758Y175847D01*
Y180847D01*
X386638Y181760D01*
X386286Y182612D01*
X385725Y183343D01*
X384993Y183904D01*
X384142Y184256D01*
X383228Y184377D01*
D02*
G37*
G36*
X373228D02*
X372315Y184256D01*
X371463Y183904D01*
X370732Y183343D01*
X370171Y182612D01*
X369818Y181760D01*
X369698Y180847D01*
Y175847D01*
X369818Y174933D01*
X370171Y174081D01*
X370732Y173350D01*
X371463Y172789D01*
X372315Y172437D01*
X373228Y172316D01*
X374142Y172437D01*
X374993Y172789D01*
X375725Y173350D01*
X376286Y174081D01*
X376638Y174933D01*
X376759Y175847D01*
Y180847D01*
X376638Y181760D01*
X376286Y182612D01*
X375725Y183343D01*
X374993Y183904D01*
X374142Y184256D01*
X373228Y184377D01*
D02*
G37*
G36*
X363228D02*
X362315Y184256D01*
X361463Y183904D01*
X360732Y183343D01*
X360171Y182612D01*
X359818Y181760D01*
X359698Y180847D01*
Y175847D01*
X359818Y174933D01*
X360171Y174081D01*
X360732Y173350D01*
X361463Y172789D01*
X362315Y172437D01*
X363228Y172316D01*
X364142Y172437D01*
X364993Y172789D01*
X365725Y173350D01*
X366286Y174081D01*
X366638Y174933D01*
X366758Y175847D01*
Y180847D01*
X366638Y181760D01*
X366286Y182612D01*
X365725Y183343D01*
X364993Y183904D01*
X364142Y184256D01*
X363228Y184377D01*
D02*
G37*
G36*
X353228D02*
X352315Y184256D01*
X351463Y183904D01*
X350732Y183343D01*
X350171Y182612D01*
X349818Y181760D01*
X349698Y180847D01*
Y175847D01*
X349818Y174933D01*
X350171Y174081D01*
X350732Y173350D01*
X351463Y172789D01*
X352315Y172437D01*
X353228Y172316D01*
X354142Y172437D01*
X354993Y172789D01*
X355725Y173350D01*
X356286Y174081D01*
X356638Y174933D01*
X356758Y175847D01*
Y180847D01*
X356638Y181760D01*
X356286Y182612D01*
X355725Y183343D01*
X354993Y183904D01*
X354142Y184256D01*
X353228Y184377D01*
D02*
G37*
G36*
X343228D02*
X342315Y184256D01*
X341463Y183904D01*
X340732Y183343D01*
X340171Y182612D01*
X339818Y181760D01*
X339698Y180847D01*
Y175847D01*
X339818Y174933D01*
X340171Y174081D01*
X340732Y173350D01*
X341463Y172789D01*
X342315Y172437D01*
X343228Y172316D01*
X344142Y172437D01*
X344993Y172789D01*
X345725Y173350D01*
X346286Y174081D01*
X346638Y174933D01*
X346759Y175847D01*
Y180847D01*
X346638Y181760D01*
X346286Y182612D01*
X345725Y183343D01*
X344993Y183904D01*
X344142Y184256D01*
X343228Y184377D01*
D02*
G37*
G36*
X317455Y176992D02*
X316401D01*
X315384Y176719D01*
X314472Y176193D01*
X313727Y175448D01*
X313201Y174536D01*
X312928Y173518D01*
Y172465D01*
X313201Y171448D01*
X313727Y170536D01*
X314472Y169791D01*
X315384Y169264D01*
X316401Y168992D01*
X317455D01*
X318472Y169264D01*
X319384Y169791D01*
X320129Y170536D01*
X320655Y171448D01*
X320928Y172465D01*
Y173518D01*
X320655Y174536D01*
X320129Y175448D01*
X319384Y176193D01*
X318472Y176719D01*
X317455Y176992D01*
D02*
G37*
G36*
X295407D02*
X294354D01*
X293337Y176719D01*
X292425Y176193D01*
X291680Y175448D01*
X291153Y174536D01*
X290881Y173518D01*
Y172465D01*
X291153Y171448D01*
X291680Y170536D01*
X292425Y169791D01*
X293337Y169264D01*
X294354Y168992D01*
X295407D01*
X296425Y169264D01*
X297337Y169791D01*
X298082Y170536D01*
X298608Y171448D01*
X298881Y172465D01*
Y173518D01*
X298608Y174536D01*
X298082Y175448D01*
X297337Y176193D01*
X296425Y176719D01*
X295407Y176992D01*
D02*
G37*
G36*
X461024Y180561D02*
X453150D01*
X451796Y180428D01*
X450494Y180033D01*
X449295Y179392D01*
X448243Y178529D01*
X447380Y177477D01*
X446739Y176277D01*
X446344Y174976D01*
X446211Y173622D01*
X446344Y172268D01*
X446739Y170967D01*
X447380Y169767D01*
X448243Y168716D01*
X449295Y167852D01*
X450494Y167211D01*
X451796Y166816D01*
X453150Y166683D01*
X461024D01*
X462377Y166816D01*
X463679Y167211D01*
X464879Y167852D01*
X465930Y168716D01*
X466793Y169767D01*
X467434Y170967D01*
X467829Y172268D01*
X467963Y173622D01*
X467829Y174976D01*
X467434Y176277D01*
X466793Y177477D01*
X465930Y178529D01*
X464879Y179392D01*
X463679Y180033D01*
X462377Y180428D01*
X461024Y180561D01*
D02*
G37*
G36*
X236261Y168717D02*
X235393D01*
X234591Y168385D01*
X233978Y167771D01*
X233646Y166969D01*
Y166102D01*
X233978Y165300D01*
X234591Y164686D01*
X235393Y164354D01*
X236261D01*
X237062Y164686D01*
X237676Y165300D01*
X238008Y166102D01*
Y166969D01*
X237676Y167771D01*
X237062Y168385D01*
X236261Y168717D01*
D02*
G37*
G36*
X63820D02*
X62952D01*
X62150Y168385D01*
X61537Y167771D01*
X61205Y166969D01*
Y166102D01*
X61537Y165300D01*
X62150Y164686D01*
X62952Y164354D01*
X63820D01*
X64621Y164686D01*
X65235Y165300D01*
X65567Y166102D01*
Y166969D01*
X65235Y167771D01*
X64621Y168385D01*
X63820Y168717D01*
D02*
G37*
G36*
X320928Y166992D02*
X317428D01*
Y163492D01*
X320928D01*
Y166992D01*
D02*
G37*
G36*
X298881D02*
X295381D01*
Y163492D01*
X298881D01*
Y166992D01*
D02*
G37*
G36*
X294381D02*
X290881D01*
Y163492D01*
X294381D01*
Y166992D01*
D02*
G37*
G36*
X316428D02*
X312928D01*
Y163492D01*
X316428D01*
Y166992D01*
D02*
G37*
G36*
X106733Y166354D02*
X105865D01*
X105064Y166022D01*
X104450Y165409D01*
X104118Y164607D01*
Y163739D01*
X104450Y162938D01*
X105064Y162324D01*
X105865Y161992D01*
X106733D01*
X107535Y162324D01*
X108148Y162938D01*
X108480Y163739D01*
Y164607D01*
X108148Y165409D01*
X107535Y166022D01*
X106733Y166354D01*
D02*
G37*
G36*
X320928Y162492D02*
X317428D01*
Y158992D01*
X320928D01*
Y162492D01*
D02*
G37*
G36*
X316428D02*
X312928D01*
Y158992D01*
X316428D01*
Y162492D01*
D02*
G37*
G36*
X298881D02*
X295381D01*
Y158992D01*
X298881D01*
Y162492D01*
D02*
G37*
G36*
X294381D02*
X290881D01*
Y158992D01*
X294381D01*
Y162492D01*
D02*
G37*
G36*
X30749Y158087D02*
X29881D01*
X29079Y157755D01*
X28466Y157141D01*
X28134Y156339D01*
Y155472D01*
X28466Y154670D01*
X29079Y154057D01*
X29881Y153724D01*
X30749D01*
X31550Y154057D01*
X32164Y154670D01*
X32496Y155472D01*
Y156339D01*
X32164Y157141D01*
X31550Y157755D01*
X30749Y158087D01*
D02*
G37*
G36*
X467929Y160843D02*
X446244D01*
Y147031D01*
X467929D01*
Y160843D01*
D02*
G37*
G36*
X46563Y139949D02*
Y138295D01*
X48217D01*
X47912Y139031D01*
X47298Y139644D01*
X46563Y139949D01*
D02*
G37*
G36*
X45563D02*
X44827Y139644D01*
X44214Y139031D01*
X43909Y138295D01*
X45563D01*
Y139949D01*
D02*
G37*
G36*
X48217Y137295D02*
X46563D01*
Y135642D01*
X47298Y135946D01*
X47912Y136560D01*
X48217Y137295D01*
D02*
G37*
G36*
X45563D02*
X43909D01*
X44214Y136560D01*
X44827Y135946D01*
X45563Y135642D01*
Y137295D01*
D02*
G37*
G36*
X171760Y134437D02*
Y132783D01*
X173414D01*
X173109Y133519D01*
X172495Y134133D01*
X171760Y134437D01*
D02*
G37*
G36*
X170760D02*
X170024Y134133D01*
X169411Y133519D01*
X169106Y132783D01*
X170760D01*
Y134437D01*
D02*
G37*
G36*
X129634D02*
Y132783D01*
X131288D01*
X130983Y133519D01*
X130369Y134133D01*
X129634Y134437D01*
D02*
G37*
G36*
X128634D02*
X127898Y134133D01*
X127285Y133519D01*
X126980Y132783D01*
X128634D01*
Y134437D01*
D02*
G37*
G36*
X85933D02*
Y132783D01*
X87587D01*
X87282Y133519D01*
X86669Y134133D01*
X85933Y134437D01*
D02*
G37*
G36*
X84933D02*
X84198Y134133D01*
X83584Y133519D01*
X83279Y132783D01*
X84933D01*
Y134437D01*
D02*
G37*
G36*
X258374Y134044D02*
Y132390D01*
X260028D01*
X259723Y133125D01*
X259109Y133739D01*
X258374Y134044D01*
D02*
G37*
G36*
X215067D02*
Y132390D01*
X216721D01*
X216416Y133125D01*
X215802Y133739D01*
X215067Y134044D01*
D02*
G37*
G36*
X173414Y131783D02*
X171760D01*
Y130130D01*
X172495Y130434D01*
X173109Y131048D01*
X173414Y131783D01*
D02*
G37*
G36*
X170760D02*
X169106D01*
X169411Y131048D01*
X170024Y130434D01*
X170760Y130130D01*
Y131783D01*
D02*
G37*
G36*
X131288D02*
X129634D01*
Y130130D01*
X130369Y130434D01*
X130983Y131048D01*
X131288Y131783D01*
D02*
G37*
G36*
X128634D02*
X126980D01*
X127285Y131048D01*
X127898Y130434D01*
X128634Y130130D01*
Y131783D01*
D02*
G37*
G36*
X87587D02*
X85933D01*
Y130130D01*
X86669Y130434D01*
X87282Y131048D01*
X87587Y131783D01*
D02*
G37*
G36*
X84933D02*
X83279D01*
X83584Y131048D01*
X84198Y130434D01*
X84933Y130130D01*
Y131783D01*
D02*
G37*
G36*
X165788Y134465D02*
X164920D01*
X164119Y134133D01*
X163505Y133519D01*
X163173Y132717D01*
Y131850D01*
X163505Y131048D01*
X164119Y130434D01*
X164920Y130102D01*
X165788D01*
X166590Y130434D01*
X167203Y131048D01*
X167535Y131850D01*
Y132717D01*
X167203Y133519D01*
X166590Y134133D01*
X165788Y134465D01*
D02*
G37*
G36*
X123662D02*
X122794D01*
X121993Y134133D01*
X121379Y133519D01*
X121047Y132717D01*
Y131850D01*
X121379Y131048D01*
X121993Y130434D01*
X122794Y130102D01*
X123662D01*
X124464Y130434D01*
X125077Y131048D01*
X125409Y131850D01*
Y132717D01*
X125077Y133519D01*
X124464Y134133D01*
X123662Y134465D01*
D02*
G37*
G36*
X79961D02*
X79094D01*
X78292Y134133D01*
X77679Y133519D01*
X77346Y132717D01*
Y131850D01*
X77679Y131048D01*
X78292Y130434D01*
X79094Y130102D01*
X79961D01*
X80763Y130434D01*
X81377Y131048D01*
X81709Y131850D01*
Y132717D01*
X81377Y133519D01*
X80763Y134133D01*
X79961Y134465D01*
D02*
G37*
G36*
X260028Y131390D02*
X258374D01*
Y129736D01*
X259109Y130041D01*
X259723Y130654D01*
X260028Y131390D01*
D02*
G37*
G36*
X253584Y134071D02*
X252716D01*
X251914Y133739D01*
X251301Y133125D01*
X250969Y132324D01*
Y131456D01*
X251301Y130654D01*
X251914Y130041D01*
X252716Y129709D01*
X253584D01*
X254385Y130041D01*
X254999Y130654D01*
X255241Y131240D01*
X255782D01*
X256025Y130654D01*
X256639Y130041D01*
X257374Y129736D01*
Y131890D01*
Y134044D01*
X256639Y133739D01*
X256025Y133125D01*
X255782Y132540D01*
X255241D01*
X254999Y133125D01*
X254385Y133739D01*
X253584Y134071D01*
D02*
G37*
G36*
X216721Y131390D02*
X215067D01*
Y129736D01*
X215802Y130041D01*
X216416Y130654D01*
X216721Y131390D01*
D02*
G37*
G36*
X210276Y134071D02*
X209409D01*
X208607Y133739D01*
X207994Y133125D01*
X207661Y132324D01*
Y131456D01*
X207994Y130654D01*
X208607Y130041D01*
X209409Y129709D01*
X210276D01*
X211078Y130041D01*
X211692Y130654D01*
X211934Y131240D01*
X212475D01*
X212718Y130654D01*
X213331Y130041D01*
X214067Y129736D01*
Y131890D01*
Y134044D01*
X213331Y133739D01*
X212718Y133125D01*
X212475Y132540D01*
X211934D01*
X211692Y133125D01*
X211078Y133739D01*
X210276Y134071D01*
D02*
G37*
G36*
X353728Y134311D02*
Y128847D01*
X356758D01*
Y130847D01*
X356638Y131760D01*
X356286Y132612D01*
X355725Y133343D01*
X354993Y133904D01*
X354142Y134256D01*
X353728Y134311D01*
D02*
G37*
G36*
X352728D02*
X352315Y134256D01*
X351463Y133904D01*
X350732Y133343D01*
X350171Y132612D01*
X349818Y131760D01*
X349698Y130847D01*
Y128847D01*
X352728D01*
Y134311D01*
D02*
G37*
G36*
X356758Y127847D02*
X353728D01*
Y122382D01*
X354142Y122437D01*
X354993Y122789D01*
X355725Y123350D01*
X356286Y124081D01*
X356638Y124933D01*
X356758Y125847D01*
Y127847D01*
D02*
G37*
G36*
X352728D02*
X349698D01*
Y125847D01*
X349818Y124933D01*
X350171Y124081D01*
X350732Y123350D01*
X351463Y122789D01*
X352315Y122437D01*
X352728Y122382D01*
Y127847D01*
D02*
G37*
G36*
X346728Y134346D02*
X339728D01*
Y122346D01*
X346728D01*
Y134346D01*
D02*
G37*
G36*
X413228Y134377D02*
X412315Y134256D01*
X411463Y133904D01*
X410732Y133343D01*
X410171Y132612D01*
X409818Y131760D01*
X409698Y130847D01*
Y125847D01*
X409818Y124933D01*
X410171Y124081D01*
X410732Y123350D01*
X411463Y122789D01*
X412315Y122437D01*
X413228Y122316D01*
X414142Y122437D01*
X414993Y122789D01*
X415725Y123350D01*
X416286Y124081D01*
X416638Y124933D01*
X416758Y125847D01*
Y130847D01*
X416638Y131760D01*
X416286Y132612D01*
X415725Y133343D01*
X414993Y133904D01*
X414142Y134256D01*
X413228Y134377D01*
D02*
G37*
G36*
X403228D02*
X402315Y134256D01*
X401463Y133904D01*
X400732Y133343D01*
X400171Y132612D01*
X399818Y131760D01*
X399698Y130847D01*
Y125847D01*
X399818Y124933D01*
X400171Y124081D01*
X400732Y123350D01*
X401463Y122789D01*
X402315Y122437D01*
X403228Y122316D01*
X404142Y122437D01*
X404993Y122789D01*
X405725Y123350D01*
X406286Y124081D01*
X406638Y124933D01*
X406758Y125847D01*
Y130847D01*
X406638Y131760D01*
X406286Y132612D01*
X405725Y133343D01*
X404993Y133904D01*
X404142Y134256D01*
X403228Y134377D01*
D02*
G37*
G36*
X393228D02*
X392315Y134256D01*
X391463Y133904D01*
X390732Y133343D01*
X390171Y132612D01*
X389818Y131760D01*
X389698Y130847D01*
Y125847D01*
X389818Y124933D01*
X390171Y124081D01*
X390732Y123350D01*
X391463Y122789D01*
X392315Y122437D01*
X393228Y122316D01*
X394142Y122437D01*
X394993Y122789D01*
X395725Y123350D01*
X396286Y124081D01*
X396638Y124933D01*
X396759Y125847D01*
Y130847D01*
X396638Y131760D01*
X396286Y132612D01*
X395725Y133343D01*
X394993Y133904D01*
X394142Y134256D01*
X393228Y134377D01*
D02*
G37*
G36*
X383228D02*
X382315Y134256D01*
X381463Y133904D01*
X380732Y133343D01*
X380171Y132612D01*
X379818Y131760D01*
X379698Y130847D01*
Y125847D01*
X379818Y124933D01*
X380171Y124081D01*
X380732Y123350D01*
X381463Y122789D01*
X382315Y122437D01*
X383228Y122316D01*
X384142Y122437D01*
X384993Y122789D01*
X385725Y123350D01*
X386286Y124081D01*
X386638Y124933D01*
X386758Y125847D01*
Y130847D01*
X386638Y131760D01*
X386286Y132612D01*
X385725Y133343D01*
X384993Y133904D01*
X384142Y134256D01*
X383228Y134377D01*
D02*
G37*
G36*
X373228D02*
X372315Y134256D01*
X371463Y133904D01*
X370732Y133343D01*
X370171Y132612D01*
X369818Y131760D01*
X369698Y130847D01*
Y125847D01*
X369818Y124933D01*
X370171Y124081D01*
X370732Y123350D01*
X371463Y122789D01*
X372315Y122437D01*
X373228Y122316D01*
X374142Y122437D01*
X374993Y122789D01*
X375725Y123350D01*
X376286Y124081D01*
X376638Y124933D01*
X376759Y125847D01*
Y130847D01*
X376638Y131760D01*
X376286Y132612D01*
X375725Y133343D01*
X374993Y133904D01*
X374142Y134256D01*
X373228Y134377D01*
D02*
G37*
G36*
X363228D02*
X362315Y134256D01*
X361463Y133904D01*
X360732Y133343D01*
X360171Y132612D01*
X359818Y131760D01*
X359698Y130847D01*
Y125847D01*
X359818Y124933D01*
X360171Y124081D01*
X360732Y123350D01*
X361463Y122789D01*
X362315Y122437D01*
X363228Y122316D01*
X364142Y122437D01*
X364993Y122789D01*
X365725Y123350D01*
X366286Y124081D01*
X366638Y124933D01*
X366758Y125847D01*
Y130847D01*
X366638Y131760D01*
X366286Y132612D01*
X365725Y133343D01*
X364993Y133904D01*
X364142Y134256D01*
X363228Y134377D01*
D02*
G37*
G36*
X460630Y123081D02*
X452756D01*
X451402Y122947D01*
X450101Y122553D01*
X448901Y121911D01*
X447849Y121048D01*
X446986Y119997D01*
X446345Y118797D01*
X445950Y117496D01*
X445817Y116142D01*
X445950Y114788D01*
X446345Y113486D01*
X446986Y112287D01*
X447849Y111235D01*
X448901Y110372D01*
X450101Y109731D01*
X451402Y109336D01*
X452756Y109203D01*
X460630D01*
X461984Y109336D01*
X463285Y109731D01*
X464485Y110372D01*
X465536Y111235D01*
X466399Y112287D01*
X467041Y113486D01*
X467436Y114788D01*
X467569Y116142D01*
X467436Y117496D01*
X467041Y118797D01*
X466399Y119997D01*
X465536Y121048D01*
X464485Y121911D01*
X463285Y122553D01*
X461984Y122947D01*
X460630Y123081D01*
D02*
G37*
G36*
X372481Y110449D02*
X371613D01*
X370812Y110117D01*
X370198Y109503D01*
X369866Y108702D01*
Y107834D01*
X370198Y107032D01*
X370812Y106419D01*
X371613Y106087D01*
X372481D01*
X373283Y106419D01*
X373896Y107032D01*
X374228Y107834D01*
Y108702D01*
X373896Y109503D01*
X373283Y110117D01*
X372481Y110449D01*
D02*
G37*
G36*
X460630Y103396D02*
X452756D01*
X451402Y103262D01*
X450101Y102867D01*
X448901Y102226D01*
X447849Y101363D01*
X446986Y100312D01*
X446345Y99112D01*
X445950Y97810D01*
X445817Y96457D01*
X445950Y95103D01*
X446345Y93801D01*
X446986Y92602D01*
X447849Y91550D01*
X448901Y90687D01*
X450101Y90046D01*
X451402Y89651D01*
X452756Y89518D01*
X460630D01*
X461984Y89651D01*
X463285Y90046D01*
X464485Y90687D01*
X465536Y91550D01*
X466399Y92602D01*
X467041Y93801D01*
X467436Y95103D01*
X467569Y96457D01*
X467436Y97810D01*
X467041Y99112D01*
X466399Y100312D01*
X465536Y101363D01*
X464485Y102226D01*
X463285Y102867D01*
X461984Y103262D01*
X460630Y103396D01*
D02*
G37*
G36*
Y83711D02*
X452756D01*
X451402Y83577D01*
X450101Y83182D01*
X448901Y82541D01*
X447849Y81678D01*
X446986Y80627D01*
X446345Y79427D01*
X445950Y78125D01*
X445817Y76772D01*
X445950Y75418D01*
X446345Y74116D01*
X446986Y72917D01*
X447849Y71865D01*
X448901Y71002D01*
X450101Y70361D01*
X451402Y69966D01*
X452756Y69833D01*
X460630D01*
X461984Y69966D01*
X463285Y70361D01*
X464485Y71002D01*
X465536Y71865D01*
X466399Y72917D01*
X467041Y74116D01*
X467436Y75418D01*
X467569Y76772D01*
X467436Y78125D01*
X467041Y79427D01*
X466399Y80627D01*
X465536Y81678D01*
X464485Y82541D01*
X463285Y83182D01*
X461984Y83577D01*
X460630Y83711D01*
D02*
G37*
G36*
X317456Y76835D02*
X316403D01*
X315385Y76562D01*
X314473Y76035D01*
X313728Y75291D01*
X313202Y74379D01*
X312929Y73361D01*
Y72308D01*
X313202Y71291D01*
X313728Y70379D01*
X314473Y69634D01*
X315385Y69107D01*
X316403Y68835D01*
X317456D01*
X318473Y69107D01*
X319385Y69634D01*
X320130Y70379D01*
X320656Y71291D01*
X320929Y72308D01*
Y73361D01*
X320656Y74379D01*
X320130Y75291D01*
X319385Y76035D01*
X318473Y76562D01*
X317456Y76835D01*
D02*
G37*
G36*
X295802D02*
X294749D01*
X293732Y76562D01*
X292819Y76035D01*
X292075Y75291D01*
X291548Y74379D01*
X291276Y73361D01*
Y72308D01*
X291548Y71291D01*
X292075Y70379D01*
X292819Y69634D01*
X293732Y69107D01*
X294749Y68835D01*
X295802D01*
X296819Y69107D01*
X297732Y69634D01*
X298476Y70379D01*
X299003Y71291D01*
X299276Y72308D01*
Y73361D01*
X299003Y74379D01*
X298476Y75291D01*
X297732Y76035D01*
X296819Y76562D01*
X295802Y76835D01*
D02*
G37*
G36*
X32102Y84071D02*
X18291D01*
Y62386D01*
X32102D01*
Y84071D01*
D02*
G37*
G36*
X241732Y84104D02*
X240379Y83971D01*
X239077Y83576D01*
X237877Y82935D01*
X236826Y82072D01*
X235963Y81020D01*
X235321Y79821D01*
X234927Y78519D01*
X234793Y77165D01*
Y69291D01*
X234927Y67938D01*
X235321Y66636D01*
X235963Y65436D01*
X236826Y64385D01*
X237877Y63522D01*
X239077Y62881D01*
X240379Y62486D01*
X241732Y62352D01*
X243086Y62486D01*
X244388Y62881D01*
X245587Y63522D01*
X246639Y64385D01*
X247502Y65436D01*
X248143Y66636D01*
X248538Y67938D01*
X248671Y69291D01*
Y77165D01*
X248538Y78519D01*
X248143Y79821D01*
X247502Y81020D01*
X246639Y82072D01*
X245587Y82935D01*
X244388Y83576D01*
X243086Y83971D01*
X241732Y84104D01*
D02*
G37*
G36*
X222047D02*
X220693Y83971D01*
X219392Y83576D01*
X218192Y82935D01*
X217141Y82072D01*
X216278Y81020D01*
X215636Y79821D01*
X215242Y78519D01*
X215108Y77165D01*
Y69291D01*
X215242Y67938D01*
X215636Y66636D01*
X216278Y65436D01*
X217141Y64385D01*
X218192Y63522D01*
X219392Y62881D01*
X220693Y62486D01*
X222047Y62352D01*
X223401Y62486D01*
X224703Y62881D01*
X225902Y63522D01*
X226954Y64385D01*
X227817Y65436D01*
X228458Y66636D01*
X228853Y67938D01*
X228986Y69291D01*
Y77165D01*
X228853Y78519D01*
X228458Y79821D01*
X227817Y81020D01*
X226954Y82072D01*
X225902Y82935D01*
X224703Y83576D01*
X223401Y83971D01*
X222047Y84104D01*
D02*
G37*
G36*
X202362D02*
X201009Y83971D01*
X199707Y83576D01*
X198507Y82935D01*
X197456Y82072D01*
X196593Y81020D01*
X195951Y79821D01*
X195557Y78519D01*
X195423Y77165D01*
Y69291D01*
X195557Y67938D01*
X195951Y66636D01*
X196593Y65436D01*
X197456Y64385D01*
X198507Y63522D01*
X199707Y62881D01*
X201009Y62486D01*
X202362Y62352D01*
X203716Y62486D01*
X205018Y62881D01*
X206217Y63522D01*
X207269Y64385D01*
X208132Y65436D01*
X208773Y66636D01*
X209168Y67938D01*
X209301Y69291D01*
Y77165D01*
X209168Y78519D01*
X208773Y79821D01*
X208132Y81020D01*
X207269Y82072D01*
X206217Y82935D01*
X205018Y83576D01*
X203716Y83971D01*
X202362Y84104D01*
D02*
G37*
G36*
X182677D02*
X181323Y83971D01*
X180022Y83576D01*
X178822Y82935D01*
X177771Y82072D01*
X176908Y81020D01*
X176266Y79821D01*
X175872Y78519D01*
X175738Y77165D01*
Y69291D01*
X175872Y67938D01*
X176266Y66636D01*
X176908Y65436D01*
X177771Y64385D01*
X178822Y63522D01*
X180022Y62881D01*
X181323Y62486D01*
X182677Y62352D01*
X184031Y62486D01*
X185333Y62881D01*
X186532Y63522D01*
X187584Y64385D01*
X188447Y65436D01*
X189088Y66636D01*
X189483Y67938D01*
X189616Y69291D01*
Y77165D01*
X189483Y78519D01*
X189088Y79821D01*
X188447Y81020D01*
X187584Y82072D01*
X186532Y82935D01*
X185333Y83576D01*
X184031Y83971D01*
X182677Y84104D01*
D02*
G37*
G36*
X162992D02*
X161638Y83971D01*
X160337Y83576D01*
X159137Y82935D01*
X158086Y82072D01*
X157223Y81020D01*
X156581Y79821D01*
X156186Y78519D01*
X156053Y77165D01*
Y69291D01*
X156186Y67938D01*
X156581Y66636D01*
X157223Y65436D01*
X158086Y64385D01*
X159137Y63522D01*
X160337Y62881D01*
X161638Y62486D01*
X162992Y62352D01*
X164346Y62486D01*
X165647Y62881D01*
X166847Y63522D01*
X167899Y64385D01*
X168762Y65436D01*
X169403Y66636D01*
X169798Y67938D01*
X169931Y69291D01*
Y77165D01*
X169798Y78519D01*
X169403Y79821D01*
X168762Y81020D01*
X167899Y82072D01*
X166847Y82935D01*
X165647Y83576D01*
X164346Y83971D01*
X162992Y84104D01*
D02*
G37*
G36*
X143307D02*
X141953Y83971D01*
X140652Y83576D01*
X139452Y82935D01*
X138400Y82072D01*
X137538Y81020D01*
X136896Y79821D01*
X136502Y78519D01*
X136368Y77165D01*
Y69291D01*
X136502Y67938D01*
X136896Y66636D01*
X137538Y65436D01*
X138400Y64385D01*
X139452Y63522D01*
X140652Y62881D01*
X141953Y62486D01*
X143307Y62352D01*
X144661Y62486D01*
X145963Y62881D01*
X147162Y63522D01*
X148214Y64385D01*
X149077Y65436D01*
X149718Y66636D01*
X150113Y67938D01*
X150246Y69291D01*
Y77165D01*
X150113Y78519D01*
X149718Y79821D01*
X149077Y81020D01*
X148214Y82072D01*
X147162Y82935D01*
X145963Y83576D01*
X144661Y83971D01*
X143307Y84104D01*
D02*
G37*
G36*
X123622D02*
X122268Y83971D01*
X120967Y83576D01*
X119767Y82935D01*
X118716Y82072D01*
X117852Y81020D01*
X117211Y79821D01*
X116816Y78519D01*
X116683Y77165D01*
Y69291D01*
X116816Y67938D01*
X117211Y66636D01*
X117852Y65436D01*
X118716Y64385D01*
X119767Y63522D01*
X120967Y62881D01*
X122268Y62486D01*
X123622Y62352D01*
X124976Y62486D01*
X126277Y62881D01*
X127477Y63522D01*
X128529Y64385D01*
X129392Y65436D01*
X130033Y66636D01*
X130428Y67938D01*
X130561Y69291D01*
Y77165D01*
X130428Y78519D01*
X130033Y79821D01*
X129392Y81020D01*
X128529Y82072D01*
X127477Y82935D01*
X126277Y83576D01*
X124976Y83971D01*
X123622Y84104D01*
D02*
G37*
G36*
X103937D02*
X102583Y83971D01*
X101282Y83576D01*
X100082Y82935D01*
X99030Y82072D01*
X98168Y81020D01*
X97526Y79821D01*
X97131Y78519D01*
X96998Y77165D01*
Y69291D01*
X97131Y67938D01*
X97526Y66636D01*
X98168Y65436D01*
X99030Y64385D01*
X100082Y63522D01*
X101282Y62881D01*
X102583Y62486D01*
X103937Y62352D01*
X105291Y62486D01*
X106592Y62881D01*
X107792Y63522D01*
X108844Y64385D01*
X109706Y65436D01*
X110348Y66636D01*
X110743Y67938D01*
X110876Y69291D01*
Y77165D01*
X110743Y78519D01*
X110348Y79821D01*
X109706Y81020D01*
X108844Y82072D01*
X107792Y82935D01*
X106592Y83576D01*
X105291Y83971D01*
X103937Y84104D01*
D02*
G37*
G36*
X84252D02*
X82898Y83971D01*
X81597Y83576D01*
X80397Y82935D01*
X79345Y82072D01*
X78483Y81020D01*
X77841Y79821D01*
X77446Y78519D01*
X77313Y77165D01*
Y69291D01*
X77446Y67938D01*
X77841Y66636D01*
X78483Y65436D01*
X79345Y64385D01*
X80397Y63522D01*
X81597Y62881D01*
X82898Y62486D01*
X84252Y62352D01*
X85606Y62486D01*
X86907Y62881D01*
X88107Y63522D01*
X89158Y64385D01*
X90022Y65436D01*
X90663Y66636D01*
X91058Y67938D01*
X91191Y69291D01*
Y77165D01*
X91058Y78519D01*
X90663Y79821D01*
X90022Y81020D01*
X89158Y82072D01*
X88107Y82935D01*
X86907Y83576D01*
X85606Y83971D01*
X84252Y84104D01*
D02*
G37*
G36*
X64567D02*
X63213Y83971D01*
X61911Y83576D01*
X60712Y82935D01*
X59660Y82072D01*
X58797Y81020D01*
X58156Y79821D01*
X57761Y78519D01*
X57628Y77165D01*
Y69291D01*
X57761Y67938D01*
X58156Y66636D01*
X58797Y65436D01*
X59660Y64385D01*
X60712Y63522D01*
X61911Y62881D01*
X63213Y62486D01*
X64567Y62352D01*
X65921Y62486D01*
X67222Y62881D01*
X68422Y63522D01*
X69473Y64385D01*
X70336Y65436D01*
X70978Y66636D01*
X71372Y67938D01*
X71506Y69291D01*
Y77165D01*
X71372Y78519D01*
X70978Y79821D01*
X70336Y81020D01*
X69473Y82072D01*
X68422Y82935D01*
X67222Y83576D01*
X65921Y83971D01*
X64567Y84104D01*
D02*
G37*
G36*
X44882D02*
X43528Y83971D01*
X42226Y83576D01*
X41027Y82935D01*
X39975Y82072D01*
X39112Y81020D01*
X38471Y79821D01*
X38076Y78519D01*
X37943Y77165D01*
Y69291D01*
X38076Y67938D01*
X38471Y66636D01*
X39112Y65436D01*
X39975Y64385D01*
X41027Y63522D01*
X42226Y62881D01*
X43528Y62486D01*
X44882Y62352D01*
X46236Y62486D01*
X47537Y62881D01*
X48737Y63522D01*
X49788Y64385D01*
X50651Y65436D01*
X51293Y66636D01*
X51688Y67938D01*
X51821Y69291D01*
Y77165D01*
X51688Y78519D01*
X51293Y79821D01*
X50651Y81020D01*
X49788Y82072D01*
X48737Y82935D01*
X47537Y83576D01*
X46236Y83971D01*
X44882Y84104D01*
D02*
G37*
G36*
X412205Y73747D02*
X411291Y73626D01*
X410440Y73274D01*
X409708Y72713D01*
X409148Y71982D01*
X408795Y71130D01*
X408674Y70217D01*
Y65216D01*
X408795Y64303D01*
X409148Y63451D01*
X409708Y62720D01*
X410440Y62159D01*
X411291Y61807D01*
X412205Y61686D01*
X413118Y61807D01*
X413970Y62159D01*
X414701Y62720D01*
X415262Y63451D01*
X415615Y64303D01*
X415735Y65216D01*
Y70217D01*
X415615Y71130D01*
X415262Y71982D01*
X414701Y72713D01*
X413970Y73274D01*
X413118Y73626D01*
X412205Y73747D01*
D02*
G37*
G36*
X402205D02*
X401291Y73626D01*
X400440Y73274D01*
X399709Y72713D01*
X399148Y71982D01*
X398795Y71130D01*
X398675Y70217D01*
Y65216D01*
X398795Y64303D01*
X399148Y63451D01*
X399709Y62720D01*
X400440Y62159D01*
X401291Y61807D01*
X402205Y61686D01*
X403118Y61807D01*
X403970Y62159D01*
X404701Y62720D01*
X405262Y63451D01*
X405615Y64303D01*
X405735Y65216D01*
Y70217D01*
X405615Y71130D01*
X405262Y71982D01*
X404701Y72713D01*
X403970Y73274D01*
X403118Y73626D01*
X402205Y73747D01*
D02*
G37*
G36*
X392205D02*
X391291Y73626D01*
X390440Y73274D01*
X389708Y72713D01*
X389147Y71982D01*
X388795Y71130D01*
X388674Y70217D01*
Y65216D01*
X388795Y64303D01*
X389147Y63451D01*
X389708Y62720D01*
X390440Y62159D01*
X391291Y61807D01*
X392205Y61686D01*
X393118Y61807D01*
X393970Y62159D01*
X394701Y62720D01*
X395262Y63451D01*
X395615Y64303D01*
X395735Y65216D01*
Y70217D01*
X395615Y71130D01*
X395262Y71982D01*
X394701Y72713D01*
X393970Y73274D01*
X393118Y73626D01*
X392205Y73747D01*
D02*
G37*
G36*
X382205D02*
X381291Y73626D01*
X380440Y73274D01*
X379709Y72713D01*
X379148Y71982D01*
X378795Y71130D01*
X378675Y70217D01*
Y65216D01*
X378795Y64303D01*
X379148Y63451D01*
X379709Y62720D01*
X380440Y62159D01*
X381291Y61807D01*
X382205Y61686D01*
X383118Y61807D01*
X383970Y62159D01*
X384701Y62720D01*
X385262Y63451D01*
X385615Y64303D01*
X385735Y65216D01*
Y70217D01*
X385615Y71130D01*
X385262Y71982D01*
X384701Y72713D01*
X383970Y73274D01*
X383118Y73626D01*
X382205Y73747D01*
D02*
G37*
G36*
X372205D02*
X371291Y73626D01*
X370440Y73274D01*
X369708Y72713D01*
X369147Y71982D01*
X368795Y71130D01*
X368674Y70217D01*
Y65216D01*
X368795Y64303D01*
X369147Y63451D01*
X369708Y62720D01*
X370440Y62159D01*
X371291Y61807D01*
X372205Y61686D01*
X373118Y61807D01*
X373970Y62159D01*
X374701Y62720D01*
X375262Y63451D01*
X375615Y64303D01*
X375735Y65216D01*
Y70217D01*
X375615Y71130D01*
X375262Y71982D01*
X374701Y72713D01*
X373970Y73274D01*
X373118Y73626D01*
X372205Y73747D01*
D02*
G37*
G36*
X362205D02*
X361291Y73626D01*
X360440Y73274D01*
X359708Y72713D01*
X359148Y71982D01*
X358795Y71130D01*
X358675Y70217D01*
Y65216D01*
X358795Y64303D01*
X359148Y63451D01*
X359708Y62720D01*
X360440Y62159D01*
X361291Y61807D01*
X362205Y61686D01*
X363118Y61807D01*
X363970Y62159D01*
X364701Y62720D01*
X365262Y63451D01*
X365615Y64303D01*
X365735Y65216D01*
Y70217D01*
X365615Y71130D01*
X365262Y71982D01*
X364701Y72713D01*
X363970Y73274D01*
X363118Y73626D01*
X362205Y73747D01*
D02*
G37*
G36*
X352205D02*
X351291Y73626D01*
X350440Y73274D01*
X349709Y72713D01*
X349148Y71982D01*
X348795Y71130D01*
X348675Y70217D01*
Y65216D01*
X348795Y64303D01*
X349148Y63451D01*
X349709Y62720D01*
X350440Y62159D01*
X351291Y61807D01*
X352205Y61686D01*
X353118Y61807D01*
X353970Y62159D01*
X354701Y62720D01*
X355262Y63451D01*
X355615Y64303D01*
X355735Y65216D01*
Y70217D01*
X355615Y71130D01*
X355262Y71982D01*
X354701Y72713D01*
X353970Y73274D01*
X353118Y73626D01*
X352205Y73747D01*
D02*
G37*
G36*
X342205D02*
X341291Y73626D01*
X340440Y73274D01*
X339708Y72713D01*
X339147Y71982D01*
X338795Y71130D01*
X338674Y70217D01*
Y65216D01*
X338795Y64303D01*
X339147Y63451D01*
X339708Y62720D01*
X340440Y62159D01*
X341291Y61807D01*
X342205Y61686D01*
X343118Y61807D01*
X343970Y62159D01*
X344701Y62720D01*
X345262Y63451D01*
X345615Y64303D01*
X345735Y65216D01*
Y70217D01*
X345615Y71130D01*
X345262Y71982D01*
X344701Y72713D01*
X343970Y73274D01*
X343118Y73626D01*
X342205Y73747D01*
D02*
G37*
G36*
X317456Y66835D02*
X316403D01*
X315385Y66562D01*
X314473Y66035D01*
X313728Y65291D01*
X313202Y64379D01*
X312929Y63361D01*
Y62308D01*
X313202Y61291D01*
X313728Y60379D01*
X314473Y59634D01*
X315385Y59107D01*
X316403Y58835D01*
X317456D01*
X318473Y59107D01*
X319385Y59634D01*
X320130Y60379D01*
X320656Y61291D01*
X320929Y62308D01*
Y63361D01*
X320656Y64379D01*
X320130Y65291D01*
X319385Y66035D01*
X318473Y66562D01*
X317456Y66835D01*
D02*
G37*
G36*
X295802D02*
X294749D01*
X293732Y66562D01*
X292819Y66035D01*
X292075Y65291D01*
X291548Y64379D01*
X291276Y63361D01*
Y62308D01*
X291548Y61291D01*
X292075Y60379D01*
X292819Y59634D01*
X293732Y59107D01*
X294749Y58835D01*
X295802D01*
X296819Y59107D01*
X297732Y59634D01*
X298476Y60379D01*
X299003Y61291D01*
X299276Y62308D01*
Y63361D01*
X299003Y64379D01*
X298476Y65291D01*
X297732Y66035D01*
X296819Y66562D01*
X295802Y66835D01*
D02*
G37*
G36*
X299276Y56835D02*
X295776D01*
Y53335D01*
X299276D01*
Y56835D01*
D02*
G37*
G36*
X294776D02*
X291276D01*
Y53335D01*
X294776D01*
Y56835D01*
D02*
G37*
G36*
X320929D02*
X317429D01*
Y53335D01*
X320929D01*
Y56835D01*
D02*
G37*
G36*
X316429D02*
X312929D01*
Y53335D01*
X316429D01*
Y56835D01*
D02*
G37*
G36*
X460630Y64025D02*
X452756D01*
X451402Y63892D01*
X450101Y63497D01*
X448901Y62856D01*
X447849Y61993D01*
X446986Y60942D01*
X446345Y59742D01*
X445950Y58440D01*
X445817Y57087D01*
X445950Y55733D01*
X446345Y54431D01*
X446986Y53232D01*
X447849Y52180D01*
X448901Y51317D01*
X450101Y50676D01*
X451402Y50281D01*
X452756Y50148D01*
X460630D01*
X461984Y50281D01*
X463285Y50676D01*
X464485Y51317D01*
X465536Y52180D01*
X466399Y53232D01*
X467041Y54431D01*
X467436Y55733D01*
X467569Y57087D01*
X467436Y58440D01*
X467041Y59742D01*
X466399Y60942D01*
X465536Y61993D01*
X464485Y62856D01*
X463285Y63497D01*
X461984Y63892D01*
X460630Y64025D01*
D02*
G37*
G36*
X320929Y52335D02*
X317429D01*
Y48835D01*
X320929D01*
Y52335D01*
D02*
G37*
G36*
X316429D02*
X312929D01*
Y48835D01*
X316429D01*
Y52335D01*
D02*
G37*
G36*
X299276Y52335D02*
X295776D01*
Y48835D01*
X299276D01*
Y52335D01*
D02*
G37*
G36*
X294776D02*
X291276D01*
Y48835D01*
X294776D01*
Y52335D01*
D02*
G37*
G36*
X460630Y44341D02*
X452756D01*
X451402Y44207D01*
X450101Y43812D01*
X448901Y43171D01*
X447849Y42308D01*
X446986Y41257D01*
X446345Y40057D01*
X445950Y38755D01*
X445817Y37402D01*
X445950Y36048D01*
X446345Y34746D01*
X446986Y33547D01*
X447849Y32495D01*
X448901Y31632D01*
X450101Y30991D01*
X451402Y30596D01*
X452756Y30463D01*
X460630D01*
X461984Y30596D01*
X463285Y30991D01*
X464485Y31632D01*
X465536Y32495D01*
X466399Y33547D01*
X467041Y34746D01*
X467436Y36048D01*
X467569Y37402D01*
X467436Y38755D01*
X467041Y40057D01*
X466399Y41257D01*
X465536Y42308D01*
X464485Y43171D01*
X463285Y43812D01*
X461984Y44207D01*
X460630Y44341D01*
D02*
G37*
G36*
X352705Y23681D02*
Y18217D01*
X355735D01*
Y20216D01*
X355615Y21130D01*
X355262Y21982D01*
X354701Y22713D01*
X353970Y23274D01*
X353118Y23626D01*
X352705Y23681D01*
D02*
G37*
G36*
X351705Y23681D02*
X351291Y23626D01*
X350440Y23274D01*
X349709Y22713D01*
X349148Y21982D01*
X348795Y21130D01*
X348675Y20216D01*
Y18217D01*
X351705D01*
Y23681D01*
D02*
G37*
G36*
Y17217D02*
X348675D01*
Y15216D01*
X348795Y14303D01*
X349148Y13451D01*
X349709Y12720D01*
X350440Y12159D01*
X351291Y11807D01*
X351705Y11752D01*
Y17217D01*
D02*
G37*
G36*
X355735D02*
X352705D01*
Y11752D01*
X353118Y11807D01*
X353970Y12159D01*
X354701Y12720D01*
X355262Y13451D01*
X355615Y14303D01*
X355735Y15216D01*
Y17217D01*
D02*
G37*
G36*
X345705Y23717D02*
X338705D01*
Y11716D01*
X345705D01*
Y23717D01*
D02*
G37*
G36*
X412205Y23747D02*
X411291Y23626D01*
X410440Y23274D01*
X409708Y22713D01*
X409148Y21982D01*
X408795Y21130D01*
X408674Y20216D01*
Y15216D01*
X408795Y14303D01*
X409148Y13451D01*
X409708Y12720D01*
X410440Y12159D01*
X411291Y11807D01*
X412205Y11686D01*
X413118Y11807D01*
X413970Y12159D01*
X414701Y12720D01*
X415262Y13451D01*
X415615Y14303D01*
X415735Y15216D01*
Y20216D01*
X415615Y21130D01*
X415262Y21982D01*
X414701Y22713D01*
X413970Y23274D01*
X413118Y23626D01*
X412205Y23747D01*
D02*
G37*
G36*
X402205D02*
X401291Y23626D01*
X400440Y23274D01*
X399709Y22713D01*
X399148Y21982D01*
X398795Y21130D01*
X398675Y20216D01*
Y15216D01*
X398795Y14303D01*
X399148Y13451D01*
X399709Y12720D01*
X400440Y12159D01*
X401291Y11807D01*
X402205Y11686D01*
X403118Y11807D01*
X403970Y12159D01*
X404701Y12720D01*
X405262Y13451D01*
X405615Y14303D01*
X405735Y15216D01*
Y20216D01*
X405615Y21130D01*
X405262Y21982D01*
X404701Y22713D01*
X403970Y23274D01*
X403118Y23626D01*
X402205Y23747D01*
D02*
G37*
G36*
X392205D02*
X391291Y23626D01*
X390440Y23274D01*
X389708Y22713D01*
X389147Y21982D01*
X388795Y21130D01*
X388674Y20216D01*
Y15216D01*
X388795Y14303D01*
X389147Y13451D01*
X389708Y12720D01*
X390440Y12159D01*
X391291Y11807D01*
X392205Y11686D01*
X393118Y11807D01*
X393970Y12159D01*
X394701Y12720D01*
X395262Y13451D01*
X395615Y14303D01*
X395735Y15216D01*
Y20216D01*
X395615Y21130D01*
X395262Y21982D01*
X394701Y22713D01*
X393970Y23274D01*
X393118Y23626D01*
X392205Y23747D01*
D02*
G37*
G36*
X382205D02*
X381291Y23626D01*
X380440Y23274D01*
X379709Y22713D01*
X379148Y21982D01*
X378795Y21130D01*
X378675Y20216D01*
Y15216D01*
X378795Y14303D01*
X379148Y13451D01*
X379709Y12720D01*
X380440Y12159D01*
X381291Y11807D01*
X382205Y11686D01*
X383118Y11807D01*
X383970Y12159D01*
X384701Y12720D01*
X385262Y13451D01*
X385615Y14303D01*
X385735Y15216D01*
Y20216D01*
X385615Y21130D01*
X385262Y21982D01*
X384701Y22713D01*
X383970Y23274D01*
X383118Y23626D01*
X382205Y23747D01*
D02*
G37*
G36*
X372205D02*
X371291Y23626D01*
X370440Y23274D01*
X369708Y22713D01*
X369147Y21982D01*
X368795Y21130D01*
X368674Y20216D01*
Y15216D01*
X368795Y14303D01*
X369147Y13451D01*
X369708Y12720D01*
X370440Y12159D01*
X371291Y11807D01*
X372205Y11686D01*
X373118Y11807D01*
X373970Y12159D01*
X374701Y12720D01*
X375262Y13451D01*
X375615Y14303D01*
X375735Y15216D01*
Y20216D01*
X375615Y21130D01*
X375262Y21982D01*
X374701Y22713D01*
X373970Y23274D01*
X373118Y23626D01*
X372205Y23747D01*
D02*
G37*
G36*
X362205D02*
X361291Y23626D01*
X360440Y23274D01*
X359708Y22713D01*
X359148Y21982D01*
X358795Y21130D01*
X358675Y20216D01*
Y15216D01*
X358795Y14303D01*
X359148Y13451D01*
X359708Y12720D01*
X360440Y12159D01*
X361291Y11807D01*
X362205Y11686D01*
X363118Y11807D01*
X363970Y12159D01*
X364701Y12720D01*
X365262Y13451D01*
X365615Y14303D01*
X365735Y15216D01*
Y20216D01*
X365615Y21130D01*
X365262Y21982D01*
X364701Y22713D01*
X363970Y23274D01*
X363118Y23626D01*
X362205Y23747D01*
D02*
G37*
G36*
X467535Y24622D02*
X445850D01*
Y10811D01*
X467535D01*
Y24622D01*
D02*
G37*
G36*
X314000Y34465D02*
X311984D01*
X309992Y34149D01*
X308074Y33526D01*
X306278Y32610D01*
X304646Y31425D01*
X303220Y29999D01*
X302035Y28368D01*
X301120Y26571D01*
X300497Y24654D01*
X300181Y22662D01*
Y20645D01*
X300497Y18654D01*
X301120Y16736D01*
X302035Y14939D01*
X303220Y13308D01*
X304646Y11882D01*
X306278Y10697D01*
X308074Y9781D01*
X309992Y9158D01*
X311984Y8843D01*
X314000D01*
X315992Y9158D01*
X317910Y9781D01*
X319707Y10697D01*
X321338Y11882D01*
X322764Y13308D01*
X323949Y14939D01*
X324865Y16736D01*
X325488Y18654D01*
X325803Y20645D01*
Y22662D01*
X325488Y24654D01*
X324865Y26571D01*
X323949Y28368D01*
X322764Y29999D01*
X321338Y31425D01*
X319707Y32610D01*
X317910Y33526D01*
X315992Y34149D01*
X314000Y34465D01*
D02*
G37*
G36*
X85654D02*
X83637D01*
X81646Y34149D01*
X79728Y33526D01*
X77931Y32610D01*
X76300Y31425D01*
X74874Y29999D01*
X73689Y28368D01*
X72773Y26571D01*
X72150Y24654D01*
X71835Y22662D01*
Y20645D01*
X72150Y18654D01*
X72773Y16736D01*
X73689Y14939D01*
X74874Y13308D01*
X76300Y11882D01*
X77931Y10697D01*
X79728Y9781D01*
X81646Y9158D01*
X83637Y8843D01*
X85654D01*
X87646Y9158D01*
X89563Y9781D01*
X91360Y10697D01*
X92992Y11882D01*
X94417Y13308D01*
X95603Y14939D01*
X96518Y16736D01*
X97141Y18654D01*
X97457Y20645D01*
Y22662D01*
X97141Y24654D01*
X96518Y26571D01*
X95603Y28368D01*
X94417Y29999D01*
X92992Y31425D01*
X91360Y32610D01*
X89563Y33526D01*
X87646Y34149D01*
X85654Y34465D01*
D02*
G37*
%LPD*%
D38*
X47244Y208661D02*
D03*
X294881Y172992D02*
D03*
Y182992D02*
D03*
X316928Y172992D02*
D03*
Y182992D02*
D03*
X316929Y62835D02*
D03*
Y72835D02*
D03*
X295276Y62835D02*
D03*
Y72835D02*
D03*
X388145Y259042D02*
D03*
D39*
X57244Y208661D02*
D03*
X368460Y259042D02*
D03*
D40*
X456693Y116142D02*
D03*
Y96457D02*
D03*
Y76772D02*
D03*
Y57087D02*
D03*
Y37402D02*
D03*
X457087Y173622D02*
D03*
Y193307D02*
D03*
Y212992D02*
D03*
Y232677D02*
D03*
Y252362D02*
D03*
D41*
X456693Y17717D02*
D03*
X457087Y153937D02*
D03*
D42*
X342205Y17717D02*
D03*
X343228Y128347D02*
D03*
D43*
X352205Y17717D02*
D03*
X362205D02*
D03*
X372205D02*
D03*
X382205D02*
D03*
X392205D02*
D03*
X402205D02*
D03*
X412205D02*
D03*
X342205Y67716D02*
D03*
X352205D02*
D03*
X362205D02*
D03*
X372205D02*
D03*
X382205D02*
D03*
X392205D02*
D03*
X402205D02*
D03*
X412205D02*
D03*
X413228Y178347D02*
D03*
X403228D02*
D03*
X393228D02*
D03*
X383228D02*
D03*
X373228D02*
D03*
X363228D02*
D03*
X353228D02*
D03*
X343228D02*
D03*
X413228Y128347D02*
D03*
X403228D02*
D03*
X393228D02*
D03*
X383228D02*
D03*
X373228D02*
D03*
X363228D02*
D03*
X353228D02*
D03*
D44*
X25197Y73228D02*
D03*
D45*
X44882D02*
D03*
X64567D02*
D03*
X84252D02*
D03*
X103937D02*
D03*
X123622D02*
D03*
X143307D02*
D03*
X162992D02*
D03*
X182677D02*
D03*
X202362D02*
D03*
X222047D02*
D03*
X241732D02*
D03*
D46*
X294881Y162992D02*
D03*
X316928D02*
D03*
X316929Y52835D02*
D03*
X295276D02*
D03*
D47*
X293839Y219547D02*
D03*
X283839D02*
D03*
X273839D02*
D03*
X263839D02*
D03*
X253839D02*
D03*
X243839D02*
D03*
X233839D02*
D03*
X223839D02*
D03*
X213839D02*
D03*
X203839D02*
D03*
X193839D02*
D03*
X183839D02*
D03*
X173839D02*
D03*
X163839D02*
D03*
X153839D02*
D03*
X143839D02*
D03*
X133839D02*
D03*
X123839D02*
D03*
X113839D02*
D03*
X103839D02*
D03*
X293839Y209547D02*
D03*
X283839D02*
D03*
X273839D02*
D03*
X263839D02*
D03*
X253839D02*
D03*
X243839D02*
D03*
X233839D02*
D03*
X223839D02*
D03*
X213839D02*
D03*
X203839D02*
D03*
X193839D02*
D03*
X183839D02*
D03*
X173839D02*
D03*
X163839D02*
D03*
X153839D02*
D03*
X143839D02*
D03*
X133839D02*
D03*
X123839D02*
D03*
X113839D02*
D03*
D48*
X103839D02*
D03*
D49*
X312992Y21654D02*
D03*
Y214567D02*
D03*
X84646D02*
D03*
Y21654D02*
D03*
D50*
X337402Y210630D02*
D03*
X372047Y108268D02*
D03*
X379528Y207087D02*
D03*
X375197D02*
D03*
X383858D02*
D03*
X357874Y210630D02*
D03*
Y216535D02*
D03*
X272441Y175984D02*
D03*
X209842Y131890D02*
D03*
X253150D02*
D03*
X23228Y182283D02*
D03*
X123228Y132283D02*
D03*
X85433D02*
D03*
X79528D02*
D03*
X257874Y131890D02*
D03*
X214567D02*
D03*
X171260Y132283D02*
D03*
X165354D02*
D03*
X129134D02*
D03*
X235827Y166535D02*
D03*
X106299Y164173D02*
D03*
X63386Y166535D02*
D03*
X30315Y155905D02*
D03*
X231890Y175984D02*
D03*
X188583D02*
D03*
X145669D02*
D03*
X102756D02*
D03*
X59255D02*
D03*
X46063Y137795D02*
D03*
M02*
