G04*
G04 #@! TF.GenerationSoftware,Altium Limited,Altium Designer,24.0.1 (36)*
G04*
G04 Layer_Color=128*
%FSLAX25Y25*%
%MOIN*%
G70*
G04*
G04 #@! TF.SameCoordinates,EAEA65AB-E80B-4046-BB69-B77F90F57262*
G04*
G04*
G04 #@! TF.FilePolarity,Positive*
G04*
G01*
G75*
%ADD52R,0.02992X0.12520*%
%ADD53R,0.03740X0.05315*%
D52*
X231122Y103146D02*
D03*
X253130D02*
D03*
X187815D02*
D03*
X209823D02*
D03*
X144508D02*
D03*
X166516D02*
D03*
X102185D02*
D03*
X124193D02*
D03*
X58701D02*
D03*
X80709D02*
D03*
X14232D02*
D03*
X36240D02*
D03*
D53*
X245079Y137595D02*
D03*
X239173D02*
D03*
X251969D02*
D03*
X257874D02*
D03*
X201772D02*
D03*
X195866D02*
D03*
X208661D02*
D03*
X214567D02*
D03*
X158465D02*
D03*
X152559D02*
D03*
X165354D02*
D03*
X171260D02*
D03*
X116142D02*
D03*
X110236D02*
D03*
X123031D02*
D03*
X128937D02*
D03*
X72658D02*
D03*
X66752D02*
D03*
X79547D02*
D03*
X85453D02*
D03*
X22284D02*
D03*
X28189D02*
D03*
X40984D02*
D03*
X35079D02*
D03*
X376969Y248031D02*
D03*
X382874D02*
D03*
X363145Y213766D02*
D03*
X369051D02*
D03*
M02*
