G04*
G04 #@! TF.GenerationSoftware,Altium Limited,Altium Designer,24.0.1 (36)*
G04*
G04 Layer_Physical_Order=4*
G04 Layer_Color=16711680*
%FSLAX25Y25*%
%MOIN*%
G70*
G04*
G04 #@! TF.SameCoordinates,EAEA65AB-E80B-4046-BB69-B77F90F57262*
G04*
G04*
G04 #@! TF.FilePolarity,Positive*
G04*
G01*
G75*
%ADD12C,0.01000*%
%ADD31R,0.05938X0.04750*%
%ADD32R,0.04750X0.05938*%
%ADD33C,0.02362*%
%ADD34C,0.07874*%
%ADD35C,0.01378*%
%ADD36C,0.01968*%
%ADD37C,0.03937*%
%ADD38C,0.06000*%
%ADD39R,0.06000X0.06000*%
%ADD40O,0.19685X0.11811*%
%ADD41R,0.19685X0.11811*%
%ADD42R,0.05000X0.10000*%
%ADD43O,0.05000X0.10000*%
%ADD44R,0.11811X0.19685*%
%ADD45O,0.11811X0.19685*%
%ADD46R,0.06000X0.06000*%
%ADD47C,0.06181*%
%ADD48R,0.06181X0.06181*%
%ADD49C,0.23622*%
%ADD50C,0.02362*%
G04:AMPARAMS|DCode=51|XSize=21.65mil|YSize=49.21mil|CornerRadius=1.95mil|HoleSize=0mil|Usage=FLASHONLY|Rotation=180.000|XOffset=0mil|YOffset=0mil|HoleType=Round|Shape=RoundedRectangle|*
%AMROUNDEDRECTD51*
21,1,0.02165,0.04532,0,0,180.0*
21,1,0.01776,0.04921,0,0,180.0*
1,1,0.00390,-0.00888,0.02266*
1,1,0.00390,0.00888,0.02266*
1,1,0.00390,0.00888,-0.02266*
1,1,0.00390,-0.00888,-0.02266*
%
%ADD51ROUNDEDRECTD51*%
%ADD52R,0.02992X0.12520*%
%ADD53R,0.03740X0.05315*%
%ADD54R,0.04724X0.05906*%
%ADD55R,0.12992X0.05906*%
%ADD56C,0.05906*%
%ADD57C,0.02756*%
%ADD58C,0.03543*%
%ADD59C,0.01181*%
%ADD60C,0.03150*%
D12*
X345669Y223228D02*
Y237008D01*
X301969Y199606D02*
X400394D01*
X413228Y178504D02*
X413386Y178347D01*
X400394Y199606D02*
X413228Y186772D01*
X346063Y196850D02*
X353150Y189764D01*
X300000Y201575D02*
X301969Y199606D01*
X263839Y204272D02*
X266535Y201575D01*
X300000D01*
X297244Y194095D02*
X336614D01*
X343307Y187402D01*
X295276Y196063D02*
X297244Y194095D01*
X299213Y196850D02*
X346063D01*
X297244Y198819D02*
X299213Y196850D01*
X343307Y178347D02*
Y187402D01*
X353150Y178347D02*
Y189764D01*
X413228Y178504D02*
Y186772D01*
X400812Y114148D02*
X412205Y102756D01*
Y67977D02*
Y102756D01*
X352362Y67716D02*
Y78740D01*
X354331Y80709D02*
Y108268D01*
X352362Y78740D02*
X354331Y80709D01*
X342126Y67716D02*
X342520Y68110D01*
Y107087D01*
X340354Y109252D02*
X342520Y107087D01*
X315158Y109252D02*
X340354D01*
X350787Y111811D02*
X354331Y108268D01*
X316535Y111811D02*
X350787D01*
X318922Y114148D02*
X400812D01*
X283465Y149606D02*
Y179921D01*
Y149606D02*
X318922Y114148D01*
X280709Y147638D02*
X316535Y111811D01*
X280709Y147638D02*
Y178740D01*
X247244Y196063D02*
X295276D01*
X243839Y199469D02*
Y209547D01*
Y199469D02*
X247244Y196063D01*
X253839Y201673D02*
Y209547D01*
Y201673D02*
X256693Y198819D01*
X297244D01*
X263839Y204272D02*
Y209547D01*
X338583Y244094D02*
X345669Y237008D01*
X333271Y244094D02*
X338583D01*
X312598Y233465D02*
X324803D01*
X324997Y244094D02*
X325197D01*
X320079D02*
X324997D01*
X311024Y231890D02*
X312598Y233465D01*
X150394Y231890D02*
X311024D01*
X143839Y225335D02*
X150394Y231890D01*
X143839Y219547D02*
Y225335D01*
X133839Y219547D02*
Y226358D01*
X309874Y233890D02*
X320079Y244094D01*
X133839Y226358D02*
X141370Y233890D01*
X309874D01*
X278346Y146063D02*
X315158Y109252D01*
X389764Y56299D02*
X392205Y58740D01*
Y67716D01*
X270866Y192520D02*
X283465Y179921D01*
X269685Y189764D02*
X280709Y178740D01*
X179528Y192520D02*
X270866D01*
X163779Y197638D02*
X171653Y189764D01*
X269685D01*
X163779Y197638D02*
Y209055D01*
X173839Y198209D02*
Y209272D01*
Y198209D02*
X179528Y192520D01*
X268504Y187008D02*
X278346Y177165D01*
Y146063D02*
Y177165D01*
X163386Y187008D02*
X268504D01*
X153839Y196555D02*
X163386Y187008D01*
X153839Y196555D02*
Y209547D01*
X173839Y209272D02*
X174016Y209449D01*
X402205Y67559D02*
X402362Y67716D01*
X402205Y56535D02*
Y67559D01*
X399213Y53543D02*
X402205Y56535D01*
X332283Y45276D02*
X340551Y53543D01*
X399213D01*
X312598Y45276D02*
X332283D01*
X311024Y46850D02*
X312598Y45276D01*
X311024Y46850D02*
Y46850D01*
X307874Y50000D02*
X311024Y46850D01*
X304331Y62598D02*
X307874Y59055D01*
Y50000D02*
Y59055D01*
X295512Y62598D02*
X304331D01*
X295276Y62835D02*
X295512Y62598D01*
X335433Y56299D02*
X389764D01*
X316929Y62835D02*
X328898D01*
X335433Y56299D01*
X403150Y167323D02*
Y177953D01*
X400000Y164173D02*
X403150Y167323D01*
X330315Y164173D02*
X400000D01*
X322047Y155905D02*
X330315Y164173D01*
X312205Y155905D02*
X322047D01*
X310236Y157874D02*
X312205Y155905D01*
X310236Y157874D02*
Y166142D01*
X294881Y172992D02*
X303386D01*
X310236Y166142D01*
X390748Y167323D02*
X392913Y169488D01*
Y177362D01*
X330709Y167323D02*
X390748D01*
X325040Y172992D02*
X330709Y167323D01*
X316928Y172992D02*
X325040D01*
X373228Y128347D02*
X373228Y128347D01*
X23067Y175981D02*
X23228Y176142D01*
X241405Y145851D02*
X241516Y145961D01*
X241405Y142586D02*
Y145851D01*
X239986Y141167D02*
X241405Y142586D01*
X239173Y137595D02*
X239986Y138407D01*
Y141167D01*
X246457Y142520D02*
Y146063D01*
X244882Y140945D02*
X246457Y142520D01*
X244882Y137792D02*
Y140945D01*
Y137792D02*
X245079Y137595D01*
Y133661D02*
Y137595D01*
Y133661D02*
X248031Y130709D01*
Y126969D02*
Y130709D01*
Y126969D02*
X248031Y126969D01*
X236221Y130709D02*
X239370Y133858D01*
Y137402D01*
X236221Y126969D02*
Y130709D01*
X67716Y175206D02*
Y175984D01*
X40945Y137795D02*
X40984D01*
X251516Y145961D02*
X251575Y145902D01*
X212992Y145669D02*
X213386Y145276D01*
X169902Y145961D02*
X170484Y145378D01*
X164902Y137854D02*
X164961Y137795D01*
X198209Y166630D02*
Y174587D01*
X198425Y174803D01*
X154902Y170866D02*
Y175020D01*
Y166630D02*
Y170866D01*
X158661D01*
X159843Y169685D01*
Y166690D02*
Y169685D01*
Y166690D02*
X159902Y166630D01*
X154331Y175591D02*
X154902Y175020D01*
X116993Y162205D02*
X117579Y162791D01*
X108268Y162205D02*
X116993D01*
X117579Y162791D02*
Y166630D01*
X106299Y164173D02*
X108268Y162205D01*
X112579Y166630D02*
Y175571D01*
X112598Y175591D01*
X69291Y171846D02*
Y173632D01*
Y171846D02*
X69877Y171260D01*
X72441D01*
X67716Y175206D02*
X69291Y173632D01*
X73512Y167213D02*
Y170189D01*
X72441Y171260D02*
X73512Y170189D01*
Y167213D02*
X74094Y166630D01*
X30315Y155905D02*
X34636Y151585D01*
X24626Y161594D02*
X30315Y155905D01*
X249213Y175591D02*
X250107Y174696D01*
X170169Y170563D02*
Y173512D01*
X169902Y170295D02*
X170169Y170563D01*
X171460Y174803D02*
X171653D01*
X170169Y173512D02*
X171460Y174803D01*
X169902Y166630D02*
Y170295D01*
X127953Y170866D02*
Y175591D01*
X127579Y170492D02*
X127953Y170866D01*
X127579Y166630D02*
Y170492D01*
X29626Y161909D02*
Y166630D01*
X27165Y159449D02*
X29626Y161909D01*
X24626Y161594D02*
Y166630D01*
X34636Y145971D02*
Y151585D01*
X34626Y145961D02*
X34636Y145971D01*
X84095Y170315D02*
X84362Y170582D01*
Y175700D02*
X84646Y175984D01*
X84362Y170582D02*
Y175700D01*
X84095Y166630D02*
Y170315D01*
X239957Y175981D02*
X240154D01*
X240158Y175984D01*
X196650Y175981D02*
X196847D01*
X196850Y175984D01*
X153343Y175981D02*
X153540D01*
X153543Y175984D01*
X111020Y175981D02*
X111024Y175984D01*
X50043Y175981D02*
X50046Y175984D01*
X34626Y138048D02*
X35079Y137595D01*
D31*
X248031Y118694D02*
D03*
Y126969D02*
D03*
X236221Y118694D02*
D03*
Y126969D02*
D03*
X204724Y118694D02*
D03*
Y126969D02*
D03*
X192913Y118694D02*
D03*
Y126969D02*
D03*
X161417Y118694D02*
D03*
Y126969D02*
D03*
X149606Y118694D02*
D03*
Y126969D02*
D03*
X119095Y118694D02*
D03*
Y126969D02*
D03*
X107283Y118694D02*
D03*
Y126969D02*
D03*
X75610Y118694D02*
D03*
Y126969D02*
D03*
X63799Y118694D02*
D03*
Y126969D02*
D03*
X31142Y118694D02*
D03*
Y126969D02*
D03*
X19331Y118694D02*
D03*
Y126969D02*
D03*
D32*
X266933Y175981D02*
D03*
X258658D02*
D03*
X239957D02*
D03*
X248232D02*
D03*
X223625D02*
D03*
X215351D02*
D03*
X196650D02*
D03*
X204925D02*
D03*
X180318D02*
D03*
X172044D02*
D03*
X153343D02*
D03*
X161618D02*
D03*
X137996D02*
D03*
X129721D02*
D03*
X111020D02*
D03*
X119295D02*
D03*
X94511D02*
D03*
X86237D02*
D03*
X67536D02*
D03*
X75810D02*
D03*
X50043D02*
D03*
X41768D02*
D03*
X23067D02*
D03*
X31342D02*
D03*
X345869Y223228D02*
D03*
X337595D02*
D03*
X333271Y233465D02*
D03*
X324997D02*
D03*
X333271Y244094D02*
D03*
X324997D02*
D03*
D33*
X337595Y210823D02*
Y223228D01*
X337402Y210630D02*
X337595Y210823D01*
X337402Y222835D02*
X337795Y223228D01*
X352205Y67874D02*
X352362Y67716D01*
X337795Y223622D02*
Y230506D01*
X336411Y231890D02*
X337795Y230506D01*
X334465Y231890D02*
X336411D01*
X333271Y233084D02*
Y233465D01*
Y233084D02*
X334465Y231890D01*
X372126Y68032D02*
X372441Y67716D01*
X241732Y73228D02*
X242508Y74004D01*
Y85028D02*
X252815Y95335D01*
X242508Y74004D02*
Y85028D01*
X252815Y95335D02*
Y103354D01*
X252860Y103400D01*
X231102Y93307D02*
Y103150D01*
X227559Y89764D02*
X231102Y93307D01*
X222047Y86221D02*
X225591Y89764D01*
X227559D01*
X222047Y73228D02*
Y86221D01*
X202362Y73228D02*
Y86221D01*
X209842Y93701D02*
Y102362D01*
X202362Y86221D02*
X209842Y93701D01*
X182677Y74410D02*
Y87795D01*
X187815Y92933D01*
Y103146D01*
X163183Y73419D02*
Y88380D01*
X166535Y91732D02*
Y103543D01*
X163183Y88380D02*
X166535Y91732D01*
X162992Y73228D02*
X163183Y73419D01*
X166516Y103543D02*
Y111437D01*
X144488Y89370D02*
Y102756D01*
X143307Y88189D02*
X144488Y89370D01*
X143307Y73228D02*
Y88189D01*
X123907Y73337D02*
Y102861D01*
Y73337D02*
X124016Y73228D01*
X123907Y102861D02*
X124193Y103146D01*
X103937Y73622D02*
Y91732D01*
X102185Y93484D02*
X103937Y91732D01*
X102185Y93484D02*
Y103146D01*
X84252Y72835D02*
Y87402D01*
X80709Y90945D02*
X84252Y87402D01*
X80709Y90945D02*
Y103146D01*
X58701Y93268D02*
X64567Y87402D01*
Y73228D02*
X64961Y72835D01*
X64567Y73228D02*
Y87402D01*
X58701Y93268D02*
Y103146D01*
X36555Y94153D02*
X44488Y86221D01*
Y74016D02*
Y86221D01*
X36240Y103146D02*
X36555Y102831D01*
Y94153D02*
Y102831D01*
X24803Y73622D02*
Y86614D01*
X17895Y90372D02*
X21045D01*
X24803Y86614D01*
X14232Y94035D02*
Y103146D01*
Y94035D02*
X17895Y90372D01*
X148031Y117402D02*
Y117500D01*
Y114567D02*
Y117402D01*
X252860Y103400D02*
Y110919D01*
X248031Y118694D02*
X248180D01*
X249374Y114406D02*
Y117500D01*
Y114406D02*
X252860Y110919D01*
X248180Y118694D02*
X249374Y117500D01*
X231122Y103146D02*
X231411Y103436D01*
X234646Y114134D02*
Y117500D01*
X231411Y103436D02*
Y110899D01*
X234646Y114134D01*
Y117500D02*
X235840Y118694D01*
X236221D01*
X209553Y103797D02*
Y111313D01*
X206299Y114567D02*
Y117500D01*
Y114567D02*
X209553Y111313D01*
X205105Y118694D02*
X206299Y117500D01*
X204724Y118694D02*
X205105D01*
X188084Y103416D02*
Y110919D01*
X191339Y114173D01*
Y117500D01*
X187815Y103146D02*
X188084Y103416D01*
X191339Y117500D02*
X192533Y118694D01*
X192913D01*
X161959D02*
X163153Y117500D01*
X161417Y118694D02*
X161959D01*
X163153Y114799D02*
X166516Y111437D01*
X163153Y114799D02*
Y117500D01*
X148031D02*
X149225Y118694D01*
X149606D01*
X144581Y111116D02*
X148031Y114567D01*
X144581Y104403D02*
Y111116D01*
X105512Y114567D02*
Y117500D01*
X102356Y103317D02*
Y111411D01*
X105512Y114567D01*
Y117500D02*
X106706Y118694D01*
X107283D01*
X120882Y114551D02*
X124193Y111240D01*
X120882Y114551D02*
Y117500D01*
X124193Y103146D02*
Y111240D01*
X119688Y118694D02*
X120882Y117500D01*
X119095Y118694D02*
X119688D01*
X102185Y103146D02*
X102356Y103317D01*
X80626Y103229D02*
Y111500D01*
X75610Y118694D02*
X76142D01*
X77336Y117500D01*
Y114790D02*
Y117500D01*
Y114790D02*
X80626Y111500D01*
Y103229D02*
X80709Y103146D01*
X58960Y111323D02*
X62205Y114567D01*
Y117500D01*
X58960Y103406D02*
Y111323D01*
X62205Y117500D02*
X63399Y118694D01*
X63799D01*
X58701Y103146D02*
X58960Y103406D01*
X14547Y111398D02*
X17717Y114567D01*
X14547Y103858D02*
Y111398D01*
X17717Y114567D02*
Y117500D01*
X32661Y114583D02*
X36148Y111096D01*
X32661Y114583D02*
Y117500D01*
X31142Y118694D02*
X31467D01*
X36148Y103242D02*
Y111096D01*
X31467Y118694D02*
X32661Y117500D01*
X18911Y118694D02*
X19331D01*
X17717Y117500D02*
X18911Y118694D01*
D34*
X452278Y151969D02*
X454247Y153937D01*
X457087D01*
X452278Y142042D02*
Y151969D01*
X438583Y128347D02*
X452278Y142042D01*
X414665Y128347D02*
X438583D01*
X413779Y17717D02*
X456693D01*
D35*
X149134Y118504D02*
X150000D01*
X148031Y117402D02*
X149134Y118504D01*
X147638Y117008D02*
X148031Y117402D01*
X123839Y183429D02*
Y209547D01*
X104390Y190610D02*
X113779Y200000D01*
Y209449D01*
X35098Y190610D02*
X104390D01*
X209654Y132078D02*
X209842Y131890D01*
X209654Y132078D02*
Y136602D01*
X208661Y137595D02*
X209654Y136602D01*
X251969Y137595D02*
X252961Y136602D01*
Y132078D02*
Y136602D01*
Y132078D02*
X253150Y131890D01*
X251969Y137595D02*
Y141339D01*
X123031Y137595D02*
X123228Y137398D01*
Y132283D02*
Y137398D01*
X256485Y145930D02*
X256516Y145961D01*
X256485Y142334D02*
X257307Y141512D01*
X256485Y142334D02*
Y145930D01*
X257307Y138162D02*
X257874Y137595D01*
X257307Y138162D02*
Y141512D01*
X85433Y132283D02*
X85443Y132293D01*
X85433Y137402D02*
X85443Y137392D01*
Y132293D02*
Y137392D01*
X79528Y137402D02*
X79537Y137392D01*
X79528Y132283D02*
X79537Y132293D01*
Y137392D01*
X129134Y132283D02*
Y137795D01*
X39764Y142520D02*
Y146063D01*
X196285Y138017D02*
Y141167D01*
X196063Y137795D02*
X196285Y138017D01*
Y141167D02*
X198031Y142913D01*
Y145784D01*
X198209Y145961D01*
X203150Y142126D02*
Y146063D01*
X203543Y146457D01*
X201969Y140945D02*
X203150Y142126D01*
X201969Y137792D02*
Y140945D01*
X201772Y137595D02*
X201969Y137792D01*
X201575Y133858D02*
Y137402D01*
X204724Y126969D02*
Y130709D01*
X201575Y133858D02*
X204724Y130709D01*
X192913Y129921D02*
X195669Y132677D01*
Y137008D01*
X192913Y126969D02*
X192913Y126969D01*
Y129921D01*
X154331Y145276D02*
X155118Y146063D01*
X154331Y142126D02*
Y145276D01*
X152756Y140551D02*
X154331Y142126D01*
X152756Y137792D02*
Y140551D01*
X152559Y137595D02*
X152756Y137792D01*
X159843Y141732D02*
Y146063D01*
X158661Y140551D02*
X159843Y141732D01*
X158661Y137792D02*
Y140551D01*
X158465Y137595D02*
X158661Y137792D01*
X161024Y127559D02*
X161417Y127165D01*
X161024Y127559D02*
Y131102D01*
X159055Y133071D02*
X161024Y131102D01*
X158465Y137595D02*
X159055Y137004D01*
Y133071D02*
Y137004D01*
X152756Y133465D02*
Y137402D01*
X149606Y130315D02*
X152756Y133465D01*
X149606Y126969D02*
Y130315D01*
X122643Y142429D02*
X123228Y141843D01*
X122643Y142429D02*
Y145897D01*
X122579Y145961D02*
X122643Y145897D01*
X105118Y117008D02*
X106220Y118110D01*
X107480D01*
X116142Y133465D02*
Y137402D01*
Y133465D02*
X119095Y130512D01*
Y126969D02*
Y130512D01*
X110236Y137595D02*
Y140945D01*
Y133465D02*
Y137595D01*
X107283Y130512D02*
X110236Y133465D01*
X107283Y126969D02*
Y130512D01*
X116142Y140945D02*
X117579Y142382D01*
Y145961D01*
X116142Y137595D02*
Y140945D01*
X112598Y142520D02*
Y146063D01*
X111811Y141732D02*
X112598Y142520D01*
X110236Y140945D02*
X111024Y141732D01*
X111811D01*
X127579Y145961D02*
X127972Y145568D01*
Y142894D02*
X128740Y142126D01*
X127972Y142894D02*
Y145568D01*
X128740Y137795D02*
Y142126D01*
X72658Y133248D02*
X75591Y130315D01*
Y127165D02*
Y130315D01*
X72658Y133248D02*
Y137595D01*
X66535Y137402D02*
X66929Y137795D01*
Y142418D01*
X66535Y133071D02*
Y137402D01*
X63799Y126969D02*
Y130335D01*
X66535Y133071D01*
X257874Y131890D02*
Y137402D01*
X251575Y141732D02*
X251969Y141339D01*
X251575Y141732D02*
Y145902D01*
X214567Y131890D02*
Y137402D01*
X213386Y142126D02*
Y145276D01*
Y142126D02*
X214567Y140945D01*
Y137595D02*
Y140945D01*
X208268Y141732D02*
Y145669D01*
X208661Y137595D02*
Y141339D01*
X208268Y141732D02*
X208661Y141339D01*
X171260Y137795D02*
Y141339D01*
X170484Y142114D02*
Y145378D01*
Y142114D02*
X171260Y141339D01*
X164902Y137854D02*
Y145961D01*
X171260Y132283D02*
Y137402D01*
X165354Y132283D02*
Y137402D01*
X123228Y138189D02*
Y141843D01*
X84095Y145961D02*
X84173Y146040D01*
X79114Y146083D02*
X79134Y146063D01*
X84095Y145961D02*
X84252Y145804D01*
Y138583D02*
Y145804D01*
Y138583D02*
X85039Y137795D01*
X79134Y142126D02*
Y145669D01*
X79547Y137595D02*
Y141713D01*
X79134Y142126D02*
X79547Y141713D01*
X74016Y145276D02*
X74410Y145669D01*
X74016Y142520D02*
Y145276D01*
X72835Y141339D02*
X74016Y142520D01*
X72835Y137772D02*
Y141339D01*
X72658Y137595D02*
X72835Y137772D01*
X66929Y142418D02*
X68898Y144386D01*
Y145669D01*
X40984Y137795D02*
Y141299D01*
X28189Y137795D02*
Y140753D01*
X28346Y133465D02*
Y137795D01*
X31142Y126969D02*
Y130669D01*
X28346Y133465D02*
X31142Y130669D01*
X19331Y130748D02*
X22441Y133858D01*
Y137402D01*
X19331Y126969D02*
Y130748D01*
X24476Y142586D02*
Y145811D01*
X22835Y140945D02*
X24476Y142586D01*
Y145811D02*
X24626Y145961D01*
X22835Y138146D02*
Y140945D01*
X28189Y140753D02*
X29437Y142001D01*
Y145579D02*
X29528Y145669D01*
X29437Y142001D02*
Y145579D01*
X39764Y142520D02*
X40984Y141299D01*
X34626Y138048D02*
Y145961D01*
X31342Y186854D02*
X35098Y190610D01*
X31342Y175981D02*
Y186854D01*
D36*
X40984Y137795D02*
X46063D01*
X235827Y166535D02*
X240945D01*
X63386D02*
X68898D01*
D37*
X357830Y210616D02*
Y213766D01*
X375197Y207087D02*
Y212598D01*
X374803Y213766D02*
X379484D01*
X374803Y212992D02*
X375197Y212598D01*
X369149Y213766D02*
X374803D01*
X379134Y212782D02*
X379528D01*
Y207087D02*
Y212782D01*
X267323Y175984D02*
X272441D01*
X379484Y213766D02*
X379484Y213766D01*
X388539Y248031D02*
Y258254D01*
Y238963D02*
Y248031D01*
X368066Y250774D02*
Y258254D01*
X357830Y213766D02*
Y216522D01*
X370428Y238963D02*
Y247231D01*
X368066Y250774D02*
X370428Y248412D01*
X379484Y213766D02*
Y238963D01*
X383814Y207073D02*
Y212782D01*
X23228Y176142D02*
Y182283D01*
X50046Y175984D02*
X67716D01*
X223625Y175981D02*
X239957D01*
X180318D02*
X196650D01*
X137996D02*
X153343D01*
X94511D02*
X111020D01*
D38*
X47244Y208661D02*
D03*
X294881Y172992D02*
D03*
Y182992D02*
D03*
X316928Y172992D02*
D03*
Y182992D02*
D03*
X316929Y62835D02*
D03*
Y72835D02*
D03*
X295276Y62835D02*
D03*
Y72835D02*
D03*
X388145Y259042D02*
D03*
D39*
X57244Y208661D02*
D03*
X368460Y259042D02*
D03*
D40*
X456693Y116142D02*
D03*
Y96457D02*
D03*
Y76772D02*
D03*
Y57087D02*
D03*
Y37402D02*
D03*
X457087Y173622D02*
D03*
Y193307D02*
D03*
Y212992D02*
D03*
Y232677D02*
D03*
Y252362D02*
D03*
D41*
X456693Y17717D02*
D03*
X457087Y153937D02*
D03*
D42*
X342205Y17717D02*
D03*
X343228Y128347D02*
D03*
D43*
X352205Y17717D02*
D03*
X362205D02*
D03*
X372205D02*
D03*
X382205D02*
D03*
X392205D02*
D03*
X402205D02*
D03*
X412205D02*
D03*
X342205Y67716D02*
D03*
X352205D02*
D03*
X362205D02*
D03*
X372205D02*
D03*
X382205D02*
D03*
X392205D02*
D03*
X402205D02*
D03*
X412205D02*
D03*
X413228Y178347D02*
D03*
X403228D02*
D03*
X393228D02*
D03*
X383228D02*
D03*
X373228D02*
D03*
X363228D02*
D03*
X353228D02*
D03*
X343228D02*
D03*
X413228Y128347D02*
D03*
X403228D02*
D03*
X393228D02*
D03*
X383228D02*
D03*
X373228D02*
D03*
X363228D02*
D03*
X353228D02*
D03*
D44*
X25197Y73228D02*
D03*
D45*
X44882D02*
D03*
X64567D02*
D03*
X84252D02*
D03*
X103937D02*
D03*
X123622D02*
D03*
X143307D02*
D03*
X162992D02*
D03*
X182677D02*
D03*
X202362D02*
D03*
X222047D02*
D03*
X241732D02*
D03*
D46*
X294881Y162992D02*
D03*
X316928D02*
D03*
X316929Y52835D02*
D03*
X295276D02*
D03*
D47*
X293839Y219547D02*
D03*
X283839D02*
D03*
X273839D02*
D03*
X263839D02*
D03*
X253839D02*
D03*
X243839D02*
D03*
X233839D02*
D03*
X223839D02*
D03*
X213839D02*
D03*
X203839D02*
D03*
X193839D02*
D03*
X183839D02*
D03*
X173839D02*
D03*
X163839D02*
D03*
X153839D02*
D03*
X143839D02*
D03*
X133839D02*
D03*
X123839D02*
D03*
X113839D02*
D03*
X103839D02*
D03*
X293839Y209547D02*
D03*
X283839D02*
D03*
X273839D02*
D03*
X263839D02*
D03*
X253839D02*
D03*
X243839D02*
D03*
X233839D02*
D03*
X223839D02*
D03*
X213839D02*
D03*
X203839D02*
D03*
X193839D02*
D03*
X183839D02*
D03*
X173839D02*
D03*
X163839D02*
D03*
X153839D02*
D03*
X143839D02*
D03*
X133839D02*
D03*
X123839D02*
D03*
X113839D02*
D03*
D48*
X103839D02*
D03*
D49*
X312992Y21654D02*
D03*
Y214567D02*
D03*
X84646D02*
D03*
Y21654D02*
D03*
D50*
X337402Y210630D02*
D03*
X372047Y108268D02*
D03*
X379528Y207087D02*
D03*
X375197D02*
D03*
X383858D02*
D03*
X357874Y210630D02*
D03*
Y216535D02*
D03*
X272441Y175984D02*
D03*
X209842Y131890D02*
D03*
X253150D02*
D03*
X23228Y182283D02*
D03*
X123228Y132283D02*
D03*
X85433D02*
D03*
X79528D02*
D03*
X257874Y131890D02*
D03*
X214567D02*
D03*
X171260Y132283D02*
D03*
X165354D02*
D03*
X129134D02*
D03*
X235827Y166535D02*
D03*
X106299Y164173D02*
D03*
X63386Y166535D02*
D03*
X30315Y155905D02*
D03*
X231890Y175984D02*
D03*
X188583D02*
D03*
X145669D02*
D03*
X102756D02*
D03*
X59255D02*
D03*
X46063Y137795D02*
D03*
D51*
X256516Y145961D02*
D03*
X251516D02*
D03*
X246516D02*
D03*
X241516D02*
D03*
X256516Y166630D02*
D03*
X251516D02*
D03*
X246516D02*
D03*
X241516D02*
D03*
X198209D02*
D03*
X203209D02*
D03*
X208209D02*
D03*
X213209D02*
D03*
X198209Y145961D02*
D03*
X203209D02*
D03*
X208209D02*
D03*
X213209D02*
D03*
X154902Y166630D02*
D03*
X159902D02*
D03*
X164902D02*
D03*
X169902D02*
D03*
X154902Y145961D02*
D03*
X159902D02*
D03*
X164902D02*
D03*
X169902D02*
D03*
X112579Y166630D02*
D03*
X117579D02*
D03*
X122579D02*
D03*
X127579D02*
D03*
X112579Y145961D02*
D03*
X117579D02*
D03*
X122579D02*
D03*
X127579D02*
D03*
X69095Y166630D02*
D03*
X74094D02*
D03*
X79094D02*
D03*
X84095D02*
D03*
X69095Y145961D02*
D03*
X74094D02*
D03*
X79094D02*
D03*
X84095D02*
D03*
X24626Y166630D02*
D03*
X29626D02*
D03*
X34626D02*
D03*
X39626D02*
D03*
X24626Y145961D02*
D03*
X29626D02*
D03*
X34626D02*
D03*
X39626D02*
D03*
D52*
X231122Y103146D02*
D03*
X253130D02*
D03*
X187815D02*
D03*
X209823D02*
D03*
X144508D02*
D03*
X166516D02*
D03*
X102185D02*
D03*
X124193D02*
D03*
X58701D02*
D03*
X80709D02*
D03*
X14232D02*
D03*
X36240D02*
D03*
D53*
X245079Y137595D02*
D03*
X239173D02*
D03*
X251969D02*
D03*
X257874D02*
D03*
X201772D02*
D03*
X195866D02*
D03*
X208661D02*
D03*
X214567D02*
D03*
X158465D02*
D03*
X152559D02*
D03*
X165354D02*
D03*
X171260D02*
D03*
X116142D02*
D03*
X110236D02*
D03*
X123031D02*
D03*
X128937D02*
D03*
X72658D02*
D03*
X66752D02*
D03*
X79547D02*
D03*
X85453D02*
D03*
X22284D02*
D03*
X28189D02*
D03*
X40984D02*
D03*
X35079D02*
D03*
X376969Y248031D02*
D03*
X382874D02*
D03*
X363145Y213766D02*
D03*
X369051D02*
D03*
D54*
X370428Y238963D02*
D03*
X379484D02*
D03*
X388539D02*
D03*
D55*
X379484Y213766D02*
D03*
D56*
X103839Y202264D02*
Y208169D01*
X98425Y196850D02*
X103839Y202264D01*
X61024Y196850D02*
X98425D01*
X57244Y200630D02*
X61024Y196850D01*
X57244Y200630D02*
Y208661D01*
D57*
X408268Y31102D02*
X434125Y56960D01*
X401968Y42520D02*
X431890Y72441D01*
X456693Y96457D02*
X457087D01*
X423228Y37402D02*
X456693D01*
X412598Y26772D02*
X423228Y37402D01*
X431890Y72441D02*
Y88583D01*
X447762Y56960D02*
X448229Y57427D01*
X404724Y37008D02*
X444331Y76614D01*
X431890Y88583D02*
X439764Y96457D01*
X386614Y31102D02*
X408268D01*
X434125Y56960D02*
X447762D01*
X376772Y42520D02*
X401968D01*
X448229Y57427D02*
X448372D01*
X380709Y37008D02*
X404724D01*
X394094Y26772D02*
X412598D01*
X427953Y200787D02*
X440158Y212992D01*
X415354Y149213D02*
X427953Y161811D01*
Y200787D01*
X382677Y149213D02*
X415354D01*
X373228Y139764D02*
X382677Y149213D01*
X388189Y143701D02*
X420472D01*
X433465Y156693D01*
Y182677D01*
X383228Y138740D02*
X388189Y143701D01*
X426378Y138583D02*
X439370Y151575D01*
X393228Y136535D02*
X395276Y138583D01*
X426378D01*
X439370Y151575D02*
Y170079D01*
X421654Y168504D02*
Y218110D01*
X435827Y232283D01*
X456693D01*
X440158Y212992D02*
X457087D01*
X411417Y158268D02*
X421654Y168504D01*
X383858Y158268D02*
X411417D01*
X363228Y137638D02*
X383858Y158268D01*
X373228Y128347D02*
Y139764D01*
X443110Y192323D02*
X456102D01*
X433465Y182677D02*
X443110Y192323D01*
X456102D02*
X456693Y192913D01*
X363228Y128347D02*
Y137638D01*
X383228Y128347D02*
Y138740D01*
X443307Y174016D02*
X457087D01*
X439370Y170079D02*
X443307Y174016D01*
X393228Y128347D02*
Y136535D01*
X444331Y76614D02*
X456536D01*
X456693Y76772D01*
X372441Y17953D02*
Y28740D01*
X380709Y37008D01*
X382677Y27165D02*
X386614Y31102D01*
X362205Y27953D02*
X376772Y42520D01*
X439764Y96457D02*
X456693D01*
X362205Y17717D02*
Y27953D01*
X372205Y17717D02*
X372441Y17953D01*
X392205Y24882D02*
X394094Y26772D01*
X392205Y17717D02*
Y24882D01*
X382677Y18189D02*
Y27165D01*
X382205Y17717D02*
X382677Y18189D01*
D58*
X382874Y248031D02*
X388539D01*
X370428D02*
X376969D01*
D59*
X123839Y183429D02*
X129528D01*
X86237D02*
X123839D01*
X41732Y175984D02*
Y181102D01*
X44058Y183429D02*
X86237D01*
X41732Y181102D02*
X44058Y183429D01*
X39567Y166535D02*
X39665Y166634D01*
X86237Y175981D02*
Y183429D01*
X249213Y171260D02*
X250787D01*
X247638D02*
X249213D01*
Y173622D01*
X250787Y171260D02*
X251516Y170531D01*
X246516Y170138D02*
X247638Y171260D01*
X246516Y166630D02*
Y170138D01*
X205512Y171653D02*
X206693D01*
X204449D02*
X205512D01*
Y174409D01*
X203209Y170413D02*
X204449Y171653D01*
X203209Y166630D02*
Y170413D01*
X77165Y175197D02*
X77685Y174677D01*
Y171921D02*
Y174677D01*
X257085Y174014D02*
X258661Y175591D01*
X257085Y171258D02*
Y174014D01*
X256516Y170689D02*
X257085Y171258D01*
X256516Y166630D02*
Y170689D01*
X251516Y166630D02*
Y170531D01*
X215354Y172047D02*
Y175197D01*
X213791Y170484D02*
X215354Y172047D01*
X213791Y167213D02*
Y170484D01*
X213209Y166630D02*
X213791Y167213D01*
X164961Y159449D02*
X249606D01*
X208268Y159843D02*
Y166571D01*
X208209Y166630D02*
X208268Y166571D01*
X206800Y171547D02*
X208209Y170138D01*
Y166630D02*
Y170138D01*
X215351Y183429D02*
X256722D01*
X172044D02*
X215351D01*
Y175981D02*
Y183429D01*
X172044Y175981D02*
Y183429D01*
X129564D02*
X172044D01*
X163493Y171547D02*
X164961Y170079D01*
Y166929D02*
Y170079D01*
X163493Y171547D02*
Y174106D01*
X161618Y175981D02*
X163493Y174106D01*
X122835Y159449D02*
X164961D01*
X164902Y159508D02*
X164961Y159449D01*
X164902Y159508D02*
Y166630D01*
X79134Y159449D02*
X122835D01*
X122579Y159705D02*
Y166630D01*
Y159705D02*
X122835Y159449D01*
X129721Y175981D02*
Y183271D01*
X122441Y167323D02*
Y170079D01*
X119295Y175981D02*
X121170Y174106D01*
Y171350D02*
Y174106D01*
Y171350D02*
X122441Y170079D01*
X256722Y183429D02*
X258658Y181493D01*
Y175981D02*
Y181493D01*
X77685Y171921D02*
X79134Y170472D01*
Y166929D02*
Y170472D01*
X34449Y166630D02*
Y170276D01*
X37008Y159449D02*
X79134D01*
X79094Y159488D02*
Y166630D01*
Y159488D02*
X79134Y159449D01*
X251575Y161417D02*
Y166535D01*
X249606Y159449D02*
X251575Y161417D01*
X34626Y161831D02*
Y166630D01*
Y161831D02*
X37008Y159449D01*
X39665Y166634D02*
Y170079D01*
X41684Y172098D01*
Y175897D01*
X31342Y171846D02*
X31928Y171260D01*
X33465D02*
X34449Y170276D01*
X31342Y171846D02*
Y175981D01*
X31928Y171260D02*
X33465D01*
D60*
X357830Y213766D02*
X363145D01*
M02*
